<?xml version="1.0" encoding="UTF-8" standalone="no"?>
<!DOCTYPE svg PUBLIC "-//W3C//DTD SVG 1.1//EN" "http://www.w3.org/Graphics/SVG/1.1/DTD/svg11.dtd">
<svg xmlns="http://www.w3.org/2000/svg" version="1.1" viewBox="0.00 0.00 1001.00 1001.00">
<g stroke-width="2.00" fill="none" stroke-linecap="butt">
<path stroke="#000000" stroke-opacity="0.624" vector-effect="non-scaling-stroke" d="
  M 1000.38 1.59
  C 1000.38 1.09 999.97 0.68 999.47 0.68
  L 1.61 0.68
  C 1.11 0.68 0.70 1.09 0.70 1.59
  L 0.70 999.63
  C 0.70 1000.13 1.11 1000.54 1.61 1000.54
  L 999.47 1000.54
  C 999.97 1000.54 1000.38 1000.13 1000.38 999.63
  L 1000.38 1.59"
/>
<path stroke="#808080" vector-effect="non-scaling-stroke" d="
  M 766.35 487.24
  C 769.23 487.27 774.71 486.56 776.79 485.50
  C 778.73 484.51 779.76 482.59 779.89 479.76
  C 780.54 465.70 780.75 455.95 780.53 450.51
  C 780.29 444.87 778.68 438.47 771.50 437.98
  C 763.91 437.46 756.33 436.89 748.75 436.28
  C 744.17 435.91 735.35 436.05 722.29 436.70
  C 720.44 436.80 719.45 437.23 719.09 439.09
  C 718.06 444.40 718.40 449.10 718.46 454.43
  C 718.67 474.22 718.77 493.79 718.77 513.16
  C 718.77 514.48 719.85 515.55 721.17 515.54
  L 738.84 515.40
  C 740.46 515.38 741.75 514.03 741.67 512.41
  L 740.80 493.87
  C 740.77 493.22 741.56 492.87 742.02 493.33
  C 748.74 500.00 752.39 507.67 758.73 514.86
  C 758.93 515.10 759.23 515.23 759.54 515.24
  C 767.33 515.44 775.13 515.61 782.92 515.74
  C 784.84 515.77 786.20 514.76 787.87 514.05
  C 788.21 513.91 788.31 513.47 788.05 513.19
  L 765.47 489.27
  C 764.18 487.90 764.47 487.23 766.35 487.24"
/>
<path stroke="#808080" vector-effect="non-scaling-stroke" d="
  M 799.49 438.72
  C 799.23 438.77 799.04 438.99 799.02 439.25
  C 798.89 441.02 798.77 442.85 798.68 444.76
  C 797.50 468.53 796.36 492.35 795.97 516.15
  C 795.96 516.50 796.14 516.69 796.49 516.71
  C 801.66 517.06 806.83 517.39 812.00 517.72
  C 813.65 517.82 815.17 517.74 816.55 517.49
  C 817.50 517.31 818.21 516.49 818.25 515.52
  L 821.49 440.01
  C 821.50 439.66 821.33 439.46 820.98 439.42
  C 813.90 438.66 806.56 437.38 799.49 438.72"
/>
<path stroke="#808080" vector-effect="non-scaling-stroke" d="
  M 707.89 449.51
  C 707.70 445.47 702.56 441.37 699.35 439.84
  C 697.79 439.09 695.81 438.75 693.42 438.81
  C 682.03 439.10 670.64 439.37 659.25 439.62
  C 654.16 439.73 647.05 439.93 642.90 441.98
  C 642.59 442.13 642.39 442.37 642.28 442.70
  C 641.68 444.56 641.31 446.66 641.16 449.00
  C 640.72 456.03 640.59 462.46 640.76 468.29
  C 641.09 479.62 641.50 490.94 641.99 502.25
  C 642.14 505.84 642.34 516.06 645.47 518.21
  C 646.25 518.74 647.49 519.01 649.19 519.02
  C 667.88 519.16 686.53 518.37 705.14 516.64
  C 709.75 516.22 709.25 509.59 709.25 506.28
  C 709.24 487.35 708.79 468.42 707.89 449.51"
/>
<path stroke="#808080" vector-effect="non-scaling-stroke" d="
  M 898.09 459.01
  C 898.59 453.19 895.49 448.51 890.74 445.57
  C 889.21 444.62 887.20 444.02 884.70 443.77
  C 873.41 442.64 862.13 441.51 850.85 440.38
  C 845.28 439.82 840.57 439.83 835.41 440.43
  C 834.67 440.52 834.02 440.97 833.68 441.63
  C 832.97 443.00 832.43 444.63 832.06 446.50
  C 830.93 452.29 830.07 458.13 829.48 464.00
  C 828.27 475.95 827.21 487.90 826.28 499.87
  C 826.09 502.28 825.99 504.53 825.96 506.64
  C 825.92 510.95 825.19 517.20 830.01 517.88
  C 846.78 520.25 865.18 521.76 885.21 522.42
  C 887.06 522.48 888.08 522.49 888.29 522.45
  C 890.69 521.99 891.69 518.36 891.96 516.24
  C 894.39 497.21 896.44 478.13 898.09 459.01"
/>
<path stroke="#808080" vector-effect="non-scaling-stroke" d="
  M 613.58 462.64
  C 613.53 462.04 613.81 461.75 614.41 461.76
  C 621.91 461.89 629.38 461.40 636.82 460.30
  C 637.12 460.25 637.34 459.99 637.32 459.68
  L 636.50 442.80
  C 636.43 441.51 635.33 440.53 634.05 440.61
  L 570.06 444.77
  C 568.48 444.87 567.41 446.42 567.87 447.94
  C 569.43 453.06 567.66 458.42 569.25 463.65
  C 569.39 464.09 569.80 464.37 570.25 464.35
  L 590.37 463.33
  C 591.70 463.26 592.85 464.28 592.93 465.61
  L 596.46 521.80
  C 596.47 522.01 596.59 522.11 596.80 522.10
  L 616.59 520.78
  C 617.17 520.74 617.60 520.24 617.56 519.66
  L 613.58 462.64"
/>
<path stroke="#808080" vector-effect="non-scaling-stroke" d="
  M 524.64 508.21
  C 530.25 507.17 535.90 506.76 541.60 506.98
  C 542.27 507.00 542.87 507.42 543.12 508.05
  L 549.61 524.38
  C 549.72 524.66 549.93 524.79 550.23 524.77
  L 568.37 523.75
  C 568.90 523.72 569.24 523.18 569.04 522.69
  L 538.52 447.28
  C 538.33 446.81 537.89 446.51 537.39 446.51
  L 523.79 446.49
  C 523.52 446.49 523.35 446.62 523.26 446.88
  C 521.02 453.93 518.87 461.01 516.81 468.12
  C 513.77 478.59 510.87 489.11 508.12 499.66
  C 505.76 508.70 502.79 517.74 500.17 526.79
  C 500.11 527.00 500.27 527.20 500.48 527.19
  L 517.87 526.38
  C 518.20 526.37 518.41 526.20 518.51 525.89
  L 524.09 508.70
  C 524.18 508.43 524.36 508.26 524.64 508.21"
/>
<path stroke="#808080" vector-effect="non-scaling-stroke" d="
  M 127.24 494.83
  C 128.17 496.61 128.48 499.06 129.22 500.79
  C 131.98 507.28 134.74 513.78 137.50 520.29
  C 137.69 520.74 138.02 521.02 138.49 521.15
  C 144.14 522.66 149.90 523.15 155.75 522.62
  C 156.04 522.59 156.28 522.46 156.45 522.22
  C 161.82 514.65 166.69 506.77 171.08 498.58
  C 171.17 498.40 171.21 498.21 171.18 498.01
  C 171.15 497.76 171.14 497.62 171.17 497.59
  C 171.76 496.94 172.01 497.05 171.94 497.93
  C 171.49 503.26 170.66 508.48 171.45 513.89
  C 172.25 519.38 171.56 523.67 170.99 530.80
  C 170.96 531.17 171.13 531.39 171.50 531.44
  C 178.44 532.42 185.42 532.86 192.43 532.75
  C 192.78 532.74 192.97 532.56 193.00 532.21
  C 193.92 518.69 194.82 505.26 195.69 491.92
  C 196.52 479.22 196.66 468.25 196.37 456.16
  C 196.36 455.49 196.03 455.07 195.39 454.88
  C 193.88 454.45 192.23 454.18 190.51 454.37
  C 185.18 454.96 178.89 453.57 173.59 452.84
  C 173.20 452.79 172.92 452.93 172.75 453.27
  L 150.14 496.94
  C 149.95 497.30 149.43 497.29 149.27 496.91
  C 143.06 482.07 137.30 466.99 132.01 451.67
  C 130.72 447.94 125.29 450.04 122.23 449.93
  C 117.74 449.76 113.22 449.50 108.67 449.14
  C 108.39 449.12 108.24 449.25 108.22 449.53
  L 103.08 526.62
  C 103.05 527.01 103.23 527.22 103.62 527.25
  L 124.57 528.90
  C 124.86 528.92 125.10 528.70 125.12 528.41
  L 126.62 494.97
  C 126.66 494.16 126.87 494.12 127.24 494.83"
/>
<path stroke="#808080" vector-effect="non-scaling-stroke" d="
  M 449.02 507.65
  C 449.05 507.10 449.28 506.99 449.71 507.34
  C 456.42 512.66 461.25 520.25 466.75 526.76
  C 467.52 527.67 468.69 528.09 470.25 528.01
  C 477.20 527.66 484.16 527.31 491.13 526.98
  C 493.40 526.87 495.21 526.25 496.83 524.86
  C 497.22 524.53 497.22 524.20 496.85 523.85
  L 471.99 500.81
  C 471.62 500.47 471.84 499.85 472.34 499.81
  C 476.03 499.54 479.66 498.77 483.25 497.50
  C 485.25 496.79 486.33 495.73 486.51 493.47
  C 487.30 483.37 486.23 470.54 485.36 462.26
  C 485.05 459.25 484.20 456.41 482.81 453.73
  C 480.10 448.52 469.09 450.26 464.34 450.13
  C 451.63 449.79 438.97 450.50 426.36 452.26
  C 424.09 452.58 423.33 453.20 423.18 455.51
  C 422.95 459.13 422.93 462.13 423.13 464.51
  C 424.90 485.96 426.52 507.40 427.99 528.82
  C 428.07 530.05 429.14 530.98 430.37 530.89
  L 448.14 529.58
  C 449.90 529.45 451.17 527.85 450.89 526.11
  C 449.96 520.35 448.71 513.79 449.02 507.65"
/>
<path stroke="#808080" vector-effect="non-scaling-stroke" d="
  M 376.87 473.19
  C 379.64 472.70 382.44 472.47 385.25 472.48
  C 394.84 472.53 404.45 472.75 414.02 472.00
  C 414.36 471.97 414.56 471.79 414.61 471.46
  C 415.61 465.48 417.01 456.93 412.22 452.62
  C 411.97 452.40 411.68 452.29 411.35 452.28
  C 406.90 452.20 403.70 452.21 401.75 452.31
  C 385.02 453.15 368.47 454.06 352.12 455.05
  C 350.71 455.14 349.69 456.42 349.91 457.81
  C 350.69 462.53 351.35 467.12 351.90 471.57
  C 352.45 476.03 352.15 480.71 352.27 485.34
  C 352.65 500.78 352.72 516.14 353.69 531.58
  C 353.72 531.92 353.87 532.18 354.16 532.37
  C 355.23 533.08 356.43 533.44 357.75 533.45
  C 377.99 533.62 398.20 533.21 418.31 530.66
  C 418.62 530.62 418.81 530.44 418.88 530.13
  C 419.84 525.70 418.19 519.74 416.74 514.80
  C 416.65 514.49 416.49 514.24 416.24 514.05
  C 412.29 510.95 408.17 512.88 403.56 512.96
  C 396.95 513.08 390.35 513.34 383.74 513.73
  C 381.93 513.84 380.10 513.73 378.25 513.40
  C 377.89 513.34 377.68 513.13 377.63 512.77
  C 377.15 509.78 377.16 506.77 377.67 503.75
  C 377.72 503.46 377.87 503.22 378.11 503.04
  C 378.93 502.44 379.89 502.08 381.00 501.96
  C 389.49 501.01 398.04 500.55 406.64 500.57
  C 406.98 500.57 407.25 500.43 407.44 500.16
  C 409.42 497.39 407.97 489.32 408.08 486.03
  C 408.13 484.29 406.72 482.87 404.98 482.91
  C 397.19 483.11 389.56 483.37 382.07 483.68
  C 379.18 483.81 377.43 484.21 376.36 481.43
  C 375.37 478.88 375.31 476.34 376.17 473.79
  C 376.28 473.45 376.52 473.25 376.87 473.19"
/>
<path stroke="#808080" vector-effect="non-scaling-stroke" d="
  M 229.58 516.20
  C 233.71 515.74 242.80 514.81 247.14 516.52
  C 247.55 516.68 247.82 516.97 247.95 517.38
  L 253.27 534.05
  C 253.36 534.35 253.56 534.50 253.87 534.50
  L 271.70 534.83
  C 272.39 534.84 272.89 534.17 272.67 533.51
  L 247.46 456.09
  C 247.36 455.78 247.15 455.62 246.83 455.60
  L 233.16 454.57
  C 232.77 454.54 232.50 454.71 232.35 455.07
  C 225.72 471.31 219.70 487.77 214.29 504.45
  C 211.13 514.18 207.29 523.48 203.74 533.04
  C 203.65 533.29 203.74 533.42 204.01 533.43
  L 221.42 533.83
  C 221.77 533.84 222.00 533.69 222.13 533.36
  L 228.89 516.72
  C 229.02 516.41 229.25 516.23 229.58 516.20"
/>
<path stroke="#808080" vector-effect="non-scaling-stroke" d="
  M 282.16 534.37
  C 282.31 534.70 282.63 534.92 282.99 534.94
  C 300.20 536.20 317.84 535.32 335.00 533.78
  C 344.86 532.90 344.89 522.57 344.94 515.00
  C 345.02 502.93 344.92 495.05 344.89 481.15
  C 344.88 474.38 344.54 469.16 343.87 465.48
  C 343.52 463.55 342.33 461.47 340.29 459.23
  C 337.80 456.50 334.76 455.86 331.25 455.54
  C 325.82 455.04 320.37 454.84 314.92 454.93
  C 303.73 455.12 292.96 455.32 282.59 455.54
  C 281.33 455.57 280.31 456.60 280.30 457.86
  C 280.15 481.65 280.21 504.85 280.46 527.45
  C 280.49 530.27 281.05 531.94 282.16 534.37"
/>
<path stroke="#808080" vector-effect="non-scaling-stroke" d="
  M 739.93 560.28
  L 740.12 554.80
  C 740.13 554.43 740.33 554.24 740.70 554.25
  L 746.51 554.25
  C 747.49 554.25 748.28 553.47 748.29 552.49
  L 748.37 543.05
  C 748.37 542.75 748.22 542.59 747.93 542.58
  L 736.34 542.13
  C 735.75 542.11 735.27 542.57 735.26 543.16
  L 735.09 560.30
  C 735.09 560.61 735.24 560.77 735.55 560.76
  L 739.51 560.69
  C 739.74 560.68 739.92 560.51 739.93 560.28"
/>
<path stroke="#808080" vector-effect="non-scaling-stroke" d="
  M 722.22 555.61
  L 726.33 560.43
  C 726.42 560.54 726.53 560.59 726.67 560.58
  L 732.85 560.33
  C 733.02 560.32 733.04 560.26 732.92 560.15
  L 727.16 554.69
  C 726.92 554.46 727.03 554.06 727.35 553.98
  L 730.13 553.31
  C 730.43 553.24 730.58 553.04 730.57 552.73
  L 730.29 543.90
  C 730.27 543.15 729.65 542.55 728.90 542.56
  L 717.01 542.67
  C 716.14 542.68 715.73 543.12 715.79 543.99
  L 716.97 560.62
  C 717.00 561.03 717.22 561.24 717.63 561.24
  L 720.96 561.25
  C 721.48 561.25 721.88 560.81 721.83 560.29
  L 721.43 555.95
  C 721.34 555.00 721.60 554.88 722.22 555.61"
/>
<path stroke="#808080" vector-effect="non-scaling-stroke" d="
  M 758.7321 542.9587
  C 758.73 542.82 758.62 542.70 758.4772 542.6937
  L 754.0980 542.6097
  C 753.95 542.61 753.84 542.72 753.8330 542.8646
  L 753.4879 560.8413
  C 753.49 560.98 753.60 561.10 753.7428 561.1063
  L 758.1220 561.1903
  C 758.27 561.19 758.38 561.08 758.3870 560.9354
  L 758.7321 542.9587"
/>
<path stroke="#808080" vector-effect="non-scaling-stroke" d="
  M 768.37 553.00
  C 768.42 550.25 768.96 550.15 770.01 552.69
  C 771.23 555.66 772.82 558.44 774.79 561.02
  C 775.00 561.29 775.27 561.42 775.60 561.42
  L 778.89 561.43
  C 779.35 561.43 779.58 561.20 779.59 560.74
  L 779.82 543.65
  C 779.83 543.12 779.57 542.86 779.04 542.85
  L 775.60 542.81
  C 775.20 542.80 774.87 543.13 774.88 543.53
  L 774.90 552.54
  C 774.91 553.71 774.63 553.78 774.08 552.75
  C 772.93 550.58 771.75 548.20 770.54 545.59
  C 770.15 544.76 770.26 543.90 769.46 543.09
  C 769.24 542.87 768.98 542.75 768.68 542.74
  L 765.33 542.58
  C 764.57 542.55 763.93 543.16 763.92 543.92
  L 763.75 561.00
  C 763.74 561.14 763.86 561.25 764.00 561.25
  L 767.99 561.26
  C 768.12 561.26 768.23 561.15 768.24 561.01
  L 768.37 553.00"
/>
<path stroke="#808080" vector-effect="non-scaling-stroke" d="
  M 701.79 557.50
  L 704.70 557.25
  C 705.04 557.22 705.32 557.34 705.54 557.60
  C 706.40 558.61 706.82 559.75 706.81 561.04
  C 706.80 561.37 706.96 561.53 707.28 561.52
  L 712.01 561.45
  C 712.72 561.44 712.81 561.20 712.27 560.73
  C 712.19 560.66 712.07 560.55 711.91 560.42
  C 711.78 560.31 711.68 560.17 711.61 560.00
  C 709.47 554.55 707.35 549.08 705.25 543.60
  C 705.14 543.31 704.92 543.17 704.61 543.19
  L 701.31 543.45
  C 700.98 543.47 700.77 543.64 700.68 543.96
  L 695.47 561.68
  C 695.38 561.99 695.62 562.30 695.94 562.29
  L 699.25 562.17
  C 699.64 562.16 699.89 561.97 700.01 561.60
  L 701.22 557.95
  C 701.31 557.68 701.50 557.53 701.79 557.50"
/>
<path stroke="#808080" vector-effect="non-scaling-stroke" d="
  M 795.36 548.34
  C 795.36 548.14 795.52 547.99 795.72 548.00
  L 800.86 548.32
  C 801.05 548.33 801.21 548.19 801.22 548.00
  L 801.42 544.08
  C 801.43 543.89 801.28 543.73 801.09 543.72
  L 785.90 543.49
  C 785.72 543.49 785.57 543.63 785.55 543.80
  L 785.26 546.99
  C 785.24 547.18 785.38 547.35 785.57 547.36
  L 790.49 547.86
  C 790.67 547.88 790.80 548.02 790.80 548.20
  L 790.65 561.81
  C 790.65 562.00 790.80 562.15 790.99 562.15
  L 794.94 562.16
  C 795.13 562.16 795.28 562.01 795.28 561.82
  L 795.36 548.34"
/>
<path stroke="#808080" vector-effect="non-scaling-stroke" d="
  M 689.27 545.79
  C 689.32 544.68 688.39 543.78 687.28 543.86
  L 678.70 544.44
  C 677.12 544.55 675.88 545.82 675.81 547.40
  C 675.63 551.62 674.95 558.98 677.46 562.75
  C 677.65 563.02 677.90 563.15 678.23 563.12
  L 688.76 562.23
  C 689.62 562.16 690.21 561.33 690.00 560.49
  L 689.85 559.89
  C 689.64 559.06 689.11 558.65 688.26 558.64
  L 681.36 558.63
  C 680.80 558.62 680.34 558.18 680.33 557.62
  L 680.17 549.60
  C 680.16 549.04 680.60 548.58 681.15 548.56
  L 688.46 548.28
  C 688.93 548.26 689.18 548.01 689.20 547.54
  L 689.27 545.79"
/>
<path stroke="#808080" vector-effect="non-scaling-stroke" d="
  M 811.38 555.37
  L 818.21 555.43
  C 818.30 555.43 818.38 555.36 818.37 555.27
  L 818.27 552.01
  C 818.26 551.87 818.15 551.76 818.01 551.75
  L 812.36 551.62
  C 811.65 551.61 811.06 551.08 810.96 550.38
  L 810.83 549.47
  C 810.72 548.64 811.08 548.26 811.91 548.32
  L 819.99 548.94
  C 820.24 548.96 820.45 548.76 820.45 548.51
  L 820.43 545.20
  C 820.43 544.84 820.25 544.65 819.89 544.64
  L 806.44 544.10
  C 806.17 544.09 805.94 544.30 805.92 544.57
  L 804.88 561.90
  C 804.86 562.19 805.09 562.45 805.38 562.47
  L 818.72 563.44
  C 819.74 563.52 820.25 563.05 820.25 562.02
  L 820.24 560.42
  C 820.24 559.55 819.54 558.84 818.67 558.82
  L 811.02 558.70
  C 810.56 558.69 810.37 558.46 810.44 558.01
  L 810.78 555.88
  C 810.83 555.54 811.03 555.37 811.38 555.37"
/>
<path stroke="#808080" vector-effect="non-scaling-stroke" d="
  M 831.11 558.38
  L 834.00 562.67
  C 834.51 563.42 835.21 563.84 836.12 563.92
  L 840.45 564.30
  C 841.32 564.37 841.47 564.08 840.89 563.43
  L 836.26 558.24
  C 835.25 557.11 835.44 556.74 836.82 557.13
  C 837.49 557.32 838.15 557.28 838.78 557.03
  C 839.13 556.90 839.39 556.60 839.47 556.24
  C 840.12 553.49 840.36 550.74 840.17 548.00
  C 840.10 546.82 839.16 545.87 837.98 545.77
  L 826.70 544.80
  C 826.23 544.76 825.82 545.13 825.80 545.60
  L 825.26 562.90
  C 825.25 563.17 825.38 563.31 825.64 563.32
  L 829.99 563.54
  C 830.19 563.55 830.29 563.46 830.28 563.26
  L 830.18 558.67
  C 830.17 558.16 830.83 557.96 831.11 558.38"
/>
<path stroke="#808080" vector-effect="non-scaling-stroke" d="
  M 651.41 557.56
  C 651.37 557.20 651.63 556.88 651.99 556.85
  L 658.55 556.24
  C 658.89 556.20 659.15 555.91 659.14 555.57
  L 659.07 553.29
  C 659.06 552.94 658.76 552.66 658.41 552.66
  L 652.00 552.80
  C 651.67 552.80 651.39 552.56 651.34 552.24
  L 651.11 550.58
  C 651.06 550.19 651.35 549.85 651.73 549.84
  L 659.94 549.59
  C 660.31 549.58 660.60 549.26 660.57 548.89
  L 660.35 545.92
  C 660.32 545.57 660.02 545.30 659.67 545.32
  L 646.22 545.94
  C 645.86 545.96 645.58 546.26 645.60 546.62
  L 646.47 563.85
  C 646.49 564.21 646.79 564.48 647.14 564.47
  L 660.92 563.97
  C 661.30 563.96 661.58 563.63 661.54 563.25
  L 661.22 560.27
  C 661.18 559.93 660.89 559.68 660.55 559.69
  L 652.27 559.97
  C 651.92 559.98 651.63 559.73 651.60 559.39
  L 651.41 557.56"
/>
<path stroke="#808080" vector-effect="non-scaling-stroke" d="
  M 849.6545 546.9846
  C 849.68 546.66 849.43 546.38 849.1049 546.3568
  L 845.2933 546.1036
  C 844.97 546.08 844.69 546.33 844.6655 546.6532
  L 843.5255 563.8154
  C 843.50 564.14 843.75 564.42 844.0751 564.4432
  L 847.8867 564.6964
  C 848.21 564.72 848.49 564.47 848.5145 564.1468
  L 849.6545 546.9846"
/>
<path stroke="#808080" vector-effect="non-scaling-stroke" d="
  M 638.86 546.86
  C 638.76 546.72 638.60 546.63 638.43 546.63
  L 626.05 546.75
  C 625.67 546.76 625.37 547.07 625.38 547.45
  L 625.84 564.81
  C 625.85 565.18 626.03 565.37 626.40 565.38
  C 630.27 565.56 636.10 565.83 639.70 564.39
  C 639.99 564.28 640.18 564.07 640.28 563.78
  C 640.67 562.65 640.84 561.64 640.79 560.75
  C 640.58 556.97 640.40 553.19 640.24 549.40
  C 640.23 549.09 640.13 548.80 639.96 548.54
  L 638.86 546.86"
/>
<path stroke="#808080" vector-effect="non-scaling-stroke" d="
  M 864.58 562.05
  L 865.62 565.96
  C 865.67 566.15 865.79 566.24 865.98 566.25
  L 870.25 566.37
  C 870.36 566.37 870.44 566.27 870.41 566.17
  L 865.95 548.56
  C 865.86 548.23 865.67 547.98 865.37 547.81
  C 864.17 547.14 861.53 546.70 860.86 548.28
  C 858.50 553.91 856.09 559.50 853.64 565.03
  C 853.60 565.11 853.66 565.22 853.76 565.22
  L 857.85 565.38
  C 858.06 565.39 858.20 565.30 858.29 565.12
  L 859.83 561.80
  C 860.00 561.42 860.30 561.24 860.73 561.27
  L 863.87 561.47
  C 864.20 561.49 864.49 561.72 864.58 562.05"
/>
<path stroke="#808080" vector-effect="non-scaling-stroke" d="
  M 602.97 561.21
  L 606.30 564.97
  C 607.08 565.86 608.06 566.29 609.25 566.27
  L 612.47 566.20
  C 613.77 566.18 613.94 565.74 612.97 564.87
  L 608.26 560.65
  C 607.48 559.96 607.61 559.54 608.64 559.41
  L 610.79 559.13
  C 611.18 559.08 611.38 558.85 611.37 558.46
  L 611.24 550.75
  C 611.22 549.60 610.53 548.76 609.16 548.22
  C 606.55 547.20 601.52 548.12 596.86 548.78
  C 596.58 548.82 596.45 548.98 596.48 549.26
  L 597.80 566.36
  C 597.84 566.87 598.11 567.10 598.62 567.04
  L 602.11 566.64
  C 602.47 566.60 602.72 566.28 602.68 565.92
  L 602.17 561.57
  C 602.06 560.60 602.32 560.48 602.97 561.21"
/>
<path stroke="#808080" vector-effect="non-scaling-stroke" d="
  M 582.76 560.80
  C 582.76 560.51 582.91 560.35 583.20 560.34
  L 589.26 560.11
  C 589.98 560.08 590.31 559.71 590.26 558.99
  L 590.12 556.98
  C 590.08 556.42 589.78 556.16 589.22 556.20
  L 583.62 556.57
  C 582.91 556.61 582.31 556.07 582.28 555.36
  L 582.24 554.44
  C 582.21 553.69 582.56 553.31 583.31 553.30
  L 590.96 553.24
  C 591.24 553.23 591.40 553.09 591.44 552.82
  C 591.62 551.56 591.53 550.33 591.17 549.13
  C 591.07 548.79 590.75 548.57 590.40 548.60
  L 577.00 549.77
  C 576.70 549.80 576.56 549.96 576.58 550.26
  L 577.65 567.76
  C 577.68 568.14 577.88 568.32 578.26 568.29
  L 592.54 567.25
  C 592.75 567.24 592.84 567.12 592.80 566.91
  L 592.16 563.62
  C 592.13 563.43 592.01 563.33 591.80 563.34
  L 583.24 563.72
  C 582.91 563.73 582.74 563.57 582.75 563.24
  L 582.76 560.80"
/>
<path stroke="#808080" vector-effect="non-scaling-stroke" d="
  M 562.71 564.04
  L 562.26 550.45
  C 562.25 550.27 562.10 550.14 561.93 550.16
  L 557.75 550.70
  C 557.43 550.74 557.28 550.92 557.29 551.25
  L 558.05 568.80
  C 558.06 569.13 558.23 569.28 558.56 569.26
  L 571.23 568.26
  C 571.84 568.21 572.14 567.88 572.14 567.27
  L 572.12 564.58
  C 572.11 564.02 571.63 563.60 571.08 563.66
  L 563.29 564.55
  C 562.92 564.59 562.72 564.42 562.71 564.04"
/>
<path stroke="#808080" vector-effect="non-scaling-stroke" d="
  M 543.83 565.60
  C 543.64 565.62 543.48 565.48 543.47 565.29
  L 543.23 551.62
  C 543.22 551.43 543.06 551.28 542.88 551.30
  L 538.42 551.72
  C 538.25 551.74 538.13 551.88 538.13 552.05
  L 538.90 570.03
  C 538.90 570.21 539.06 570.35 539.24 570.33
  L 552.73 569.25
  C 552.90 569.23 553.03 569.08 553.02 568.91
  L 552.77 564.95
  C 552.76 564.76 552.60 564.63 552.42 564.65
  L 543.83 565.60"
/>
<path stroke="#808080" vector-effect="non-scaling-stroke" d="
  M 528.52 567.16
  C 528.63 568.23 528.98 569.20 529.58 570.07
  C 529.80 570.40 530.11 570.55 530.50 570.53
  L 533.90 570.39
  C 534.35 570.38 534.50 570.16 534.33 569.73
  L 527.65 553.06
  C 527.42 552.49 526.83 552.14 526.22 552.21
  L 523.46 552.54
  C 523.13 552.58 522.93 552.76 522.84 553.07
  L 517.80 571.02
  C 517.77 571.14 517.86 571.26 517.98 571.26
  L 521.84 571.25
  C 522.09 571.25 522.25 571.13 522.32 570.90
  L 523.51 567.13
  C 523.61 566.82 523.82 566.62 524.14 566.54
  C 525.38 566.25 526.63 566.22 527.89 566.47
  C 528.27 566.55 528.48 566.78 528.52 567.16"
/>
<path stroke="#808080" vector-effect="non-scaling-stroke" d="
  M 507.25 557.92
  C 507.23 557.72 507.38 557.55 507.58 557.54
  L 512.58 557.27
  C 512.78 557.26 512.93 557.08 512.91 556.88
  L 512.54 553.29
  C 512.52 553.11 512.35 552.97 512.16 552.98
  L 497.07 553.93
  C 496.88 553.94 496.74 554.10 496.74 554.28
  L 496.77 557.94
  C 496.77 558.14 496.93 558.29 497.13 558.29
  L 502.18 558.10
  C 502.37 558.10 502.53 558.24 502.55 558.43
  L 503.55 571.85
  C 503.57 572.05 503.75 572.20 503.94 572.18
  L 507.96 571.69
  C 508.14 571.67 508.28 571.50 508.26 571.32
  L 507.25 557.92"
/>
<path stroke="#808080" vector-effect="non-scaling-stroke" d="
  M 754.38 472.69
  C 761.84 473.89 760.05 461.64 759.90 457.67
  C 759.84 456.06 758.56 454.75 756.95 454.67
  C 751.80 454.39 746.65 454.25 741.39 455.36
  C 741.04 455.43 740.88 455.64 740.90 455.99
  L 741.55 471.24
  C 741.59 472.28 742.54 473.04 743.57 472.86
  C 747.37 472.19 750.97 472.14 754.38 472.69"
/>
<path stroke="#808080" vector-effect="non-scaling-stroke" d="
  M 664.82 462.25
  C 661.98 462.30 660.84 464.46 661.03 467.00
  C 661.79 477.06 662.22 487.19 662.32 497.38
  C 662.33 498.64 663.40 499.65 664.66 499.58
  L 686.38 498.43
  C 687.04 498.39 687.59 497.92 687.72 497.28
  C 688.22 494.84 688.50 492.33 688.56 489.75
  C 688.77 480.62 688.27 471.58 687.08 462.65
  C 687.01 462.07 686.50 461.64 685.92 461.66
  C 678.73 461.93 671.69 462.12 664.82 462.25"
/>
<path stroke="#808080" vector-effect="non-scaling-stroke" d="
  M 872.13 501.33
  C 875.33 490.55 875.92 477.64 875.73 466.42
  C 875.72 466.04 875.53 465.83 875.15 465.79
  C 868.30 465.02 861.42 464.24 854.49 463.47
  C 850.53 463.03 849.53 465.54 849.34 469.04
  C 848.80 478.93 848.04 488.71 847.05 498.40
  C 846.94 499.50 847.76 500.48 848.87 500.56
  L 870.88 502.19
  C 871.53 502.24 871.94 501.95 872.13 501.33"
/>
<path stroke="#808080" vector-effect="non-scaling-stroke" d="
  M 527.58 492.50
  C 527.49 492.88 527.79 493.24 528.18 493.21
  L 538.56 492.47
  C 538.95 492.44 539.20 492.04 539.05 491.68
  L 532.74 476.46
  C 532.53 475.95 531.79 476.00 531.66 476.53
  L 527.58 492.50"
/>
<path stroke="#808080" vector-effect="non-scaling-stroke" d="
  M 461.25 485.76
  C 468.40 486.15 465.71 473.56 464.99 469.83
  C 464.74 468.54 463.58 467.63 462.27 467.72
  C 457.10 468.06 451.76 467.69 446.75 469.57
  C 446.31 469.74 446.12 470.06 446.17 470.53
  L 447.94 485.78
  C 448.03 486.56 448.78 487.08 449.54 486.89
  C 453.51 485.92 457.41 485.55 461.25 485.76"
/>
<path stroke="#808080" vector-effect="non-scaling-stroke" d="
  M 233.48 500.85
  C 233.37 501.18 233.62 501.52 233.97 501.52
  L 244.53 501.48
  C 244.88 501.48 245.13 501.14 245.01 500.81
  L 239.68 484.98
  C 239.52 484.52 238.86 484.52 238.71 484.98
  L 233.48 500.85"
/>
<path stroke="#808080" vector-effect="non-scaling-stroke" d="
  M 319.82 477.66
  C 314.93 475.29 306.31 475.50 300.94 476.16
  C 300.61 476.20 300.43 476.38 300.40 476.71
  C 298.86 489.60 297.59 503.80 299.92 516.61
  C 299.99 516.98 300.32 517.24 300.70 517.22
  C 306.08 516.96 311.52 516.67 317.03 516.34
  C 320.61 516.13 322.56 515.29 323.25 511.44
  C 324.40 504.99 326.79 481.05 319.82 477.66"
/>
<path stroke="#808080" vector-effect="non-scaling-stroke" d="
  M 740.84 550.77
  L 743.52 550.81
  C 744.14 550.82 744.65 550.32 744.66 549.70
  L 744.69 547.41
  C 744.70 546.39 743.80 545.55 742.68 545.54
  L 741.84 545.52
  C 740.71 545.51 739.79 546.32 739.77 547.35
  L 739.74 549.64
  C 739.73 550.25 740.22 550.76 740.84 550.77"
/>
<path stroke="#808080" vector-effect="non-scaling-stroke" d="
  M 726.29 549.62
  L 725.65 546.63
  C 725.59 546.34 725.41 546.20 725.11 546.21
  L 721.76 546.34
  C 721.35 546.36 721.15 546.58 721.17 546.99
  L 721.31 550.87
  C 721.32 551.21 721.67 551.44 721.99 551.32
  C 723.04 550.92 724.13 550.75 725.28 550.80
  C 725.92 550.84 726.43 550.25 726.29 549.62"
/>
<path stroke="#808080" vector-effect="non-scaling-stroke" d="
  M 702.10 553.85
  C 702.05 554.11 702.29 554.34 702.54 554.26
  L 704.62 553.65
  C 704.82 553.59 704.92 553.38 704.85 553.18
  L 703.59 549.99
  C 703.46 549.66 702.99 549.70 702.92 550.04
  L 702.10 553.85"
/>
<path stroke="#808080" vector-effect="non-scaling-stroke" d="
  M 830.39 549.73
  L 830.43 553.33
  C 830.43 553.59 830.64 553.79 830.90 553.79
  L 834.51 553.75
  C 835.12 553.75 835.61 553.20 835.60 552.53
  L 835.58 550.41
  C 835.57 549.74 835.07 549.21 834.47 549.21
  L 830.86 549.25
  C 830.60 549.26 830.39 549.47 830.39 549.73"
/>
<path stroke="#808080" vector-effect="non-scaling-stroke" d="
  M 629.41 552.78
  L 629.53 560.36
  C 629.54 561.20 630.23 561.86 631.06 561.85
  L 633.40 561.81
  C 635.03 561.79 636.33 560.35 636.30 558.61
  L 636.24 554.33
  C 636.21 552.58 634.87 551.19 633.24 551.21
  L 630.90 551.25
  C 630.06 551.26 629.40 551.95 629.41 552.78"
/>
<path stroke="#808080" vector-effect="non-scaling-stroke" d="
  M 861.51 557.80
  L 863.24 558.21
  C 863.53 558.28 863.69 558.17 863.72 557.88
  C 863.91 556.33 863.80 555.18 863.40 554.41
  C 863.11 553.85 862.26 554.08 862.30 554.71
  C 862.36 555.68 862.04 556.48 861.33 557.13
  C 861.10 557.34 861.20 557.72 861.51 557.80"
/>
<path stroke="#808080" vector-effect="non-scaling-stroke" d="
  M 601.57 552.56
  L 602.07 556.67
  C 602.09 556.86 602.26 556.99 602.45 556.97
  L 605.63 556.58
  C 606.45 556.48 607.04 555.77 606.94 555.00
  L 606.70 553.01
  C 606.60 552.24 605.86 551.69 605.04 551.79
  L 601.86 552.18
  C 601.68 552.21 601.54 552.38 601.57 552.56"
/>
<path stroke="#808080" vector-effect="non-scaling-stroke" d="
  M 526.80 562.86
  C 527.05 562.81 527.19 562.56 527.11 562.33
  L 525.99 559.03
  C 525.86 558.63 525.29 558.67 525.20 559.07
  L 524.44 562.76
  C 524.38 563.05 524.63 563.30 524.92 563.25
  L 526.80 562.86"
/>
</g>
<path fill="#000000" fill-opacity="0.243" d="
  M 0.00 0.00
  L 1001.00 0.00
  L 1001.00 1001.00
  L 0.00 1001.00
  L 0.00 0.00
  Z
  M 1000.38 1.59
  C 1000.38 1.09 999.97 0.68 999.47 0.68
  L 1.61 0.68
  C 1.11 0.68 0.70 1.09 0.70 1.59
  L 0.70 999.63
  C 0.70 1000.13 1.11 1000.54 1.61 1000.54
  L 999.47 1000.54
  C 999.97 1000.54 1000.38 1000.13 1000.38 999.63
  L 1000.38 1.59
  Z"
/>
<path fill="#000000" d="
  M 1000.38 999.63
  C 1000.38 1000.13 999.97 1000.54 999.47 1000.54
  L 1.61 1000.54
  C 1.11 1000.54 0.70 1000.13 0.70 999.63
  L 0.70 1.59
  C 0.70 1.09 1.11 0.68 1.61 0.68
  L 999.47 0.68
  C 999.97 0.68 1000.38 1.09 1000.38 1.59
  L 1000.38 999.63
  Z
  M 766.35 487.24
  C 769.23 487.27 774.71 486.56 776.79 485.50
  C 778.73 484.51 779.76 482.59 779.89 479.76
  C 780.54 465.70 780.75 455.95 780.53 450.51
  C 780.29 444.87 778.68 438.47 771.50 437.98
  C 763.91 437.46 756.33 436.89 748.75 436.28
  C 744.17 435.91 735.35 436.05 722.29 436.70
  C 720.44 436.80 719.45 437.23 719.09 439.09
  C 718.06 444.40 718.40 449.10 718.46 454.43
  C 718.67 474.22 718.77 493.79 718.77 513.16
  C 718.77 514.48 719.85 515.55 721.17 515.54
  L 738.84 515.40
  C 740.46 515.38 741.75 514.03 741.67 512.41
  L 740.80 493.87
  C 740.77 493.22 741.56 492.87 742.02 493.33
  C 748.74 500.00 752.39 507.67 758.73 514.86
  C 758.93 515.10 759.23 515.23 759.54 515.24
  C 767.33 515.44 775.13 515.61 782.92 515.74
  C 784.84 515.77 786.20 514.76 787.87 514.05
  C 788.21 513.91 788.31 513.47 788.05 513.19
  L 765.47 489.27
  C 764.18 487.90 764.47 487.23 766.35 487.24
  Z
  M 799.49 438.72
  C 799.23 438.77 799.04 438.99 799.02 439.25
  C 798.89 441.02 798.77 442.85 798.68 444.76
  C 797.50 468.53 796.36 492.35 795.97 516.15
  C 795.96 516.50 796.14 516.69 796.49 516.71
  C 801.66 517.06 806.83 517.39 812.00 517.72
  C 813.65 517.82 815.17 517.74 816.55 517.49
  C 817.50 517.31 818.21 516.49 818.25 515.52
  L 821.49 440.01
  C 821.50 439.66 821.33 439.46 820.98 439.42
  C 813.90 438.66 806.56 437.38 799.49 438.72
  Z
  M 707.89 449.51
  C 707.70 445.47 702.56 441.37 699.35 439.84
  C 697.79 439.09 695.81 438.75 693.42 438.81
  C 682.03 439.10 670.64 439.37 659.25 439.62
  C 654.16 439.73 647.05 439.93 642.90 441.98
  C 642.59 442.13 642.39 442.37 642.28 442.70
  C 641.68 444.56 641.31 446.66 641.16 449.00
  C 640.72 456.03 640.59 462.46 640.76 468.29
  C 641.09 479.62 641.50 490.94 641.99 502.25
  C 642.14 505.84 642.34 516.06 645.47 518.21
  C 646.25 518.74 647.49 519.01 649.19 519.02
  C 667.88 519.16 686.53 518.37 705.14 516.64
  C 709.75 516.22 709.25 509.59 709.25 506.28
  C 709.24 487.35 708.79 468.42 707.89 449.51
  Z
  M 898.09 459.01
  C 898.59 453.19 895.49 448.51 890.74 445.57
  C 889.21 444.62 887.20 444.02 884.70 443.77
  C 873.41 442.64 862.13 441.51 850.85 440.38
  C 845.28 439.82 840.57 439.83 835.41 440.43
  C 834.67 440.52 834.02 440.97 833.68 441.63
  C 832.97 443.00 832.43 444.63 832.06 446.50
  C 830.93 452.29 830.07 458.13 829.48 464.00
  C 828.27 475.95 827.21 487.90 826.28 499.87
  C 826.09 502.28 825.99 504.53 825.96 506.64
  C 825.92 510.95 825.19 517.20 830.01 517.88
  C 846.78 520.25 865.18 521.76 885.21 522.42
  C 887.06 522.48 888.08 522.49 888.29 522.45
  C 890.69 521.99 891.69 518.36 891.96 516.24
  C 894.39 497.21 896.44 478.13 898.09 459.01
  Z
  M 613.58 462.64
  C 613.53 462.04 613.81 461.75 614.41 461.76
  C 621.91 461.89 629.38 461.40 636.82 460.30
  C 637.12 460.25 637.34 459.99 637.32 459.68
  L 636.50 442.80
  C 636.43 441.51 635.33 440.53 634.05 440.61
  L 570.06 444.77
  C 568.48 444.87 567.41 446.42 567.87 447.94
  C 569.43 453.06 567.66 458.42 569.25 463.65
  C 569.39 464.09 569.80 464.37 570.25 464.35
  L 590.37 463.33
  C 591.70 463.26 592.85 464.28 592.93 465.61
  L 596.46 521.80
  C 596.47 522.01 596.59 522.11 596.80 522.10
  L 616.59 520.78
  C 617.17 520.74 617.60 520.24 617.56 519.66
  L 613.58 462.64
  Z
  M 524.64 508.21
  C 530.25 507.17 535.90 506.76 541.60 506.98
  C 542.27 507.00 542.87 507.42 543.12 508.05
  L 549.61 524.38
  C 549.72 524.66 549.93 524.79 550.23 524.77
  L 568.37 523.75
  C 568.90 523.72 569.24 523.18 569.04 522.69
  L 538.52 447.28
  C 538.33 446.81 537.89 446.51 537.39 446.51
  L 523.79 446.49
  C 523.52 446.49 523.35 446.62 523.26 446.88
  C 521.02 453.93 518.87 461.01 516.81 468.12
  C 513.77 478.59 510.87 489.11 508.12 499.66
  C 505.76 508.70 502.79 517.74 500.17 526.79
  C 500.11 527.00 500.27 527.20 500.48 527.19
  L 517.87 526.38
  C 518.20 526.37 518.41 526.20 518.51 525.89
  L 524.09 508.70
  C 524.18 508.43 524.36 508.26 524.64 508.21
  Z
  M 127.24 494.83
  C 128.17 496.61 128.48 499.06 129.22 500.79
  C 131.98 507.28 134.74 513.78 137.50 520.29
  C 137.69 520.74 138.02 521.02 138.49 521.15
  C 144.14 522.66 149.90 523.15 155.75 522.62
  C 156.04 522.59 156.28 522.46 156.45 522.22
  C 161.82 514.65 166.69 506.77 171.08 498.58
  C 171.17 498.40 171.21 498.21 171.18 498.01
  C 171.15 497.76 171.14 497.62 171.17 497.59
  C 171.76 496.94 172.01 497.05 171.94 497.93
  C 171.49 503.26 170.66 508.48 171.45 513.89
  C 172.25 519.38 171.56 523.67 170.99 530.80
  C 170.96 531.17 171.13 531.39 171.50 531.44
  C 178.44 532.42 185.42 532.86 192.43 532.75
  C 192.78 532.74 192.97 532.56 193.00 532.21
  C 193.92 518.69 194.82 505.26 195.69 491.92
  C 196.52 479.22 196.66 468.25 196.37 456.16
  C 196.36 455.49 196.03 455.07 195.39 454.88
  C 193.88 454.45 192.23 454.18 190.51 454.37
  C 185.18 454.96 178.89 453.57 173.59 452.84
  C 173.20 452.79 172.92 452.93 172.75 453.27
  L 150.14 496.94
  C 149.95 497.30 149.43 497.29 149.27 496.91
  C 143.06 482.07 137.30 466.99 132.01 451.67
  C 130.72 447.94 125.29 450.04 122.23 449.93
  C 117.74 449.76 113.22 449.50 108.67 449.14
  C 108.39 449.12 108.24 449.25 108.22 449.53
  L 103.08 526.62
  C 103.05 527.01 103.23 527.22 103.62 527.25
  L 124.57 528.90
  C 124.86 528.92 125.10 528.70 125.12 528.41
  L 126.62 494.97
  C 126.66 494.16 126.87 494.12 127.24 494.83
  Z
  M 449.02 507.65
  C 449.05 507.10 449.28 506.99 449.71 507.34
  C 456.42 512.66 461.25 520.25 466.75 526.76
  C 467.52 527.67 468.69 528.09 470.25 528.01
  C 477.20 527.66 484.16 527.31 491.13 526.98
  C 493.40 526.87 495.21 526.25 496.83 524.86
  C 497.22 524.53 497.22 524.20 496.85 523.85
  L 471.99 500.81
  C 471.62 500.47 471.84 499.85 472.34 499.81
  C 476.03 499.54 479.66 498.77 483.25 497.50
  C 485.25 496.79 486.33 495.73 486.51 493.47
  C 487.30 483.37 486.23 470.54 485.36 462.26
  C 485.05 459.25 484.20 456.41 482.81 453.73
  C 480.10 448.52 469.09 450.26 464.34 450.13
  C 451.63 449.79 438.97 450.50 426.36 452.26
  C 424.09 452.58 423.33 453.20 423.18 455.51
  C 422.95 459.13 422.93 462.13 423.13 464.51
  C 424.90 485.96 426.52 507.40 427.99 528.82
  C 428.07 530.05 429.14 530.98 430.37 530.89
  L 448.14 529.58
  C 449.90 529.45 451.17 527.85 450.89 526.11
  C 449.96 520.35 448.71 513.79 449.02 507.65
  Z
  M 376.87 473.19
  C 379.64 472.70 382.44 472.47 385.25 472.48
  C 394.84 472.53 404.45 472.75 414.02 472.00
  C 414.36 471.97 414.56 471.79 414.61 471.46
  C 415.61 465.48 417.01 456.93 412.22 452.62
  C 411.97 452.40 411.68 452.29 411.35 452.28
  C 406.90 452.20 403.70 452.21 401.75 452.31
  C 385.02 453.15 368.47 454.06 352.12 455.05
  C 350.71 455.14 349.69 456.42 349.91 457.81
  C 350.69 462.53 351.35 467.12 351.90 471.57
  C 352.45 476.03 352.15 480.71 352.27 485.34
  C 352.65 500.78 352.72 516.14 353.69 531.58
  C 353.72 531.92 353.87 532.18 354.16 532.37
  C 355.23 533.08 356.43 533.44 357.75 533.45
  C 377.99 533.62 398.20 533.21 418.31 530.66
  C 418.62 530.62 418.81 530.44 418.88 530.13
  C 419.84 525.70 418.19 519.74 416.74 514.80
  C 416.65 514.49 416.49 514.24 416.24 514.05
  C 412.29 510.95 408.17 512.88 403.56 512.96
  C 396.95 513.08 390.35 513.34 383.74 513.73
  C 381.93 513.84 380.10 513.73 378.25 513.40
  C 377.89 513.34 377.68 513.13 377.63 512.77
  C 377.15 509.78 377.16 506.77 377.67 503.75
  C 377.72 503.46 377.87 503.22 378.11 503.04
  C 378.93 502.44 379.89 502.08 381.00 501.96
  C 389.49 501.01 398.04 500.55 406.64 500.57
  C 406.98 500.57 407.25 500.43 407.44 500.16
  C 409.42 497.39 407.97 489.32 408.08 486.03
  C 408.13 484.29 406.72 482.87 404.98 482.91
  C 397.19 483.11 389.56 483.37 382.07 483.68
  C 379.18 483.81 377.43 484.21 376.36 481.43
  C 375.37 478.88 375.31 476.34 376.17 473.79
  C 376.28 473.45 376.52 473.25 376.87 473.19
  Z
  M 229.58 516.20
  C 233.71 515.74 242.80 514.81 247.14 516.52
  C 247.55 516.68 247.82 516.97 247.95 517.38
  L 253.27 534.05
  C 253.36 534.35 253.56 534.50 253.87 534.50
  L 271.70 534.83
  C 272.39 534.84 272.89 534.17 272.67 533.51
  L 247.46 456.09
  C 247.36 455.78 247.15 455.62 246.83 455.60
  L 233.16 454.57
  C 232.77 454.54 232.50 454.71 232.35 455.07
  C 225.72 471.31 219.70 487.77 214.29 504.45
  C 211.13 514.18 207.29 523.48 203.74 533.04
  C 203.65 533.29 203.74 533.42 204.01 533.43
  L 221.42 533.83
  C 221.77 533.84 222.00 533.69 222.13 533.36
  L 228.89 516.72
  C 229.02 516.41 229.25 516.23 229.58 516.20
  Z
  M 282.16 534.37
  C 282.31 534.70 282.63 534.92 282.99 534.94
  C 300.20 536.20 317.84 535.32 335.00 533.78
  C 344.86 532.90 344.89 522.57 344.94 515.00
  C 345.02 502.93 344.92 495.05 344.89 481.15
  C 344.88 474.38 344.54 469.16 343.87 465.48
  C 343.52 463.55 342.33 461.47 340.29 459.23
  C 337.80 456.50 334.76 455.86 331.25 455.54
  C 325.82 455.04 320.37 454.84 314.92 454.93
  C 303.73 455.12 292.96 455.32 282.59 455.54
  C 281.33 455.57 280.31 456.60 280.30 457.86
  C 280.15 481.65 280.21 504.85 280.46 527.45
  C 280.49 530.27 281.05 531.94 282.16 534.37
  Z
  M 739.93 560.28
  L 740.12 554.80
  C 740.13 554.43 740.33 554.24 740.70 554.25
  L 746.51 554.25
  C 747.49 554.25 748.28 553.47 748.29 552.49
  L 748.37 543.05
  C 748.37 542.75 748.22 542.59 747.93 542.58
  L 736.34 542.13
  C 735.75 542.11 735.27 542.57 735.26 543.16
  L 735.09 560.30
  C 735.09 560.61 735.24 560.77 735.55 560.76
  L 739.51 560.69
  C 739.74 560.68 739.92 560.51 739.93 560.28
  Z
  M 722.22 555.61
  L 726.33 560.43
  C 726.42 560.54 726.53 560.59 726.67 560.58
  L 732.85 560.33
  C 733.02 560.32 733.04 560.26 732.92 560.15
  L 727.16 554.69
  C 726.92 554.46 727.03 554.06 727.35 553.98
  L 730.13 553.31
  C 730.43 553.24 730.58 553.04 730.57 552.73
  L 730.29 543.90
  C 730.27 543.15 729.65 542.55 728.90 542.56
  L 717.01 542.67
  C 716.14 542.68 715.73 543.12 715.79 543.99
  L 716.97 560.62
  C 717.00 561.03 717.22 561.24 717.63 561.24
  L 720.96 561.25
  C 721.48 561.25 721.88 560.81 721.83 560.29
  L 721.43 555.95
  C 721.34 555.00 721.60 554.88 722.22 555.61
  Z
  M 758.7321 542.9587
  C 758.73 542.82 758.62 542.70 758.4772 542.6937
  L 754.0980 542.6097
  C 753.95 542.61 753.84 542.72 753.8330 542.8646
  L 753.4879 560.8413
  C 753.49 560.98 753.60 561.10 753.7428 561.1063
  L 758.1220 561.1903
  C 758.27 561.19 758.38 561.08 758.3870 560.9354
  L 758.7321 542.9587
  Z
  M 768.37 553.00
  C 768.42 550.25 768.96 550.15 770.01 552.69
  C 771.23 555.66 772.82 558.44 774.79 561.02
  C 775.00 561.29 775.27 561.42 775.60 561.42
  L 778.89 561.43
  C 779.35 561.43 779.58 561.20 779.59 560.74
  L 779.82 543.65
  C 779.83 543.12 779.57 542.86 779.04 542.85
  L 775.60 542.81
  C 775.20 542.80 774.87 543.13 774.88 543.53
  L 774.90 552.54
  C 774.91 553.71 774.63 553.78 774.08 552.75
  C 772.93 550.58 771.75 548.20 770.54 545.59
  C 770.15 544.76 770.26 543.90 769.46 543.09
  C 769.24 542.87 768.98 542.75 768.68 542.74
  L 765.33 542.58
  C 764.57 542.55 763.93 543.16 763.92 543.92
  L 763.75 561.00
  C 763.74 561.14 763.86 561.25 764.00 561.25
  L 767.99 561.26
  C 768.12 561.26 768.23 561.15 768.24 561.01
  L 768.37 553.00
  Z
  M 701.79 557.50
  L 704.70 557.25
  C 705.04 557.22 705.32 557.34 705.54 557.60
  C 706.40 558.61 706.82 559.75 706.81 561.04
  C 706.80 561.37 706.96 561.53 707.28 561.52
  L 712.01 561.45
  C 712.72 561.44 712.81 561.20 712.27 560.73
  C 712.19 560.66 712.07 560.55 711.91 560.42
  C 711.78 560.31 711.68 560.17 711.61 560.00
  C 709.47 554.55 707.35 549.08 705.25 543.60
  C 705.14 543.31 704.92 543.17 704.61 543.19
  L 701.31 543.45
  C 700.98 543.47 700.77 543.64 700.68 543.96
  L 695.47 561.68
  C 695.38 561.99 695.62 562.30 695.94 562.29
  L 699.25 562.17
  C 699.64 562.16 699.89 561.97 700.01 561.60
  L 701.22 557.95
  C 701.31 557.68 701.50 557.53 701.79 557.50
  Z
  M 795.36 548.34
  C 795.36 548.14 795.52 547.99 795.72 548.00
  L 800.86 548.32
  C 801.05 548.33 801.21 548.19 801.22 548.00
  L 801.42 544.08
  C 801.43 543.89 801.28 543.73 801.09 543.72
  L 785.90 543.49
  C 785.72 543.49 785.57 543.63 785.55 543.80
  L 785.26 546.99
  C 785.24 547.18 785.38 547.35 785.57 547.36
  L 790.49 547.86
  C 790.67 547.88 790.80 548.02 790.80 548.20
  L 790.65 561.81
  C 790.65 562.00 790.80 562.15 790.99 562.15
  L 794.94 562.16
  C 795.13 562.16 795.28 562.01 795.28 561.82
  L 795.36 548.34
  Z
  M 689.27 545.79
  C 689.32 544.68 688.39 543.78 687.28 543.86
  L 678.70 544.44
  C 677.12 544.55 675.88 545.82 675.81 547.40
  C 675.63 551.62 674.95 558.98 677.46 562.75
  C 677.65 563.02 677.90 563.15 678.23 563.12
  L 688.76 562.23
  C 689.62 562.16 690.21 561.33 690.00 560.49
  L 689.85 559.89
  C 689.64 559.06 689.11 558.65 688.26 558.64
  L 681.36 558.63
  C 680.80 558.62 680.34 558.18 680.33 557.62
  L 680.17 549.60
  C 680.16 549.04 680.60 548.58 681.15 548.56
  L 688.46 548.28
  C 688.93 548.26 689.18 548.01 689.20 547.54
  L 689.27 545.79
  Z
  M 811.38 555.37
  L 818.21 555.43
  C 818.30 555.43 818.38 555.36 818.37 555.27
  L 818.27 552.01
  C 818.26 551.87 818.15 551.76 818.01 551.75
  L 812.36 551.62
  C 811.65 551.61 811.06 551.08 810.96 550.38
  L 810.83 549.47
  C 810.72 548.64 811.08 548.26 811.91 548.32
  L 819.99 548.94
  C 820.24 548.96 820.45 548.76 820.45 548.51
  L 820.43 545.20
  C 820.43 544.84 820.25 544.65 819.89 544.64
  L 806.44 544.10
  C 806.17 544.09 805.94 544.30 805.92 544.57
  L 804.88 561.90
  C 804.86 562.19 805.09 562.45 805.38 562.47
  L 818.72 563.44
  C 819.74 563.52 820.25 563.05 820.25 562.02
  L 820.24 560.42
  C 820.24 559.55 819.54 558.84 818.67 558.82
  L 811.02 558.70
  C 810.56 558.69 810.37 558.46 810.44 558.01
  L 810.78 555.88
  C 810.83 555.54 811.03 555.37 811.38 555.37
  Z
  M 831.11 558.38
  L 834.00 562.67
  C 834.51 563.42 835.21 563.84 836.12 563.92
  L 840.45 564.30
  C 841.32 564.37 841.47 564.08 840.89 563.43
  L 836.26 558.24
  C 835.25 557.11 835.44 556.74 836.82 557.13
  C 837.49 557.32 838.15 557.28 838.78 557.03
  C 839.13 556.90 839.39 556.60 839.47 556.24
  C 840.12 553.49 840.36 550.74 840.17 548.00
  C 840.10 546.82 839.16 545.87 837.98 545.77
  L 826.70 544.80
  C 826.23 544.76 825.82 545.13 825.80 545.60
  L 825.26 562.90
  C 825.25 563.17 825.38 563.31 825.64 563.32
  L 829.99 563.54
  C 830.19 563.55 830.29 563.46 830.28 563.26
  L 830.18 558.67
  C 830.17 558.16 830.83 557.96 831.11 558.38
  Z
  M 651.41 557.56
  C 651.37 557.20 651.63 556.88 651.99 556.85
  L 658.55 556.24
  C 658.89 556.20 659.15 555.91 659.14 555.57
  L 659.07 553.29
  C 659.06 552.94 658.76 552.66 658.41 552.66
  L 652.00 552.80
  C 651.67 552.80 651.39 552.56 651.34 552.24
  L 651.11 550.58
  C 651.06 550.19 651.35 549.85 651.73 549.84
  L 659.94 549.59
  C 660.31 549.58 660.60 549.26 660.57 548.89
  L 660.35 545.92
  C 660.32 545.57 660.02 545.30 659.67 545.32
  L 646.22 545.94
  C 645.86 545.96 645.58 546.26 645.60 546.62
  L 646.47 563.85
  C 646.49 564.21 646.79 564.48 647.14 564.47
  L 660.92 563.97
  C 661.30 563.96 661.58 563.63 661.54 563.25
  L 661.22 560.27
  C 661.18 559.93 660.89 559.68 660.55 559.69
  L 652.27 559.97
  C 651.92 559.98 651.63 559.73 651.60 559.39
  L 651.41 557.56
  Z
  M 849.6545 546.9846
  C 849.68 546.66 849.43 546.38 849.1049 546.3568
  L 845.2933 546.1036
  C 844.97 546.08 844.69 546.33 844.6655 546.6532
  L 843.5255 563.8154
  C 843.50 564.14 843.75 564.42 844.0751 564.4432
  L 847.8867 564.6964
  C 848.21 564.72 848.49 564.47 848.5145 564.1468
  L 849.6545 546.9846
  Z
  M 638.86 546.86
  C 638.76 546.72 638.60 546.63 638.43 546.63
  L 626.05 546.75
  C 625.67 546.76 625.37 547.07 625.38 547.45
  L 625.84 564.81
  C 625.85 565.18 626.03 565.37 626.40 565.38
  C 630.27 565.56 636.10 565.83 639.70 564.39
  C 639.99 564.28 640.18 564.07 640.28 563.78
  C 640.67 562.65 640.84 561.64 640.79 560.75
  C 640.58 556.97 640.40 553.19 640.24 549.40
  C 640.23 549.09 640.13 548.80 639.96 548.54
  L 638.86 546.86
  Z
  M 864.58 562.05
  L 865.62 565.96
  C 865.67 566.15 865.79 566.24 865.98 566.25
  L 870.25 566.37
  C 870.36 566.37 870.44 566.27 870.41 566.17
  L 865.95 548.56
  C 865.86 548.23 865.67 547.98 865.37 547.81
  C 864.17 547.14 861.53 546.70 860.86 548.28
  C 858.50 553.91 856.09 559.50 853.64 565.03
  C 853.60 565.11 853.66 565.22 853.76 565.22
  L 857.85 565.38
  C 858.06 565.39 858.20 565.30 858.29 565.12
  L 859.83 561.80
  C 860.00 561.42 860.30 561.24 860.73 561.27
  L 863.87 561.47
  C 864.20 561.49 864.49 561.72 864.58 562.05
  Z
  M 602.97 561.21
  L 606.30 564.97
  C 607.08 565.86 608.06 566.29 609.25 566.27
  L 612.47 566.20
  C 613.77 566.18 613.94 565.74 612.97 564.87
  L 608.26 560.65
  C 607.48 559.96 607.61 559.54 608.64 559.41
  L 610.79 559.13
  C 611.18 559.08 611.38 558.85 611.37 558.46
  L 611.24 550.75
  C 611.22 549.60 610.53 548.76 609.16 548.22
  C 606.55 547.20 601.52 548.12 596.86 548.78
  C 596.58 548.82 596.45 548.98 596.48 549.26
  L 597.80 566.36
  C 597.84 566.87 598.11 567.10 598.62 567.04
  L 602.11 566.64
  C 602.47 566.60 602.72 566.28 602.68 565.92
  L 602.17 561.57
  C 602.06 560.60 602.32 560.48 602.97 561.21
  Z
  M 582.76 560.80
  C 582.76 560.51 582.91 560.35 583.20 560.34
  L 589.26 560.11
  C 589.98 560.08 590.31 559.71 590.26 558.99
  L 590.12 556.98
  C 590.08 556.42 589.78 556.16 589.22 556.20
  L 583.62 556.57
  C 582.91 556.61 582.31 556.07 582.28 555.36
  L 582.24 554.44
  C 582.21 553.69 582.56 553.31 583.31 553.30
  L 590.96 553.24
  C 591.24 553.23 591.40 553.09 591.44 552.82
  C 591.62 551.56 591.53 550.33 591.17 549.13
  C 591.07 548.79 590.75 548.57 590.40 548.60
  L 577.00 549.77
  C 576.70 549.80 576.56 549.96 576.58 550.26
  L 577.65 567.76
  C 577.68 568.14 577.88 568.32 578.26 568.29
  L 592.54 567.25
  C 592.75 567.24 592.84 567.12 592.80 566.91
  L 592.16 563.62
  C 592.13 563.43 592.01 563.33 591.80 563.34
  L 583.24 563.72
  C 582.91 563.73 582.74 563.57 582.75 563.24
  L 582.76 560.80
  Z
  M 562.71 564.04
  L 562.26 550.45
  C 562.25 550.27 562.10 550.14 561.93 550.16
  L 557.75 550.70
  C 557.43 550.74 557.28 550.92 557.29 551.25
  L 558.05 568.80
  C 558.06 569.13 558.23 569.28 558.56 569.26
  L 571.23 568.26
  C 571.84 568.21 572.14 567.88 572.14 567.27
  L 572.12 564.58
  C 572.11 564.02 571.63 563.60 571.08 563.66
  L 563.29 564.55
  C 562.92 564.59 562.72 564.42 562.71 564.04
  Z
  M 543.83 565.60
  C 543.64 565.62 543.48 565.48 543.47 565.29
  L 543.23 551.62
  C 543.22 551.43 543.06 551.28 542.88 551.30
  L 538.42 551.72
  C 538.25 551.74 538.13 551.88 538.13 552.05
  L 538.90 570.03
  C 538.90 570.21 539.06 570.35 539.24 570.33
  L 552.73 569.25
  C 552.90 569.23 553.03 569.08 553.02 568.91
  L 552.77 564.95
  C 552.76 564.76 552.60 564.63 552.42 564.65
  L 543.83 565.60
  Z
  M 528.52 567.16
  C 528.63 568.23 528.98 569.20 529.58 570.07
  C 529.80 570.40 530.11 570.55 530.50 570.53
  L 533.90 570.39
  C 534.35 570.38 534.50 570.16 534.33 569.73
  L 527.65 553.06
  C 527.42 552.49 526.83 552.14 526.22 552.21
  L 523.46 552.54
  C 523.13 552.58 522.93 552.76 522.84 553.07
  L 517.80 571.02
  C 517.77 571.14 517.86 571.26 517.98 571.26
  L 521.84 571.25
  C 522.09 571.25 522.25 571.13 522.32 570.90
  L 523.51 567.13
  C 523.61 566.82 523.82 566.62 524.14 566.54
  C 525.38 566.25 526.63 566.22 527.89 566.47
  C 528.27 566.55 528.48 566.78 528.52 567.16
  Z
  M 507.25 557.92
  C 507.23 557.72 507.38 557.55 507.58 557.54
  L 512.58 557.27
  C 512.78 557.26 512.93 557.08 512.91 556.88
  L 512.54 553.29
  C 512.52 553.11 512.35 552.97 512.16 552.98
  L 497.07 553.93
  C 496.88 553.94 496.74 554.10 496.74 554.28
  L 496.77 557.94
  C 496.77 558.14 496.93 558.29 497.13 558.29
  L 502.18 558.10
  C 502.37 558.10 502.53 558.24 502.55 558.43
  L 503.55 571.85
  C 503.57 572.05 503.75 572.20 503.94 572.18
  L 507.96 571.69
  C 508.14 571.67 508.28 571.50 508.26 571.32
  L 507.25 557.92
  Z"
/>
<path fill="#ffffff" d="
  M 766.35 487.24
  C 764.47 487.23 764.18 487.90 765.47 489.27
  L 788.05 513.19
  C 788.31 513.47 788.21 513.91 787.87 514.05
  C 786.20 514.76 784.84 515.77 782.92 515.74
  C 775.13 515.61 767.33 515.44 759.54 515.24
  C 759.23 515.23 758.93 515.10 758.73 514.86
  C 752.39 507.67 748.74 500.00 742.02 493.33
  C 741.56 492.87 740.77 493.22 740.80 493.87
  L 741.67 512.41
  C 741.75 514.03 740.46 515.38 738.84 515.40
  L 721.17 515.54
  C 719.85 515.55 718.77 514.48 718.77 513.16
  C 718.77 493.79 718.67 474.22 718.46 454.43
  C 718.40 449.10 718.06 444.40 719.09 439.09
  C 719.45 437.23 720.44 436.80 722.29 436.70
  C 735.35 436.05 744.17 435.91 748.75 436.28
  C 756.33 436.89 763.91 437.46 771.50 437.98
  C 778.68 438.47 780.29 444.87 780.53 450.51
  C 780.75 455.95 780.54 465.70 779.89 479.76
  C 779.76 482.59 778.73 484.51 776.79 485.50
  C 774.71 486.56 769.23 487.27 766.35 487.24
  Z
  M 754.38 472.69
  C 761.84 473.89 760.05 461.64 759.90 457.67
  C 759.84 456.06 758.56 454.75 756.95 454.67
  C 751.80 454.39 746.65 454.25 741.39 455.36
  C 741.04 455.43 740.88 455.64 740.90 455.99
  L 741.55 471.24
  C 741.59 472.28 742.54 473.04 743.57 472.86
  C 747.37 472.19 750.97 472.14 754.38 472.69
  Z"
/>
<path fill="#ffffff" d="
  M 799.49 438.72
  C 806.56 437.38 813.90 438.66 820.98 439.42
  C 821.33 439.46 821.50 439.66 821.49 440.01
  L 818.25 515.52
  C 818.21 516.49 817.50 517.31 816.55 517.49
  C 815.17 517.74 813.65 517.82 812.00 517.72
  C 806.83 517.39 801.66 517.06 796.49 516.71
  C 796.14 516.69 795.96 516.50 795.97 516.15
  C 796.36 492.35 797.50 468.53 798.68 444.76
  C 798.77 442.85 798.89 441.02 799.02 439.25
  C 799.04 438.99 799.23 438.77 799.49 438.72
  Z"
/>
<path fill="#ffffff" d="
  M 699.35 439.84
  C 702.56 441.37 707.70 445.47 707.89 449.51
  C 708.79 468.42 709.24 487.35 709.25 506.28
  C 709.25 509.59 709.75 516.22 705.14 516.64
  C 686.53 518.37 667.88 519.16 649.19 519.02
  C 647.49 519.01 646.25 518.74 645.47 518.21
  C 642.34 516.06 642.14 505.84 641.99 502.25
  C 641.50 490.94 641.09 479.62 640.76 468.29
  C 640.59 462.46 640.72 456.03 641.16 449.00
  C 641.31 446.66 641.68 444.56 642.28 442.70
  C 642.39 442.37 642.59 442.13 642.90 441.98
  C 647.05 439.93 654.16 439.73 659.25 439.62
  C 670.64 439.37 682.03 439.10 693.42 438.81
  C 695.81 438.75 697.79 439.09 699.35 439.84
  Z
  M 664.82 462.25
  C 661.98 462.30 660.84 464.46 661.03 467.00
  C 661.79 477.06 662.22 487.19 662.32 497.38
  C 662.33 498.64 663.40 499.65 664.66 499.58
  L 686.38 498.43
  C 687.04 498.39 687.59 497.92 687.72 497.28
  C 688.22 494.84 688.50 492.33 688.56 489.75
  C 688.77 480.62 688.27 471.58 687.08 462.65
  C 687.01 462.07 686.50 461.64 685.92 461.66
  C 678.73 461.93 671.69 462.12 664.82 462.25
  Z"
/>
<path fill="#ffffff" d="
  M 890.74 445.57
  C 895.49 448.51 898.59 453.19 898.09 459.01
  C 896.44 478.13 894.39 497.21 891.96 516.24
  C 891.69 518.36 890.69 521.99 888.29 522.45
  C 888.08 522.49 887.06 522.48 885.21 522.42
  C 865.18 521.76 846.78 520.25 830.01 517.88
  C 825.19 517.20 825.92 510.95 825.96 506.64
  C 825.99 504.53 826.09 502.28 826.28 499.87
  C 827.21 487.90 828.27 475.95 829.48 464.00
  C 830.07 458.13 830.93 452.29 832.06 446.50
  C 832.43 444.63 832.97 443.00 833.68 441.63
  C 834.02 440.97 834.67 440.52 835.41 440.43
  C 840.57 439.83 845.28 439.82 850.85 440.38
  C 862.13 441.51 873.41 442.64 884.70 443.77
  C 887.20 444.02 889.21 444.62 890.74 445.57
  Z
  M 872.13 501.33
  C 875.33 490.55 875.92 477.64 875.73 466.42
  C 875.72 466.04 875.53 465.83 875.15 465.79
  C 868.30 465.02 861.42 464.24 854.49 463.47
  C 850.53 463.03 849.53 465.54 849.34 469.04
  C 848.80 478.93 848.04 488.71 847.05 498.40
  C 846.94 499.50 847.76 500.48 848.87 500.56
  L 870.88 502.19
  C 871.53 502.24 871.94 501.95 872.13 501.33
  Z"
/>
<path fill="#ffffff" d="
  M 613.58 462.64
  L 617.56 519.66
  C 617.60 520.24 617.17 520.74 616.59 520.78
  L 596.80 522.10
  C 596.59 522.11 596.47 522.01 596.46 521.80
  L 592.93 465.61
  C 592.85 464.28 591.70 463.26 590.37 463.33
  L 570.25 464.35
  C 569.80 464.37 569.39 464.09 569.25 463.65
  C 567.66 458.42 569.43 453.06 567.87 447.94
  C 567.41 446.42 568.48 444.87 570.06 444.77
  L 634.05 440.61
  C 635.33 440.53 636.43 441.51 636.50 442.80
  L 637.32 459.68
  C 637.34 459.99 637.12 460.25 636.82 460.30
  C 629.38 461.40 621.91 461.89 614.41 461.76
  C 613.81 461.75 613.53 462.04 613.58 462.64
  Z"
/>
<path fill="#ffffff" d="
  M 524.09 508.70
  L 518.51 525.89
  C 518.41 526.20 518.20 526.37 517.87 526.38
  L 500.48 527.19
  C 500.27 527.20 500.11 527.00 500.17 526.79
  C 502.79 517.74 505.76 508.70 508.12 499.66
  C 510.87 489.11 513.77 478.59 516.81 468.12
  C 518.87 461.01 521.02 453.93 523.26 446.88
  C 523.35 446.62 523.52 446.49 523.79 446.49
  L 537.39 446.51
  C 537.89 446.51 538.33 446.81 538.52 447.28
  L 569.04 522.69
  C 569.24 523.18 568.90 523.72 568.37 523.75
  L 550.23 524.77
  C 549.93 524.79 549.72 524.66 549.61 524.38
  L 543.12 508.05
  C 542.87 507.42 542.27 507.00 541.60 506.98
  C 535.90 506.76 530.25 507.17 524.64 508.21
  C 524.36 508.26 524.18 508.43 524.09 508.70
  Z
  M 527.58 492.50
  C 527.49 492.88 527.79 493.24 528.18 493.21
  L 538.56 492.47
  C 538.95 492.44 539.20 492.04 539.05 491.68
  L 532.74 476.46
  C 532.53 475.95 531.79 476.00 531.66 476.53
  L 527.58 492.50
  Z"
/>
<path fill="#ffffff" d="
  M 127.24 494.83
  C 126.87 494.12 126.66 494.16 126.62 494.97
  L 125.12 528.41
  C 125.10 528.70 124.86 528.92 124.57 528.90
  L 103.62 527.25
  C 103.23 527.22 103.05 527.01 103.08 526.62
  L 108.22 449.53
  C 108.24 449.25 108.39 449.12 108.67 449.14
  C 113.22 449.50 117.74 449.76 122.23 449.93
  C 125.29 450.04 130.72 447.94 132.01 451.67
  C 137.30 466.99 143.06 482.07 149.27 496.91
  C 149.43 497.29 149.95 497.30 150.14 496.94
  L 172.75 453.27
  C 172.92 452.93 173.20 452.79 173.59 452.84
  C 178.89 453.57 185.18 454.96 190.51 454.37
  C 192.23 454.18 193.88 454.45 195.39 454.88
  C 196.03 455.07 196.36 455.49 196.37 456.16
  C 196.66 468.25 196.52 479.22 195.69 491.92
  C 194.82 505.26 193.92 518.69 193.00 532.21
  C 192.97 532.56 192.78 532.74 192.43 532.75
  C 185.42 532.86 178.44 532.42 171.50 531.44
  C 171.13 531.39 170.96 531.17 170.99 530.80
  C 171.56 523.67 172.25 519.38 171.45 513.89
  C 170.66 508.48 171.49 503.26 171.94 497.93
  C 172.01 497.05 171.76 496.94 171.17 497.59
  C 171.14 497.62 171.15 497.76 171.18 498.01
  C 171.21 498.21 171.17 498.40 171.08 498.58
  C 166.69 506.77 161.82 514.65 156.45 522.22
  C 156.28 522.46 156.04 522.59 155.75 522.62
  C 149.90 523.15 144.14 522.66 138.49 521.15
  C 138.02 521.02 137.69 520.74 137.50 520.29
  C 134.74 513.78 131.98 507.28 129.22 500.79
  C 128.48 499.06 128.17 496.61 127.24 494.83
  Z"
/>
<path fill="#ffffff" d="
  M 449.02 507.65
  C 448.71 513.79 449.96 520.35 450.89 526.11
  C 451.17 527.85 449.90 529.45 448.14 529.58
  L 430.37 530.89
  C 429.14 530.98 428.07 530.05 427.99 528.82
  C 426.52 507.40 424.90 485.96 423.13 464.51
  C 422.93 462.13 422.95 459.13 423.18 455.51
  C 423.33 453.20 424.09 452.58 426.36 452.26
  C 438.97 450.50 451.63 449.79 464.34 450.13
  C 469.09 450.26 480.10 448.52 482.81 453.73
  C 484.20 456.41 485.05 459.25 485.36 462.26
  C 486.23 470.54 487.30 483.37 486.51 493.47
  C 486.33 495.73 485.25 496.79 483.25 497.50
  C 479.66 498.77 476.03 499.54 472.34 499.81
  C 471.84 499.85 471.62 500.47 471.99 500.81
  L 496.85 523.85
  C 497.22 524.20 497.22 524.53 496.83 524.86
  C 495.21 526.25 493.40 526.87 491.13 526.98
  C 484.16 527.31 477.20 527.66 470.25 528.01
  C 468.69 528.09 467.52 527.67 466.75 526.76
  C 461.25 520.25 456.42 512.66 449.71 507.34
  C 449.28 506.99 449.05 507.10 449.02 507.65
  Z
  M 461.25 485.76
  C 468.40 486.15 465.71 473.56 464.99 469.83
  C 464.74 468.54 463.58 467.63 462.27 467.72
  C 457.10 468.06 451.76 467.69 446.75 469.57
  C 446.31 469.74 446.12 470.06 446.17 470.53
  L 447.94 485.78
  C 448.03 486.56 448.78 487.08 449.54 486.89
  C 453.51 485.92 457.41 485.55 461.25 485.76
  Z"
/>
<path fill="#ffffff" d="
  M 376.17 473.79
  C 375.31 476.34 375.37 478.88 376.36 481.43
  C 377.43 484.21 379.18 483.81 382.07 483.68
  C 389.56 483.37 397.19 483.11 404.98 482.91
  C 406.72 482.87 408.13 484.29 408.08 486.03
  C 407.97 489.32 409.42 497.39 407.44 500.16
  C 407.25 500.43 406.98 500.57 406.64 500.57
  C 398.04 500.55 389.49 501.01 381.00 501.96
  C 379.89 502.08 378.93 502.44 378.11 503.04
  C 377.87 503.22 377.72 503.46 377.67 503.75
  C 377.16 506.77 377.15 509.78 377.63 512.77
  C 377.68 513.13 377.89 513.34 378.25 513.40
  C 380.10 513.73 381.93 513.84 383.74 513.73
  C 390.35 513.34 396.95 513.08 403.56 512.96
  C 408.17 512.88 412.29 510.95 416.24 514.05
  C 416.49 514.24 416.65 514.49 416.74 514.80
  C 418.19 519.74 419.84 525.70 418.88 530.13
  C 418.81 530.44 418.62 530.62 418.31 530.66
  C 398.20 533.21 377.99 533.62 357.75 533.45
  C 356.43 533.44 355.23 533.08 354.16 532.37
  C 353.87 532.18 353.72 531.92 353.69 531.58
  C 352.72 516.14 352.65 500.78 352.27 485.34
  C 352.15 480.71 352.45 476.03 351.90 471.57
  C 351.35 467.12 350.69 462.53 349.91 457.81
  C 349.69 456.42 350.71 455.14 352.12 455.05
  C 368.47 454.06 385.02 453.15 401.75 452.31
  C 403.70 452.21 406.90 452.20 411.35 452.28
  C 411.68 452.29 411.97 452.40 412.22 452.62
  C 417.01 456.93 415.61 465.48 414.61 471.46
  C 414.56 471.79 414.36 471.97 414.02 472.00
  C 404.45 472.75 394.84 472.53 385.25 472.48
  C 382.44 472.47 379.64 472.70 376.87 473.19
  C 376.52 473.25 376.28 473.45 376.17 473.79
  Z"
/>
<path fill="#000000" d="
  M 759.90 457.67
  C 760.05 461.64 761.84 473.89 754.38 472.69
  C 750.97 472.14 747.37 472.19 743.57 472.86
  C 742.54 473.04 741.59 472.28 741.55 471.24
  L 740.90 455.99
  C 740.88 455.64 741.04 455.43 741.39 455.36
  C 746.65 454.25 751.80 454.39 756.95 454.67
  C 758.56 454.75 759.84 456.06 759.90 457.67
  Z"
/>
<path fill="#ffffff" d="
  M 228.89 516.72
  L 222.13 533.36
  C 222.00 533.69 221.77 533.84 221.42 533.83
  L 204.01 533.43
  C 203.74 533.42 203.65 533.29 203.74 533.04
  C 207.29 523.48 211.13 514.18 214.29 504.45
  C 219.70 487.77 225.72 471.31 232.35 455.07
  C 232.50 454.71 232.77 454.54 233.16 454.57
  L 246.83 455.60
  C 247.15 455.62 247.36 455.78 247.46 456.09
  L 272.67 533.51
  C 272.89 534.17 272.39 534.84 271.70 534.83
  L 253.87 534.50
  C 253.56 534.50 253.36 534.35 253.27 534.05
  L 247.95 517.38
  C 247.82 516.97 247.55 516.68 247.14 516.52
  C 242.80 514.81 233.71 515.74 229.58 516.20
  C 229.25 516.23 229.02 516.41 228.89 516.72
  Z
  M 233.48 500.85
  C 233.37 501.18 233.62 501.52 233.97 501.52
  L 244.53 501.48
  C 244.88 501.48 245.13 501.14 245.01 500.81
  L 239.68 484.98
  C 239.52 484.52 238.86 484.52 238.71 484.98
  L 233.48 500.85
  Z"
/>
<path fill="#ffffff" d="
  M 282.16 534.37
  C 281.05 531.94 280.49 530.27 280.46 527.45
  C 280.21 504.85 280.15 481.65 280.30 457.86
  C 280.31 456.60 281.33 455.57 282.59 455.54
  C 292.96 455.32 303.73 455.12 314.92 454.93
  C 320.37 454.84 325.82 455.04 331.25 455.54
  C 334.76 455.86 337.80 456.50 340.29 459.23
  C 342.33 461.47 343.52 463.55 343.87 465.48
  C 344.54 469.16 344.88 474.38 344.89 481.15
  C 344.92 495.05 345.02 502.93 344.94 515.00
  C 344.89 522.57 344.86 532.90 335.00 533.78
  C 317.84 535.32 300.20 536.20 282.99 534.94
  C 282.63 534.92 282.31 534.70 282.16 534.37
  Z
  M 319.82 477.66
  C 314.93 475.29 306.31 475.50 300.94 476.16
  C 300.61 476.20 300.43 476.38 300.40 476.71
  C 298.86 489.60 297.59 503.80 299.92 516.61
  C 299.99 516.98 300.32 517.24 300.70 517.22
  C 306.08 516.96 311.52 516.67 317.03 516.34
  C 320.61 516.13 322.56 515.29 323.25 511.44
  C 324.40 504.99 326.79 481.05 319.82 477.66
  Z"
/>
<path fill="#000000" d="
  M 661.03 467.00
  C 660.84 464.46 661.98 462.30 664.82 462.25
  C 671.69 462.12 678.73 461.93 685.92 461.66
  C 686.50 461.64 687.01 462.07 687.08 462.65
  C 688.27 471.58 688.77 480.62 688.56 489.75
  C 688.50 492.33 688.22 494.84 687.72 497.28
  C 687.59 497.92 687.04 498.39 686.38 498.43
  L 664.66 499.58
  C 663.40 499.65 662.33 498.64 662.32 497.38
  C 662.22 487.19 661.79 477.06 661.03 467.00
  Z"
/>
<path fill="#000000" d="
  M 872.13 501.33
  C 871.94 501.95 871.53 502.24 870.88 502.19
  L 848.87 500.56
  C 847.76 500.48 846.94 499.50 847.05 498.40
  C 848.04 488.71 848.80 478.93 849.34 469.04
  C 849.53 465.54 850.53 463.03 854.49 463.47
  C 861.42 464.24 868.30 465.02 875.15 465.79
  C 875.53 465.83 875.72 466.04 875.73 466.42
  C 875.92 477.64 875.33 490.55 872.13 501.33
  Z"
/>
<path fill="#000000" d="
  M 464.99 469.83
  C 465.71 473.56 468.40 486.15 461.25 485.76
  C 457.41 485.55 453.51 485.92 449.54 486.89
  C 448.78 487.08 448.03 486.56 447.94 485.78
  L 446.17 470.53
  C 446.12 470.06 446.31 469.74 446.75 469.57
  C 451.76 467.69 457.10 468.06 462.27 467.72
  C 463.58 467.63 464.74 468.54 464.99 469.83
  Z"
/>
<path fill="#000000" d="
  M 319.82 477.66
  C 326.79 481.05 324.40 504.99 323.25 511.44
  C 322.56 515.29 320.61 516.13 317.03 516.34
  C 311.52 516.67 306.08 516.96 300.70 517.22
  C 300.32 517.24 299.99 516.98 299.92 516.61
  C 297.59 503.80 298.86 489.60 300.40 476.71
  C 300.43 476.38 300.61 476.20 300.94 476.16
  C 306.31 475.50 314.93 475.29 319.82 477.66
  Z"
/>
<path fill="#000000" d="
  M 527.58 492.50
  L 531.66 476.53
  C 531.79 476.00 532.53 475.95 532.74 476.46
  L 539.05 491.68
  C 539.20 492.04 538.95 492.44 538.56 492.47
  L 528.18 493.21
  C 527.79 493.24 527.49 492.88 527.58 492.50
  Z"
/>
<path fill="#000000" d="
  M 233.48 500.85
  L 238.71 484.98
  C 238.86 484.52 239.52 484.52 239.68 484.98
  L 245.01 500.81
  C 245.13 501.14 244.88 501.48 244.53 501.48
  L 233.97 501.52
  C 233.62 501.52 233.37 501.18 233.48 500.85
  Z"
/>
<path fill="#ffffff" d="
  M 739.93 560.28
  C 739.92 560.51 739.74 560.68 739.51 560.69
  L 735.55 560.76
  C 735.24 560.77 735.09 560.61 735.09 560.30
  L 735.26 543.16
  C 735.27 542.57 735.75 542.11 736.34 542.13
  L 747.93 542.58
  C 748.22 542.59 748.37 542.75 748.37 543.05
  L 748.29 552.49
  C 748.28 553.47 747.49 554.25 746.51 554.25
  L 740.70 554.25
  C 740.33 554.24 740.13 554.43 740.12 554.80
  L 739.93 560.28
  Z
  M 740.84 550.77
  L 743.52 550.81
  C 744.14 550.82 744.65 550.32 744.66 549.70
  L 744.69 547.41
  C 744.70 546.39 743.80 545.55 742.68 545.54
  L 741.84 545.52
  C 740.71 545.51 739.79 546.32 739.77 547.35
  L 739.74 549.64
  C 739.73 550.25 740.22 550.76 740.84 550.77
  Z"
/>
<path fill="#ffffff" d="
  M 721.43 555.95
  L 721.83 560.29
  C 721.88 560.81 721.48 561.25 720.96 561.25
  L 717.63 561.24
  C 717.22 561.24 717.00 561.03 716.97 560.62
  L 715.79 543.99
  C 715.73 543.12 716.14 542.68 717.01 542.67
  L 728.90 542.56
  C 729.65 542.55 730.27 543.15 730.29 543.90
  L 730.57 552.73
  C 730.58 553.04 730.43 553.24 730.13 553.31
  L 727.35 553.98
  C 727.03 554.06 726.92 554.46 727.16 554.69
  L 732.92 560.15
  C 733.04 560.26 733.02 560.32 732.85 560.33
  L 726.67 560.58
  C 726.53 560.59 726.42 560.54 726.33 560.43
  L 722.22 555.61
  C 721.60 554.88 721.34 555.00 721.43 555.95
  Z
  M 726.29 549.62
  L 725.65 546.63
  C 725.59 546.34 725.41 546.20 725.11 546.21
  L 721.76 546.34
  C 721.35 546.36 721.15 546.58 721.17 546.99
  L 721.31 550.87
  C 721.32 551.21 721.67 551.44 721.99 551.32
  C 723.04 550.92 724.13 550.75 725.28 550.80
  C 725.92 550.84 726.43 550.25 726.29 549.62
  Z"
/>
<rect fill="#ffffff" x="-2.45" y="-9.25" transform="translate(756.11,551.90) rotate(1.1)" width="4.90" height="18.50" rx="0.26"/>
<path fill="#ffffff" d="
  M 768.37 553.00
  L 768.24 561.01
  C 768.23 561.15 768.12 561.26 767.99 561.26
  L 764.00 561.25
  C 763.86 561.25 763.74 561.14 763.75 561.00
  L 763.92 543.92
  C 763.93 543.16 764.57 542.55 765.33 542.58
  L 768.68 542.74
  C 768.98 542.75 769.24 542.87 769.46 543.09
  C 770.26 543.90 770.15 544.76 770.54 545.59
  C 771.75 548.20 772.93 550.58 774.08 552.75
  C 774.63 553.78 774.91 553.71 774.90 552.54
  L 774.88 543.53
  C 774.87 543.13 775.20 542.80 775.60 542.81
  L 779.04 542.85
  C 779.57 542.86 779.83 543.12 779.82 543.65
  L 779.59 560.74
  C 779.58 561.20 779.35 561.43 778.89 561.43
  L 775.60 561.42
  C 775.27 561.42 775.00 561.29 774.79 561.02
  C 772.82 558.44 771.23 555.66 770.01 552.69
  C 768.96 550.15 768.42 550.25 768.37 553.00
  Z"
/>
<path fill="#ffffff" d="
  M 701.22 557.95
  L 700.01 561.60
  C 699.89 561.97 699.64 562.16 699.25 562.17
  L 695.94 562.29
  C 695.62 562.30 695.38 561.99 695.47 561.68
  L 700.68 543.96
  C 700.77 543.64 700.98 543.47 701.31 543.45
  L 704.61 543.19
  C 704.92 543.17 705.14 543.31 705.25 543.60
  C 707.35 549.08 709.47 554.55 711.61 560.00
  C 711.68 560.17 711.78 560.31 711.91 560.42
  C 712.07 560.55 712.19 560.66 712.27 560.73
  C 712.81 561.20 712.72 561.44 712.01 561.45
  L 707.28 561.52
  C 706.96 561.53 706.80 561.37 706.81 561.04
  C 706.82 559.75 706.40 558.61 705.54 557.60
  C 705.32 557.34 705.04 557.22 704.70 557.25
  L 701.79 557.50
  C 701.50 557.53 701.31 557.68 701.22 557.95
  Z
  M 702.10 553.85
  C 702.05 554.11 702.29 554.34 702.54 554.26
  L 704.62 553.65
  C 704.82 553.59 704.92 553.38 704.85 553.18
  L 703.59 549.99
  C 703.46 549.66 702.99 549.70 702.92 550.04
  L 702.10 553.85
  Z"
/>
<path fill="#ffffff" d="
  M 795.36 548.34
  L 795.28 561.82
  C 795.28 562.01 795.13 562.16 794.94 562.16
  L 790.99 562.15
  C 790.80 562.15 790.65 562.00 790.65 561.81
  L 790.80 548.20
  C 790.80 548.02 790.67 547.88 790.49 547.86
  L 785.57 547.36
  C 785.38 547.35 785.24 547.18 785.26 546.99
  L 785.55 543.80
  C 785.57 543.63 785.72 543.49 785.90 543.49
  L 801.09 543.72
  C 801.28 543.73 801.43 543.89 801.42 544.08
  L 801.22 548.00
  C 801.21 548.19 801.05 548.33 800.86 548.32
  L 795.72 548.00
  C 795.52 547.99 795.36 548.14 795.36 548.34
  Z"
/>
<path fill="#ffffff" d="
  M 689.27 545.79
  L 689.20 547.54
  C 689.18 548.01 688.93 548.26 688.46 548.28
  L 681.15 548.56
  C 680.60 548.58 680.16 549.04 680.17 549.60
  L 680.33 557.62
  C 680.34 558.18 680.80 558.62 681.36 558.63
  L 688.26 558.64
  C 689.11 558.65 689.64 559.06 689.85 559.89
  L 690.00 560.49
  C 690.21 561.33 689.62 562.16 688.76 562.23
  L 678.23 563.12
  C 677.90 563.15 677.65 563.02 677.46 562.75
  C 674.95 558.98 675.63 551.62 675.81 547.40
  C 675.88 545.82 677.12 544.55 678.70 544.44
  L 687.28 543.86
  C 688.39 543.78 689.32 544.68 689.27 545.79
  Z"
/>
<path fill="#ffffff" d="
  M 811.38 555.37
  C 811.03 555.37 810.83 555.54 810.78 555.88
  L 810.44 558.01
  C 810.37 558.46 810.56 558.69 811.02 558.70
  L 818.67 558.82
  C 819.54 558.84 820.24 559.55 820.24 560.42
  L 820.25 562.02
  C 820.25 563.05 819.74 563.52 818.72 563.44
  L 805.38 562.47
  C 805.09 562.45 804.86 562.19 804.88 561.90
  L 805.92 544.57
  C 805.94 544.30 806.17 544.09 806.44 544.10
  L 819.89 544.64
  C 820.25 544.65 820.43 544.84 820.43 545.20
  L 820.45 548.51
  C 820.45 548.76 820.24 548.96 819.99 548.94
  L 811.91 548.32
  C 811.08 548.26 810.72 548.64 810.83 549.47
  L 810.96 550.38
  C 811.06 551.08 811.65 551.61 812.36 551.62
  L 818.01 551.75
  C 818.15 551.76 818.26 551.87 818.27 552.01
  L 818.37 555.27
  C 818.38 555.36 818.30 555.43 818.21 555.43
  L 811.38 555.37
  Z"
/>
<path fill="#ffffff" d="
  M 831.11 558.38
  C 830.83 557.96 830.17 558.16 830.18 558.67
  L 830.28 563.26
  C 830.29 563.46 830.19 563.55 829.99 563.54
  L 825.64 563.32
  C 825.38 563.31 825.25 563.17 825.26 562.90
  L 825.80 545.60
  C 825.82 545.13 826.23 544.76 826.70 544.80
  L 837.98 545.77
  C 839.16 545.87 840.10 546.82 840.17 548.00
  C 840.36 550.74 840.12 553.49 839.47 556.24
  C 839.39 556.60 839.13 556.90 838.78 557.03
  C 838.15 557.28 837.49 557.32 836.82 557.13
  C 835.44 556.74 835.25 557.11 836.26 558.24
  L 840.89 563.43
  C 841.47 564.08 841.32 564.37 840.45 564.30
  L 836.12 563.92
  C 835.21 563.84 834.51 563.42 834.00 562.67
  L 831.11 558.38
  Z
  M 830.39 549.73
  L 830.43 553.33
  C 830.43 553.59 830.64 553.79 830.90 553.79
  L 834.51 553.75
  C 835.12 553.75 835.61 553.20 835.60 552.53
  L 835.58 550.41
  C 835.57 549.74 835.07 549.21 834.47 549.21
  L 830.86 549.25
  C 830.60 549.26 830.39 549.47 830.39 549.73
  Z"
/>
<path fill="#ffffff" d="
  M 651.41 557.56
  L 651.60 559.39
  C 651.63 559.73 651.92 559.98 652.27 559.97
  L 660.55 559.69
  C 660.89 559.68 661.18 559.93 661.22 560.27
  L 661.54 563.25
  C 661.58 563.63 661.30 563.96 660.92 563.97
  L 647.14 564.47
  C 646.79 564.48 646.49 564.21 646.47 563.85
  L 645.60 546.62
  C 645.58 546.26 645.86 545.96 646.22 545.94
  L 659.67 545.32
  C 660.02 545.30 660.32 545.57 660.35 545.92
  L 660.57 548.89
  C 660.60 549.26 660.31 549.58 659.94 549.59
  L 651.73 549.84
  C 651.35 549.85 651.06 550.19 651.11 550.58
  L 651.34 552.24
  C 651.39 552.56 651.67 552.80 652.00 552.80
  L 658.41 552.66
  C 658.76 552.66 659.06 552.94 659.07 553.29
  L 659.14 555.57
  C 659.15 555.91 658.89 556.20 658.55 556.24
  L 651.99 556.85
  C 651.63 556.88 651.37 557.20 651.41 557.56
  Z"
/>
<path fill="#000000" d="
  M 740.84 550.77
  C 740.22 550.76 739.73 550.25 739.74 549.64
  L 739.77 547.35
  C 739.79 546.32 740.71 545.51 741.84 545.52
  L 742.68 545.54
  C 743.80 545.55 744.70 546.39 744.69 547.41
  L 744.66 549.70
  C 744.65 550.32 744.14 550.82 743.52 550.81
  L 740.84 550.77
  Z"
/>
<rect fill="#ffffff" x="-2.50" y="-9.19" transform="translate(846.59,555.40) rotate(3.8)" width="5.00" height="18.38" rx="0.59"/>
<path fill="#000000" d="
  M 726.29 549.62
  C 726.43 550.25 725.92 550.84 725.28 550.80
  C 724.13 550.75 723.04 550.92 721.99 551.32
  C 721.67 551.44 721.32 551.21 721.31 550.87
  L 721.17 546.99
  C 721.15 546.58 721.35 546.36 721.76 546.34
  L 725.11 546.21
  C 725.41 546.20 725.59 546.34 725.65 546.63
  L 726.29 549.62
  Z"
/>
<path fill="#ffffff" d="
  M 638.86 546.86
  L 639.96 548.54
  C 640.13 548.80 640.23 549.09 640.24 549.40
  C 640.40 553.19 640.58 556.97 640.79 560.75
  C 640.84 561.64 640.67 562.65 640.28 563.78
  C 640.18 564.07 639.99 564.28 639.70 564.39
  C 636.10 565.83 630.27 565.56 626.40 565.38
  C 626.03 565.37 625.85 565.18 625.84 564.81
  L 625.38 547.45
  C 625.37 547.07 625.67 546.76 626.05 546.75
  L 638.43 546.63
  C 638.60 546.63 638.76 546.72 638.86 546.86
  Z
  M 629.41 552.78
  L 629.53 560.36
  C 629.54 561.20 630.23 561.86 631.06 561.85
  L 633.40 561.81
  C 635.03 561.79 636.33 560.35 636.30 558.61
  L 636.24 554.33
  C 636.21 552.58 634.87 551.19 633.24 551.21
  L 630.90 551.25
  C 630.06 551.26 629.40 551.95 629.41 552.78
  Z"
/>
<path fill="#ffffff" d="
  M 863.87 561.47
  L 860.73 561.27
  C 860.30 561.24 860.00 561.42 859.83 561.80
  L 858.29 565.12
  C 858.20 565.30 858.06 565.39 857.85 565.38
  L 853.76 565.22
  C 853.66 565.22 853.60 565.11 853.64 565.03
  C 856.09 559.50 858.50 553.91 860.86 548.28
  C 861.53 546.70 864.17 547.14 865.37 547.81
  C 865.67 547.98 865.86 548.23 865.95 548.56
  L 870.41 566.17
  C 870.44 566.27 870.36 566.37 870.25 566.37
  L 865.98 566.25
  C 865.79 566.24 865.67 566.15 865.62 565.96
  L 864.58 562.05
  C 864.49 561.72 864.20 561.49 863.87 561.47
  Z
  M 861.51 557.80
  L 863.24 558.21
  C 863.53 558.28 863.69 558.17 863.72 557.88
  C 863.91 556.33 863.80 555.18 863.40 554.41
  C 863.11 553.85 862.26 554.08 862.30 554.71
  C 862.36 555.68 862.04 556.48 861.33 557.13
  C 861.10 557.34 861.20 557.72 861.51 557.80
  Z"
/>
<path fill="#ffffff" d="
  M 602.17 561.57
  L 602.68 565.92
  C 602.72 566.28 602.47 566.60 602.11 566.64
  L 598.62 567.04
  C 598.11 567.10 597.84 566.87 597.80 566.36
  L 596.48 549.26
  C 596.45 548.98 596.58 548.82 596.86 548.78
  C 601.52 548.12 606.55 547.20 609.16 548.22
  C 610.53 548.76 611.22 549.60 611.24 550.75
  L 611.37 558.46
  C 611.38 558.85 611.18 559.08 610.79 559.13
  L 608.64 559.41
  C 607.61 559.54 607.48 559.96 608.26 560.65
  L 612.97 564.87
  C 613.94 565.74 613.77 566.18 612.47 566.20
  L 609.25 566.27
  C 608.06 566.29 607.08 565.86 606.30 564.97
  L 602.97 561.21
  C 602.32 560.48 602.06 560.60 602.17 561.57
  Z
  M 601.57 552.56
  L 602.07 556.67
  C 602.09 556.86 602.26 556.99 602.45 556.97
  L 605.63 556.58
  C 606.45 556.48 607.04 555.77 606.94 555.00
  L 606.70 553.01
  C 606.60 552.24 605.86 551.69 605.04 551.79
  L 601.86 552.18
  C 601.68 552.21 601.54 552.38 601.57 552.56
  Z"
/>
<path fill="#ffffff" d="
  M 583.24 563.72
  L 591.80 563.34
  C 592.01 563.33 592.13 563.43 592.16 563.62
  L 592.80 566.91
  C 592.84 567.12 592.75 567.24 592.54 567.25
  L 578.26 568.29
  C 577.88 568.32 577.68 568.14 577.65 567.76
  L 576.58 550.26
  C 576.56 549.96 576.70 549.80 577.00 549.77
  L 590.40 548.60
  C 590.75 548.57 591.07 548.79 591.17 549.13
  C 591.53 550.33 591.62 551.56 591.44 552.82
  C 591.40 553.09 591.24 553.23 590.96 553.24
  L 583.31 553.30
  C 582.56 553.31 582.21 553.69 582.24 554.44
  L 582.28 555.36
  C 582.31 556.07 582.91 556.61 583.62 556.57
  L 589.22 556.20
  C 589.78 556.16 590.08 556.42 590.12 556.98
  L 590.26 558.99
  C 590.31 559.71 589.98 560.08 589.26 560.11
  L 583.20 560.34
  C 582.91 560.35 582.76 560.51 582.76 560.80
  L 582.75 563.24
  C 582.74 563.57 582.91 563.73 583.24 563.72
  Z"
/>
<path fill="#000000" d="
  M 830.39 549.73
  C 830.39 549.47 830.60 549.26 830.86 549.25
  L 834.47 549.21
  C 835.07 549.21 835.57 549.74 835.58 550.41
  L 835.60 552.53
  C 835.61 553.20 835.12 553.75 834.51 553.75
  L 830.90 553.79
  C 830.64 553.79 830.43 553.59 830.43 553.33
  L 830.39 549.73
  Z"
/>
<path fill="#000000" d="
  M 702.10 553.85
  L 702.92 550.04
  C 702.99 549.70 703.46 549.66 703.59 549.99
  L 704.85 553.18
  C 704.92 553.38 704.82 553.59 704.62 553.65
  L 702.54 554.26
  C 702.29 554.34 702.05 554.11 702.10 553.85
  Z"
/>
<path fill="#ffffff" d="
  M 563.29 564.55
  L 571.08 563.66
  C 571.63 563.60 572.11 564.02 572.12 564.58
  L 572.14 567.27
  C 572.14 567.88 571.84 568.21 571.23 568.26
  L 558.56 569.26
  C 558.23 569.28 558.06 569.13 558.05 568.80
  L 557.29 551.25
  C 557.28 550.92 557.43 550.74 557.75 550.70
  L 561.93 550.16
  C 562.10 550.14 562.25 550.27 562.26 550.45
  L 562.71 564.04
  C 562.72 564.42 562.92 564.59 563.29 564.55
  Z"
/>
<path fill="#ffffff" d="
  M 543.83 565.60
  L 552.42 564.65
  C 552.60 564.63 552.76 564.76 552.77 564.95
  L 553.02 568.91
  C 553.03 569.08 552.90 569.23 552.73 569.25
  L 539.24 570.33
  C 539.06 570.35 538.90 570.21 538.90 570.03
  L 538.13 552.05
  C 538.13 551.88 538.25 551.74 538.42 551.72
  L 542.88 551.30
  C 543.06 551.28 543.22 551.43 543.23 551.62
  L 543.47 565.29
  C 543.48 565.48 543.64 565.62 543.83 565.60
  Z"
/>
<path fill="#000000" d="
  M 629.41 552.78
  C 629.40 551.95 630.06 551.26 630.90 551.25
  L 633.24 551.21
  C 634.87 551.19 636.21 552.58 636.24 554.33
  L 636.30 558.61
  C 636.33 560.35 635.03 561.79 633.40 561.81
  L 631.06 561.85
  C 630.23 561.86 629.54 561.20 629.53 560.36
  L 629.41 552.78
  Z"
/>
<path fill="#000000" d="
  M 601.57 552.56
  C 601.54 552.38 601.68 552.21 601.86 552.18
  L 605.04 551.79
  C 605.86 551.69 606.60 552.24 606.70 553.01
  L 606.94 555.00
  C 607.04 555.77 606.45 556.48 605.63 556.58
  L 602.45 556.97
  C 602.26 556.99 602.09 556.86 602.07 556.67
  L 601.57 552.56
  Z"
/>
<path fill="#ffffff" d="
  M 527.89 566.47
  C 526.63 566.22 525.38 566.25 524.14 566.54
  C 523.82 566.62 523.61 566.82 523.51 567.13
  L 522.32 570.90
  C 522.25 571.13 522.09 571.25 521.84 571.25
  L 517.98 571.26
  C 517.86 571.26 517.77 571.14 517.80 571.02
  L 522.84 553.07
  C 522.93 552.76 523.13 552.58 523.46 552.54
  L 526.22 552.21
  C 526.83 552.14 527.42 552.49 527.65 553.06
  L 534.33 569.73
  C 534.50 570.16 534.35 570.38 533.90 570.39
  L 530.50 570.53
  C 530.11 570.55 529.80 570.40 529.58 570.07
  C 528.98 569.20 528.63 568.23 528.52 567.16
  C 528.48 566.78 528.27 566.55 527.89 566.47
  Z
  M 526.80 562.86
  C 527.05 562.81 527.19 562.56 527.11 562.33
  L 525.99 559.03
  C 525.86 558.63 525.29 558.67 525.20 559.07
  L 524.44 562.76
  C 524.38 563.05 524.63 563.30 524.92 563.25
  L 526.80 562.86
  Z"
/>
<path fill="#ffffff" d="
  M 507.25 557.92
  L 508.26 571.32
  C 508.28 571.50 508.14 571.67 507.96 571.69
  L 503.94 572.18
  C 503.75 572.20 503.57 572.05 503.55 571.85
  L 502.55 558.43
  C 502.53 558.24 502.37 558.10 502.18 558.10
  L 497.13 558.29
  C 496.93 558.29 496.77 558.14 496.77 557.94
  L 496.74 554.28
  C 496.74 554.10 496.88 553.94 497.07 553.93
  L 512.16 552.98
  C 512.35 552.97 512.52 553.11 512.54 553.29
  L 512.91 556.88
  C 512.93 557.08 512.78 557.26 512.58 557.27
  L 507.58 557.54
  C 507.38 557.55 507.23 557.72 507.25 557.92
  Z"
/>
<path fill="#000000" d="
  M 861.51 557.80
  C 861.20 557.72 861.10 557.34 861.33 557.13
  C 862.04 556.48 862.36 555.68 862.30 554.71
  C 862.26 554.08 863.11 553.85 863.40 554.41
  C 863.80 555.18 863.91 556.33 863.72 557.88
  C 863.69 558.17 863.53 558.28 863.24 558.21
  L 861.51 557.80
  Z"
/>
<path fill="#000000" d="
  M 526.80 562.86
  L 524.92 563.25
  C 524.63 563.30 524.38 563.05 524.44 562.76
  L 525.20 559.07
  C 525.29 558.67 525.86 558.63 525.99 559.03
  L 527.11 562.33
  C 527.19 562.56 527.05 562.81 526.80 562.86
  Z"
/>
</svg>
