<?xml version="1.0" encoding="UTF-8" standalone="no"?>
<!DOCTYPE svg PUBLIC "-//W3C//DTD SVG 1.1//EN" "http://www.w3.org/Graphics/SVG/1.1/DTD/svg11.dtd">
<svg xmlns="http://www.w3.org/2000/svg" version="1.1" viewBox="0.00 0.00 1000.00 1000.00">
<g stroke-width="2.00" fill="none" stroke-linecap="butt">
<path stroke="#808080" vector-effect="non-scaling-stroke" d="
  M 762.19 489.65
  C 769.75 495.97 773.60 505.47 780.69 513.07
  C 780.90 513.31 781.20 513.44 781.52 513.45
  C 788.49 513.57 795.47 513.69 802.44 513.81
  C 806.92 513.89 809.10 514.22 812.11 511.72
  C 812.22 511.63 812.24 511.46 812.14 511.35
  C 804.67 503.34 797.14 495.38 789.55 487.45
  C 788.71 486.57 787.85 485.42 786.98 483.99
  C 786.77 483.66 786.86 483.49 787.25 483.49
  C 791.08 483.45 802.32 483.10 802.95 477.75
  C 803.95 469.23 803.97 460.81 804.24 452.26
  C 804.44 446.17 804.65 431.29 795.51 430.66
  C 788.74 430.20 781.99 429.64 775.25 428.97
  C 768.55 428.32 757.12 428.38 740.95 429.17
  C 737.60 429.33 737.50 434.03 737.40 436.42
  C 737.19 441.53 737.12 446.65 737.21 451.76
  C 737.54 471.79 737.75 491.62 737.83 511.23
  C 737.84 512.62 738.97 513.74 740.36 513.72
  L 759.16 513.51
  C 761.09 513.49 762.60 511.83 762.44 509.90
  C 761.89 503.50 761.02 496.47 761.76 489.82
  C 761.79 489.49 761.94 489.44 762.19 489.65"
/>
<path stroke="#808080" vector-effect="non-scaling-stroke" d="
  M 847.41 432.04
  C 839.30 431.43 833.18 430.34 825.36 430.96
  C 824.44 431.03 823.93 431.53 823.83 432.45
  C 823.34 437.28 822.98 442.41 822.77 447.85
  C 822.00 466.90 821.33 485.95 820.74 505.00
  C 820.69 506.65 820.71 509.80 820.79 514.44
  C 820.79 514.78 820.96 514.96 821.30 514.98
  C 827.86 515.42 834.43 516.03 841.00 516.10
  C 843.34 516.13 844.55 515.01 844.64 512.76
  C 845.73 486.01 846.80 459.27 847.86 432.54
  C 847.87 432.23 847.72 432.06 847.41 432.04"
/>
<path stroke="#808080" vector-effect="non-scaling-stroke" d="
  M 715.10 431.58
  C 714.79 431.45 714.04 431.39 712.86 431.41
  C 699.15 431.65 685.45 432.00 671.76 432.45
  C 666.70 432.62 661.11 432.80 656.38 434.81
  C 656.08 434.94 655.85 435.18 655.73 435.48
  C 653.69 440.92 654.09 448.72 654.16 454.50
  C 654.38 472.19 654.48 490.11 655.95 507.75
  C 656.26 511.44 657.17 517.07 661.00 517.42
  C 665.96 517.88 672.29 517.25 677.33 517.27
  C 692.55 517.34 707.81 516.14 722.98 514.97
  C 727.05 514.66 727.72 509.01 727.70 505.75
  C 727.58 485.63 727.14 465.52 726.37 445.41
  C 726.11 438.57 721.02 434.17 715.10 431.58"
/>
<path stroke="#808080" vector-effect="non-scaling-stroke" d="
  M 852.98 511.46
  C 853.14 513.95 854.75 515.93 857.25 516.26
  C 876.32 518.77 895.46 520.35 914.68 521.00
  C 914.75 521.00 915.62 521.09 917.30 521.27
  C 921.17 521.69 923.07 518.55 923.51 515.00
  C 925.87 496.31 927.87 477.59 929.52 458.82
  C 929.96 453.81 930.15 450.93 930.08 450.18
  C 929.61 445.11 926.76 442.33 923.11 439.19
  C 921.62 437.91 920.37 437.22 919.38 437.12
  C 906.21 435.77 893.04 434.45 879.87 433.15
  C 874.02 432.57 868.79 432.57 863.35 433.05
  C 861.93 433.18 860.74 434.16 860.36 435.53
  C 859.23 439.56 858.43 443.57 857.94 447.55
  C 855.88 464.32 854.24 481.14 853.03 498.00
  C 852.71 502.49 852.69 506.97 852.98 511.46"
/>
<path stroke="#808080" vector-effect="non-scaling-stroke" d="
  M 624.86 457.12
  C 624.81 456.42 625.13 456.07 625.84 456.08
  C 633.83 456.13 641.78 455.60 649.69 454.49
  C 650.10 454.43 650.30 454.19 650.29 453.78
  C 650.10 448.49 649.89 443.35 649.67 438.38
  C 649.59 436.69 649.22 435.27 648.55 434.10
  C 648.28 433.64 647.88 433.42 647.35 433.45
  C 625.93 434.59 604.89 435.91 584.24 437.41
  C 582.25 437.56 580.25 437.74 578.26 437.96
  C 575.02 438.32 575.83 440.83 576.27 442.94
  C 577.27 447.80 575.44 453.43 577.43 458.15
  C 577.61 458.57 578.03 458.83 578.48 458.81
  L 599.81 457.69
  C 601.34 457.61 602.65 458.78 602.74 460.30
  L 606.48 520.01
  C 606.51 520.50 606.78 520.73 607.27 520.70
  L 628.61 519.30
  C 629.03 519.27 629.23 519.05 629.20 518.63
  L 624.86 457.12"
/>
<path stroke="#808080" vector-effect="non-scaling-stroke" d="
  M 549.27 505.65
  L 556.27 523.15
  C 556.40 523.48 556.64 523.63 556.99 523.61
  L 576.37 522.52
  C 576.93 522.49 577.29 521.92 577.08 521.41
  L 544.27 440.32
  C 544.10 439.91 543.80 439.71 543.36 439.70
  L 528.90 439.56
  C 528.49 439.55 528.21 439.75 528.08 440.14
  C 521.20 460.62 517.46 474.65 511.29 498.34
  C 508.97 507.23 505.87 516.56 503.23 525.73
  C 503.14 526.06 503.27 526.22 503.62 526.21
  L 521.99 525.35
  C 522.42 525.33 522.79 525.05 522.93 524.63
  L 528.85 506.41
  C 528.95 506.10 529.16 505.91 529.49 505.85
  C 535.53 504.72 541.62 504.30 547.77 504.58
  C 548.43 504.61 549.02 505.03 549.27 505.65"
/>
<path stroke="#808080" vector-effect="non-scaling-stroke" d="
  M 151.04 494.47
  C 150.74 500.30 149.97 505.56 150.49 511.54
  C 151.02 517.70 150.83 523.86 149.94 530.01
  C 149.89 530.38 150.14 530.71 150.51 530.77
  C 157.68 531.78 164.88 532.25 172.12 532.17
  C 173.14 532.16 173.69 531.65 173.76 530.62
  C 175.57 504.01 178.29 476.50 177.27 449.52
  C 177.26 449.14 176.99 448.80 176.61 448.71
  C 172.48 447.66 168.10 448.41 164.50 447.99
  C 160.57 447.53 156.73 447.01 152.97 446.44
  C 152.56 446.38 152.15 446.59 151.95 446.96
  L 127.66 493.82
  C 127.47 494.20 126.92 494.18 126.76 493.79
  C 120.01 477.63 113.78 461.27 108.06 444.72
  C 107.64 443.52 106.46 442.76 105.20 442.89
  C 97.83 443.63 90.71 442.86 83.25 442.54
  C 82.92 442.53 82.75 442.68 82.72 443.01
  L 77.19 525.56
  C 77.16 526.00 77.37 526.24 77.81 526.27
  L 99.86 528.00
  C 100.49 528.05 100.83 527.75 100.86 527.12
  L 102.47 491.27
  C 102.50 490.68 102.65 490.64 102.94 491.16
  C 104.05 493.22 104.46 496.00 105.19 497.72
  C 108.16 504.73 111.13 511.73 114.12 518.74
  C 114.25 519.05 114.47 519.27 114.78 519.39
  C 120.45 521.70 127.65 521.68 133.68 521.23
  C 134.02 521.20 134.29 521.05 134.49 520.77
  C 140.51 512.36 145.91 503.56 150.70 494.39
  C 150.95 493.91 151.07 493.94 151.04 494.47"
/>
<path stroke="#808080" vector-effect="non-scaling-stroke" d="
  M 448.83 504.91
  C 456.94 510.20 461.67 520.18 468.74 526.83
  C 468.97 527.05 469.25 527.15 469.58 527.14
  C 477.74 526.74 485.90 526.35 494.06 525.97
  C 496.40 525.86 497.92 524.88 499.79 523.70
  C 500.07 523.52 500.11 523.11 499.86 522.88
  L 472.95 497.84
  C 472.59 497.50 472.80 496.90 473.29 496.86
  C 477.30 496.55 481.22 495.72 485.05 494.37
  C 488.77 493.06 488.47 491.09 488.53 487.74
  C 488.71 477.73 488.39 467.73 487.58 457.75
  C 487.23 453.45 484.94 444.54 479.76 443.91
  C 474.52 443.28 468.05 443.46 461.00 443.46
  C 448.33 443.47 435.70 444.26 423.13 445.82
  C 419.71 446.25 420.21 453.63 420.41 456.18
  C 422.33 480.06 424.10 503.81 425.73 527.42
  C 425.86 529.37 426.91 530.28 428.86 530.14
  L 447.38 528.77
  C 449.28 528.63 450.64 526.89 450.33 525.02
  C 449.29 518.74 448.22 512.03 448.23 505.23
  C 448.24 504.76 448.44 504.65 448.83 504.91"
/>
<path stroke="#808080" vector-effect="non-scaling-stroke" d="
  M 372.15 500.15
  C 374.06 499.48 376.43 499.01 379.25 498.74
  C 386.88 498.00 394.50 497.67 402.12 497.75
  C 403.02 497.76 403.85 497.22 404.21 496.39
  C 404.76 495.14 404.94 493.59 404.76 491.74
  C 404.43 488.24 404.34 484.70 404.49 481.11
  C 404.51 480.74 404.38 480.44 404.10 480.21
  C 402.82 479.16 401.12 478.67 398.99 478.74
  C 390.32 479.03 381.64 479.33 372.95 479.66
  C 372.61 479.67 372.31 479.56 372.05 479.35
  C 369.26 477.05 369.08 472.54 370.00 469.45
  C 370.27 468.57 370.86 468.09 371.78 468.02
  C 384.80 467.05 397.79 467.80 410.84 467.02
  C 411.17 467.00 411.36 466.83 411.41 466.50
  C 412.43 460.11 414.02 450.57 408.60 446.01
  C 408.35 445.80 408.07 445.69 407.74 445.70
  C 386.66 446.07 365.52 447.63 344.53 448.79
  C 342.92 448.88 341.74 450.35 342.00 451.95
  C 342.71 456.23 343.36 460.51 343.96 464.80
  C 344.51 468.80 344.77 473.12 344.73 477.76
  C 344.58 495.50 345.01 513.14 346.01 530.69
  C 346.05 531.44 346.56 532.08 347.28 532.29
  C 349.49 532.92 351.56 533.22 353.50 533.19
  C 374.24 532.82 394.78 532.53 415.41 529.94
  C 415.75 529.89 415.95 529.70 416.01 529.37
  C 416.91 523.96 415.13 518.03 413.67 512.83
  C 413.58 512.50 413.39 512.24 413.12 512.04
  C 408.86 508.90 404.37 510.90 399.65 510.96
  C 390.72 511.07 381.61 512.12 372.71 511.63
  C 372.02 511.59 371.49 511.02 371.50 510.33
  L 371.62 500.89
  C 371.63 500.56 371.84 500.26 372.15 500.15"
/>
<path stroke="#808080" vector-effect="non-scaling-stroke" d="
  M 231.89 514.75
  C 232.20 514.86 232.41 515.07 232.51 515.39
  L 238.36 533.62
  C 238.45 533.91 238.65 534.06 238.96 534.07
  L 258.63 534.31
  C 259.10 534.32 259.44 533.86 259.29 533.41
  L 232.19 450.27
  C 232.01 449.72 231.71 449.44 231.29 449.41
  L 216.69 448.31
  C 216.34 448.28 216.11 448.43 215.98 448.76
  C 211.11 460.76 208.02 468.57 206.69 472.20
  C 202.01 484.99 196.67 502.49 190.94 517.39
  C 189.01 522.41 187.09 527.45 185.19 532.51
  C 185.12 532.71 185.26 532.93 185.48 532.93
  L 204.19 533.32
  C 204.54 533.33 204.79 533.17 204.92 532.84
  L 212.19 514.89
  C 212.32 514.56 212.63 514.33 212.98 514.31
  C 218.15 513.96 227.04 513.05 231.89 514.75"
/>
<path stroke="#808080" vector-effect="non-scaling-stroke" d="
  M 334.33 528.32
  C 335.89 524.47 336.68 519.95 336.70 514.74
  C 336.74 501.08 336.69 487.42 336.54 473.75
  C 336.48 468.10 336.13 463.60 335.48 460.25
  C 334.84 456.95 330.80 451.24 327.75 450.47
  C 322.56 449.14 317.03 448.75 311.04 448.76
  C 296.91 448.77 283.20 448.98 269.90 449.37
  C 268.15 449.42 267.27 450.33 267.26 452.09
  C 267.19 477.76 267.29 502.90 267.57 527.51
  C 267.60 529.92 268.44 531.81 269.23 533.99
  C 269.33 534.25 269.57 534.44 269.84 534.46
  C 287.10 535.92 302.78 535.07 324.24 533.41
  C 328.09 533.12 332.91 531.83 334.33 528.32"
/>
<path stroke="#808080" vector-effect="non-scaling-stroke" d="
  M 762.46 555.57
  L 770.31 555.28
  C 770.78 555.27 771.03 555.02 771.06 554.55
  L 771.63 544.64
  C 771.68 543.77 771.00 543.03 770.13 543.01
  L 758.27 542.71
  C 757.75 542.70 757.49 542.95 757.48 543.48
  L 757.19 561.90
  C 757.18 562.30 757.50 562.63 757.90 562.65
  L 761.21 562.80
  C 761.74 562.82 762.00 562.57 762.00 562.04
  L 762.00 556.04
  C 762.00 555.74 762.15 555.58 762.46 555.57"
/>
<path stroke="#808080" vector-effect="non-scaling-stroke" d="
  M 741.68 557.55
  C 741.58 556.17 741.98 556.01 742.87 557.07
  L 747.32 562.34
  C 747.51 562.57 747.75 562.65 748.04 562.60
  C 749.55 562.33 751.08 562.30 752.61 562.51
  C 753.91 562.68 754.09 562.32 753.14 561.41
  L 747.86 556.33
  C 747.51 555.99 747.68 555.40 748.16 555.30
  L 750.58 554.82
  C 751.42 554.65 752.00 553.88 751.93 553.03
  L 751.21 544.64
  C 751.14 543.82 750.48 543.17 749.66 543.11
  C 745.23 542.78 740.83 542.96 736.45 543.64
  C 736.16 543.69 735.94 543.95 735.96 544.25
  L 737.13 562.97
  C 737.14 563.19 737.26 563.29 737.48 563.28
  L 741.93 562.97
  C 742.02 562.96 742.06 562.92 742.05 562.83
  L 741.68 557.55"
/>
<path stroke="#808080" vector-effect="non-scaling-stroke" d="
  M 782.98 544.13
  C 783.00 543.74 782.71 543.39 782.31 543.34
  L 778.67 542.88
  C 778.21 542.82 777.81 543.18 777.81 543.64
  L 777.73 562.23
  C 777.73 562.65 778.08 563.00 778.50 563.00
  L 781.55 563.00
  C 781.96 563.00 782.30 562.67 782.32 562.26
  L 782.98 544.13"
/>
<path stroke="#808080" vector-effect="non-scaling-stroke" d="
  M 801.54 555.50
  C 801.53 556.44 801.28 556.51 800.78 555.71
  C 798.45 551.96 796.50 548.01 794.93 543.87
  C 794.81 543.55 794.50 543.34 794.16 543.33
  L 790.33 543.27
  C 789.89 543.26 789.52 543.61 789.51 544.06
  L 788.99 562.98
  C 788.98 563.15 789.06 563.23 789.23 563.23
  L 792.96 563.25
  C 793.07 563.25 793.16 563.16 793.17 563.04
  L 793.52 553.50
  C 793.61 551.05 794.18 550.93 795.21 553.15
  C 796.83 556.62 798.74 559.92 800.94 563.07
  C 801.15 563.38 801.43 563.52 801.80 563.51
  L 804.88 563.41
  C 805.42 563.39 805.85 562.96 805.87 562.43
  L 806.27 545.09
  C 806.29 544.34 805.93 543.91 805.18 543.80
  L 802.94 543.48
  C 802.11 543.36 801.68 543.72 801.67 544.57
  L 801.54 555.50"
/>
<path stroke="#808080" vector-effect="non-scaling-stroke" d="
  M 724.80 559.63
  L 726.10 562.62
  C 726.44 563.41 727.04 563.79 727.91 563.76
  L 730.01 563.68
  C 730.82 563.65 731.08 563.26 730.79 562.49
  L 723.77 544.44
  C 723.66 544.15 723.45 544.01 723.14 544.01
  L 720.04 544.00
  C 719.53 544.00 719.21 544.24 719.06 544.73
  L 713.46 563.96
  C 713.40 564.16 713.48 564.26 713.69 564.25
  L 717.53 564.11
  C 717.70 564.10 717.82 564.01 717.87 563.84
  L 719.13 559.80
  C 719.21 559.54 719.38 559.38 719.65 559.32
  C 721.10 558.99 722.56 558.91 724.05 559.07
  C 724.40 559.11 724.65 559.30 724.80 559.63"
/>
<path stroke="#808080" vector-effect="non-scaling-stroke" d="
  M 829.38 548.73
  C 829.54 548.74 829.67 548.62 829.69 548.46
  L 830.08 544.91
  C 830.09 544.74 829.96 544.58 829.79 544.58
  L 813.20 543.98
  C 813.03 543.97 812.89 544.10 812.89 544.27
  L 812.74 547.88
  C 812.74 548.05 812.87 548.19 813.04 548.19
  L 818.78 548.29
  C 818.94 548.29 819.08 548.43 819.07 548.59
  L 818.60 563.67
  C 818.59 563.84 818.73 563.98 818.90 563.98
  L 822.88 564.04
  C 823.05 564.04 823.18 563.91 823.18 563.74
  L 823.35 548.81
  C 823.35 548.64 823.49 548.51 823.66 548.51
  L 829.38 548.73"
/>
<path stroke="#808080" vector-effect="non-scaling-stroke" d="
  M 694.70 565.17
  L 705.46 564.50
  C 706.46 564.43 706.86 563.91 706.67 562.93
  L 706.55 562.28
  C 706.38 561.39 705.83 560.95 704.92 560.96
  L 697.72 561.02
  C 696.85 561.03 696.14 560.35 696.10 559.48
  L 695.74 551.38
  C 695.69 550.29 696.54 549.37 697.63 549.32
  L 704.00 549.02
  C 705.29 548.97 705.96 548.29 705.99 547.00
  L 706.00 546.45
  C 706.02 545.51 705.26 544.75 704.32 544.77
  C 700.95 544.84 697.89 544.95 695.15 545.10
  C 694.01 545.16 693.18 545.49 692.66 546.10
  C 690.35 548.79 691.74 559.46 692.32 563.25
  C 692.53 564.62 693.32 565.26 694.70 565.17"
/>
<path stroke="#808080" vector-effect="non-scaling-stroke" d="
  M 847.03 557.06
  C 847.88 557.26 848.70 556.63 848.73 555.76
  L 848.77 554.85
  C 848.80 553.88 848.33 553.37 847.35 553.33
  L 842.31 553.12
  C 841.00 553.07 840.35 552.38 840.38 551.06
  L 840.39 550.49
  C 840.41 549.63 841.15 548.95 842.01 549.02
  L 849.97 549.62
  C 850.74 549.67 851.14 549.31 851.15 548.54
  L 851.20 546.59
  C 851.22 545.88 850.67 545.30 849.96 545.28
  L 835.81 544.91
  C 835.40 544.90 835.21 545.09 835.24 545.50
  C 835.62 551.49 834.67 557.48 834.50 563.47
  C 834.48 564.22 835.06 564.84 835.81 564.87
  L 849.68 565.36
  C 850.61 565.39 850.98 564.96 850.81 564.05
  L 850.56 562.68
  C 850.41 561.91 849.75 561.34 848.97 561.31
  L 840.78 560.98
  C 840.33 560.96 840.12 560.72 840.15 560.27
  L 840.33 557.50
  C 840.35 557.28 840.51 557.10 840.72 557.05
  C 842.82 556.56 844.92 556.56 847.03 557.06"
/>
<path stroke="#808080" vector-effect="non-scaling-stroke" d="
  M 861.96 559.76
  C 861.98 559.37 862.48 559.22 862.71 559.54
  L 866.87 565.38
  C 867.20 565.84 867.64 566.08 868.20 566.11
  L 873.06 566.38
  C 873.56 566.41 873.65 566.24 873.32 565.85
  L 868.07 559.65
  C 867.76 559.29 868.04 558.73 868.52 558.76
  C 869.63 558.82 870.69 558.66 871.70 558.27
  C 872.03 558.14 872.21 557.90 872.22 557.54
  C 872.36 554.66 873.53 550.53 872.06 547.49
  C 871.93 547.21 871.71 547.04 871.41 546.99
  C 867.02 546.18 862.61 545.86 858.17 546.01
  C 857.77 546.02 857.56 546.23 857.54 546.63
  L 856.87 564.80
  C 856.84 565.44 857.15 565.75 857.79 565.73
  L 860.82 565.65
  C 861.37 565.64 861.66 565.35 861.69 564.80
  L 861.96 559.76"
/>
<path stroke="#808080" vector-effect="non-scaling-stroke" d="
  M 664.28 559.55
  C 664.24 558.94 664.71 558.40 665.32 558.36
  L 671.86 557.88
  C 672.31 557.84 672.53 557.59 672.52 557.14
  L 672.45 555.13
  C 672.43 554.59 672.15 554.33 671.61 554.35
  L 665.65 554.58
  C 664.91 554.61 664.25 554.12 664.05 553.41
  L 663.70 552.16
  C 663.41 551.15 663.79 550.64 664.84 550.61
  L 672.64 550.39
  C 673.92 550.35 674.47 549.70 674.28 548.44
  L 674.24 548.18
  C 674.04 546.77 673.23 546.12 671.80 546.21
  L 658.46 547.08
  C 658.14 547.11 658.00 547.28 658.05 547.60
  C 658.94 553.80 658.81 559.88 659.10 565.99
  C 659.13 566.64 659.48 566.95 660.13 566.92
  L 674.65 566.13
  C 675.26 566.10 675.51 565.78 675.40 565.17
  L 675.00 563.08
  C 674.87 562.43 674.48 562.12 673.82 562.16
  L 665.56 562.61
  C 664.95 562.64 664.43 562.18 664.40 561.57
  L 664.28 559.55"
/>
<path stroke="#808080" vector-effect="non-scaling-stroke" d="
  M 883.2359 548.1067
  C 883.26 547.68 882.94 547.32 882.5143 547.2911
  L 879.1606 547.0860
  C 878.74 547.06 878.37 547.38 878.3450 547.8076
  L 877.2241 566.1333
  C 877.20 566.56 877.52 566.92 877.9457 566.9489
  L 881.2994 567.1540
  C 881.72 567.18 882.09 566.86 882.1150 566.4324
  L 883.2359 548.1067"
/>
<path stroke="#808080" vector-effect="non-scaling-stroke" d="
  M 635.72 548.98
  L 636.58 567.24
  C 636.60 567.76 637.05 568.17 637.57 568.14
  L 648.45 567.63
  C 650.76 567.52 652.55 565.71 652.45 563.59
  L 651.86 551.12
  C 651.76 549.00 649.81 547.36 647.50 547.47
  L 636.62 547.98
  C 636.10 548.01 635.69 548.45 635.72 548.98"
/>
<path stroke="#808080" vector-effect="non-scaling-stroke" d="
  M 895.33 563.48
  L 899.61 563.53
  C 899.95 563.54 900.25 563.77 900.34 564.10
  L 901.50 568.47
  C 901.56 568.70 901.71 568.83 901.96 568.84
  L 906.00 569.01
  C 906.14 569.01 906.24 568.88 906.21 568.75
  L 901.13 548.93
  C 901.06 548.66 900.80 548.49 900.53 548.55
  C 899.59 548.75 898.66 548.70 897.75 548.39
  C 897.21 548.21 896.63 548.47 896.41 548.99
  L 888.76 566.98
  C 888.55 567.47 888.72 567.73 889.25 567.76
  L 892.29 567.91
  C 892.64 567.93 892.88 567.78 893.03 567.47
  L 894.71 563.87
  C 894.84 563.61 895.04 563.48 895.33 563.48"
/>
<path stroke="#808080" vector-effect="non-scaling-stroke" d="
  M 611.07 563.32
  L 614.93 567.74
  C 615.63 568.53 616.51 568.89 617.56 568.80
  L 620.97 568.52
  C 621.91 568.44 622.03 568.08 621.34 567.44
  L 616.15 562.61
  C 615.72 562.21 615.92 561.49 616.50 561.37
  L 619.12 560.83
  C 619.39 560.78 619.55 560.61 619.58 560.34
  C 620.04 557.01 619.85 553.73 619.02 550.49
  C 618.93 550.12 618.66 549.82 618.30 549.70
  C 614.64 548.41 607.38 549.45 604.45 549.84
  C 604.07 549.89 603.90 550.10 603.93 550.48
  L 605.34 568.57
  C 605.39 569.20 605.73 569.50 606.36 569.47
  L 609.28 569.35
  C 610.01 569.32 610.33 568.94 610.24 568.22
  L 609.71 563.93
  C 609.62 563.17 610.56 562.74 611.07 563.32"
/>
<path stroke="#808080" vector-effect="non-scaling-stroke" d="
  M 594.84 558.19
  L 590.19 558.72
  C 589.13 558.84 588.12 558.23 587.74 557.23
  C 586.92 555.08 587.59 554.16 589.76 554.46
  C 591.11 554.65 593.51 554.60 596.96 554.33
  C 597.73 554.27 598.09 553.85 598.04 553.08
  L 597.92 551.32
  C 597.85 550.37 597.35 549.94 596.40 550.01
  L 582.25 551.06
  C 581.94 551.08 581.81 551.24 581.84 551.55
  C 582.12 553.91 582.73 555.96 582.65 558.35
  C 582.52 562.14 582.65 566.09 583.04 570.20
  C 583.07 570.58 583.41 570.87 583.79 570.85
  L 598.68 570.00
  C 599.12 569.97 599.30 569.74 599.22 569.31
  L 598.73 566.66
  C 598.65 566.22 598.25 565.92 597.80 565.96
  L 589.68 566.71
  C 588.54 566.82 588.00 566.30 588.06 565.17
  L 588.13 563.78
  C 588.18 562.79 588.70 562.27 589.69 562.21
  L 595.12 561.88
  C 595.91 561.83 596.28 561.42 596.25 560.63
  L 596.19 559.34
  C 596.16 558.47 595.71 558.09 594.84 558.19"
/>
<path stroke="#808080" vector-effect="non-scaling-stroke" d="
  M 566.38 567.32
  C 566.21 567.33 566.06 567.19 566.05 567.02
  L 565.73 551.98
  C 565.72 551.80 565.57 551.66 565.39 551.67
  L 560.75 552.01
  C 560.58 552.02 560.45 552.17 560.46 552.34
  L 561.63 571.62
  C 561.64 571.79 561.79 571.92 561.96 571.91
  L 575.95 571.14
  C 576.11 571.13 576.24 570.99 576.24 570.83
  L 576.25 567.02
  C 576.25 566.84 576.10 566.70 575.92 566.71
  L 566.38 567.32"
/>
<path stroke="#808080" vector-effect="non-scaling-stroke" d="
  M 545.23 568.23
  C 544.20 564.60 545.12 562.40 544.39 558.60
  C 544.24 557.85 544.29 556.01 544.52 553.10
  C 544.53 552.91 544.45 552.83 544.26 552.84
  L 539.67 553.05
  C 539.48 553.06 539.39 553.15 539.40 553.34
  L 540.27 572.08
  C 540.30 572.77 540.66 573.09 541.34 573.05
  L 554.58 572.26
  C 554.89 572.24 555.14 571.98 555.13 571.67
  L 555.06 568.42
  C 555.05 567.99 554.84 567.80 554.42 567.84
  L 545.71 568.55
  C 545.46 568.57 545.30 568.46 545.23 568.23"
/>
<path stroke="#808080" vector-effect="non-scaling-stroke" d="
  M 523.25 569.26
  C 524.74 568.95 526.24 568.91 527.74 569.12
  C 528.07 569.17 528.35 569.39 528.47 569.70
  L 530.05 573.54
  C 530.09 573.63 530.18 573.69 530.28 573.68
  L 534.62 573.35
  C 534.73 573.34 534.76 573.29 534.72 573.19
  L 527.12 554.29
  C 527.02 554.04 526.84 553.92 526.57 553.93
  L 523.13 554.03
  C 522.85 554.04 522.61 554.23 522.54 554.50
  L 517.12 573.76
  C 517.03 574.09 517.16 574.25 517.49 574.25
  L 520.71 574.21
  C 521.10 574.20 521.45 573.95 521.56 573.57
  L 522.69 569.76
  C 522.78 569.49 522.96 569.32 523.25 569.26"
/>
<path stroke="#808080" vector-effect="non-scaling-stroke" d="
  M 504.55 559.60
  C 504.54 559.44 504.67 559.29 504.83 559.28
  L 510.60 558.95
  C 510.76 558.94 510.89 558.80 510.88 558.64
  L 510.74 554.98
  C 510.74 554.81 510.59 554.68 510.42 554.69
  L 493.99 555.74
  C 493.83 555.75 493.70 555.89 493.71 556.05
  L 493.80 559.53
  C 493.81 559.70 493.94 559.83 494.11 559.82
  L 499.84 559.71
  C 500.00 559.70 500.14 559.83 500.15 559.99
  L 501.10 574.82
  C 501.11 574.98 501.25 575.10 501.41 575.10
  L 505.32 574.94
  C 505.49 574.94 505.62 574.79 505.61 574.62
  L 504.55 559.60"
/>
<path stroke="#808080" vector-effect="non-scaling-stroke" d="
  M 775.74 467.67
  C 784.13 468.78 782.06 456.24 781.83 451.49
  C 781.75 449.69 780.27 448.28 778.47 448.26
  C 773.55 448.22 766.95 447.58 761.92 449.29
  C 761.57 449.41 761.40 449.66 761.42 450.03
  L 762.23 467.21
  C 762.25 467.48 762.46 467.69 762.73 467.71
  C 764.52 467.81 766.31 467.75 768.09 467.52
  C 770.96 467.14 773.12 467.32 775.74 467.67"
/>
<path stroke="#808080" vector-effect="non-scaling-stroke" d="
  M 679.67 456.30
  C 677.01 456.77 675.76 458.34 675.91 461.00
  C 676.55 472.29 677.01 483.51 677.30 494.66
  C 677.33 495.79 678.28 496.67 679.41 496.61
  L 703.12 495.35
  C 703.80 495.31 704.36 494.81 704.47 494.14
  C 706.16 484.03 705.34 472.20 704.43 461.99
  C 704.27 460.20 703.96 458.40 703.50 456.59
  C 703.42 456.26 703.21 456.09 702.87 456.06
  C 701.28 455.94 699.69 455.92 698.11 456.01
  C 692.07 456.33 685.86 456.28 680.45 456.23
  C 680.19 456.23 679.93 456.25 679.67 456.30"
/>
<path stroke="#808080" vector-effect="non-scaling-stroke" d="
  M 902.24 498.42
  C 905.46 488.52 905.92 476.12 906.25 465.75
  C 906.30 463.92 906.22 462.29 906.00 460.88
  C 905.95 460.55 905.76 460.36 905.42 460.32
  C 898.47 459.53 891.52 458.76 884.55 458.03
  C 881.32 457.69 878.06 458.13 877.87 461.92
  C 877.30 473.10 876.46 484.26 875.35 495.41
  C 875.22 496.77 875.84 497.48 877.21 497.54
  C 878.18 497.59 878.71 497.61 878.79 497.62
  C 886.26 498.61 893.80 499.08 901.40 499.03
  C 901.83 499.03 902.11 498.83 902.24 498.42"
/>
<path stroke="#808080" vector-effect="non-scaling-stroke" d="
  M 532.54 489.16
  C 532.46 489.47 532.71 489.78 533.04 489.76
  L 544.58 488.97
  C 544.90 488.95 545.11 488.61 544.99 488.31
  L 538.04 471.45
  C 537.87 471.03 537.25 471.07 537.13 471.51
  L 532.54 489.16"
/>
<path stroke="#808080" vector-effect="non-scaling-stroke" d="
  M 458.69 481.81
  C 462.39 482.02 466.36 481.62 466.46 477.00
  C 466.55 472.91 466.25 468.89 465.55 464.94
  C 465.30 463.49 464.02 462.44 462.55 462.47
  C 457.24 462.56 450.97 462.36 445.71 464.47
  C 445.36 464.61 445.21 464.87 445.25 465.24
  L 447.21 482.22
  C 447.24 482.50 447.40 482.66 447.69 482.69
  C 451.39 483.05 454.85 481.59 458.69 481.81"
/>
<path stroke="#808080" vector-effect="non-scaling-stroke" d="
  M 217.13 497.78
  C 217.02 498.10 217.25 498.42 217.58 498.43
  L 229.07 498.86
  C 229.42 498.88 229.67 498.54 229.56 498.20
  L 223.67 480.72
  C 223.52 480.26 222.87 480.26 222.72 480.72
  L 217.13 497.78"
/>
<path stroke="#808080" vector-effect="non-scaling-stroke" d="
  M 313.98 481.00
  C 313.52 477.49 312.46 473.52 308.50 472.51
  C 303.99 471.36 299.41 470.92 294.75 471.19
  C 292.93 471.30 291.18 471.30 289.49 471.21
  C 289.16 471.19 288.88 471.44 288.84 471.77
  C 287.79 481.40 287.27 490.81 287.26 500.00
  C 287.26 502.57 287.31 505.14 287.41 507.72
  C 287.50 510.17 287.87 512.60 288.50 515.02
  C 288.59 515.37 288.82 515.53 289.18 515.52
  C 294.93 515.25 300.69 514.95 306.44 514.64
  C 308.71 514.52 312.61 513.58 313.06 511.26
  C 315.01 501.23 315.31 491.14 313.98 481.00"
/>
<path stroke="#808080" vector-effect="non-scaling-stroke" d="
  M 761.78 547.37
  L 761.84 550.95
  C 761.85 551.68 762.45 552.27 763.19 552.26
  L 765.85 552.21
  C 766.95 552.20 767.82 551.20 767.80 549.99
  L 767.78 548.13
  C 767.76 546.92 766.85 545.96 765.75 545.97
  L 763.09 546.02
  C 762.36 546.03 761.77 546.63 761.78 547.37"
/>
<path stroke="#808080" vector-effect="non-scaling-stroke" d="
  M 746.40 552.32
  C 746.91 552.26 747.29 551.83 747.28 551.32
  L 747.19 547.54
  C 747.18 546.96 746.68 546.52 746.11 546.58
  L 741.87 547.00
  C 741.32 547.05 740.92 547.56 740.99 548.11
  L 741.47 551.91
  C 741.54 552.45 742.02 552.83 742.56 552.77
  L 746.40 552.32"
/>
<path stroke="#808080" vector-effect="non-scaling-stroke" d="
  M 720.17 555.40
  C 720.10 555.73 720.36 556.04 720.70 556.02
  L 723.40 555.82
  C 723.74 555.79 723.96 555.45 723.84 555.13
  L 722.15 550.61
  C 721.97 550.13 721.28 550.18 721.17 550.68
  L 720.17 555.40"
/>
<path stroke="#808080" vector-effect="non-scaling-stroke" d="
  M 862.20 550.66
  L 862.22 554.96
  C 862.22 555.40 862.57 555.75 863.01 555.75
  L 866.28 555.74
  C 867.36 555.73 868.24 554.96 868.23 554.02
  L 868.23 551.56
  C 868.22 550.62 867.34 549.85 866.26 549.86
  L 862.99 549.87
  C 862.55 549.87 862.20 550.22 862.20 550.66"
/>
<path stroke="#808080" vector-effect="non-scaling-stroke" d="
  M 640.00 553.61
  L 640.04 562.75
  C 640.05 563.58 640.72 564.25 641.55 564.24
  L 644.56 564.23
  C 646.37 564.22 647.82 562.75 647.81 560.95
  L 647.79 555.33
  C 647.78 553.53 646.30 552.08 644.50 552.09
  L 641.49 552.10
  C 640.66 552.11 639.99 552.78 640.00 553.61"
/>
<path stroke="#808080" vector-effect="non-scaling-stroke" d="
  M 896.30 559.66
  C 896.22 559.91 896.40 560.18 896.66 560.19
  L 899.57 560.33
  C 899.84 560.34 900.04 560.10 899.98 559.84
  L 898.77 554.76
  C 898.68 554.37 898.14 554.34 898.00 554.72
  L 896.30 559.66"
/>
<path stroke="#808080" vector-effect="non-scaling-stroke" d="
  M 608.99 553.96
  L 609.56 558.52
  C 609.61 558.87 609.93 559.12 610.28 559.08
  L 613.76 558.64
  C 614.88 558.49 615.68 557.50 615.55 556.42
  L 615.30 554.50
  C 615.17 553.42 614.15 552.66 613.02 552.80
  L 609.54 553.24
  C 609.19 553.29 608.94 553.61 608.99 553.96"
/>
<path stroke="#808080" vector-effect="non-scaling-stroke" d="
  M 523.74 565.49
  C 523.69 565.75 523.91 565.99 524.17 565.96
  L 527.07 565.68
  C 527.34 565.66 527.50 565.39 527.41 565.14
  L 525.47 560.19
  C 525.32 559.82 524.77 559.87 524.70 560.27
  L 523.74 565.49"
/>
</g>
<path fill="#ffffff" d="
  M 0.00 0.00
  L 1000.00 0.00
  L 1000.00 1000.00
  L 0.00 1000.00
  L 0.00 0.00
  Z
  M 762.19 489.65
  C 769.75 495.97 773.60 505.47 780.69 513.07
  C 780.90 513.31 781.20 513.44 781.52 513.45
  C 788.49 513.57 795.47 513.69 802.44 513.81
  C 806.92 513.89 809.10 514.22 812.11 511.72
  C 812.22 511.63 812.24 511.46 812.14 511.35
  C 804.67 503.34 797.14 495.38 789.55 487.45
  C 788.71 486.57 787.85 485.42 786.98 483.99
  C 786.77 483.66 786.86 483.49 787.25 483.49
  C 791.08 483.45 802.32 483.10 802.95 477.75
  C 803.95 469.23 803.97 460.81 804.24 452.26
  C 804.44 446.17 804.65 431.29 795.51 430.66
  C 788.74 430.20 781.99 429.64 775.25 428.97
  C 768.55 428.32 757.12 428.38 740.95 429.17
  C 737.60 429.33 737.50 434.03 737.40 436.42
  C 737.19 441.53 737.12 446.65 737.21 451.76
  C 737.54 471.79 737.75 491.62 737.83 511.23
  C 737.84 512.62 738.97 513.74 740.36 513.72
  L 759.16 513.51
  C 761.09 513.49 762.60 511.83 762.44 509.90
  C 761.89 503.50 761.02 496.47 761.76 489.82
  C 761.79 489.49 761.94 489.44 762.19 489.65
  Z
  M 847.41 432.04
  C 839.30 431.43 833.18 430.34 825.36 430.96
  C 824.44 431.03 823.93 431.53 823.83 432.45
  C 823.34 437.28 822.98 442.41 822.77 447.85
  C 822.00 466.90 821.33 485.95 820.74 505.00
  C 820.69 506.65 820.71 509.80 820.79 514.44
  C 820.79 514.78 820.96 514.96 821.30 514.98
  C 827.86 515.42 834.43 516.03 841.00 516.10
  C 843.34 516.13 844.55 515.01 844.64 512.76
  C 845.73 486.01 846.80 459.27 847.86 432.54
  C 847.87 432.23 847.72 432.06 847.41 432.04
  Z
  M 715.10 431.58
  C 714.79 431.45 714.04 431.39 712.86 431.41
  C 699.15 431.65 685.45 432.00 671.76 432.45
  C 666.70 432.62 661.11 432.80 656.38 434.81
  C 656.08 434.94 655.85 435.18 655.73 435.48
  C 653.69 440.92 654.09 448.72 654.16 454.50
  C 654.38 472.19 654.48 490.11 655.95 507.75
  C 656.26 511.44 657.17 517.07 661.00 517.42
  C 665.96 517.88 672.29 517.25 677.33 517.27
  C 692.55 517.34 707.81 516.14 722.98 514.97
  C 727.05 514.66 727.72 509.01 727.70 505.75
  C 727.58 485.63 727.14 465.52 726.37 445.41
  C 726.11 438.57 721.02 434.17 715.10 431.58
  Z
  M 852.98 511.46
  C 853.14 513.95 854.75 515.93 857.25 516.26
  C 876.32 518.77 895.46 520.35 914.68 521.00
  C 914.75 521.00 915.62 521.09 917.30 521.27
  C 921.17 521.69 923.07 518.55 923.51 515.00
  C 925.87 496.31 927.87 477.59 929.52 458.82
  C 929.96 453.81 930.15 450.93 930.08 450.18
  C 929.61 445.11 926.76 442.33 923.11 439.19
  C 921.62 437.91 920.37 437.22 919.38 437.12
  C 906.21 435.77 893.04 434.45 879.87 433.15
  C 874.02 432.57 868.79 432.57 863.35 433.05
  C 861.93 433.18 860.74 434.16 860.36 435.53
  C 859.23 439.56 858.43 443.57 857.94 447.55
  C 855.88 464.32 854.24 481.14 853.03 498.00
  C 852.71 502.49 852.69 506.97 852.98 511.46
  Z
  M 624.86 457.12
  C 624.81 456.42 625.13 456.07 625.84 456.08
  C 633.83 456.13 641.78 455.60 649.69 454.49
  C 650.10 454.43 650.30 454.19 650.29 453.78
  C 650.10 448.49 649.89 443.35 649.67 438.38
  C 649.59 436.69 649.22 435.27 648.55 434.10
  C 648.28 433.64 647.88 433.42 647.35 433.45
  C 625.93 434.59 604.89 435.91 584.24 437.41
  C 582.25 437.56 580.25 437.74 578.26 437.96
  C 575.02 438.32 575.83 440.83 576.27 442.94
  C 577.27 447.80 575.44 453.43 577.43 458.15
  C 577.61 458.57 578.03 458.83 578.48 458.81
  L 599.81 457.69
  C 601.34 457.61 602.65 458.78 602.74 460.30
  L 606.48 520.01
  C 606.51 520.50 606.78 520.73 607.27 520.70
  L 628.61 519.30
  C 629.03 519.27 629.23 519.05 629.20 518.63
  L 624.86 457.12
  Z
  M 549.27 505.65
  L 556.27 523.15
  C 556.40 523.48 556.64 523.63 556.99 523.61
  L 576.37 522.52
  C 576.93 522.49 577.29 521.92 577.08 521.41
  L 544.27 440.32
  C 544.10 439.91 543.80 439.71 543.36 439.70
  L 528.90 439.56
  C 528.49 439.55 528.21 439.75 528.08 440.14
  C 521.20 460.62 517.46 474.65 511.29 498.34
  C 508.97 507.23 505.87 516.56 503.23 525.73
  C 503.14 526.06 503.27 526.22 503.62 526.21
  L 521.99 525.35
  C 522.42 525.33 522.79 525.05 522.93 524.63
  L 528.85 506.41
  C 528.95 506.10 529.16 505.91 529.49 505.85
  C 535.53 504.72 541.62 504.30 547.77 504.58
  C 548.43 504.61 549.02 505.03 549.27 505.65
  Z
  M 151.04 494.47
  C 150.74 500.30 149.97 505.56 150.49 511.54
  C 151.02 517.70 150.83 523.86 149.94 530.01
  C 149.89 530.38 150.14 530.71 150.51 530.77
  C 157.68 531.78 164.88 532.25 172.12 532.17
  C 173.14 532.16 173.69 531.65 173.76 530.62
  C 175.57 504.01 178.29 476.50 177.27 449.52
  C 177.26 449.14 176.99 448.80 176.61 448.71
  C 172.48 447.66 168.10 448.41 164.50 447.99
  C 160.57 447.53 156.73 447.01 152.97 446.44
  C 152.56 446.38 152.15 446.59 151.95 446.96
  L 127.66 493.82
  C 127.47 494.20 126.92 494.18 126.76 493.79
  C 120.01 477.63 113.78 461.27 108.06 444.72
  C 107.64 443.52 106.46 442.76 105.20 442.89
  C 97.83 443.63 90.71 442.86 83.25 442.54
  C 82.92 442.53 82.75 442.68 82.72 443.01
  L 77.19 525.56
  C 77.16 526.00 77.37 526.24 77.81 526.27
  L 99.86 528.00
  C 100.49 528.05 100.83 527.75 100.86 527.12
  L 102.47 491.27
  C 102.50 490.68 102.65 490.64 102.94 491.16
  C 104.05 493.22 104.46 496.00 105.19 497.72
  C 108.16 504.73 111.13 511.73 114.12 518.74
  C 114.25 519.05 114.47 519.27 114.78 519.39
  C 120.45 521.70 127.65 521.68 133.68 521.23
  C 134.02 521.20 134.29 521.05 134.49 520.77
  C 140.51 512.36 145.91 503.56 150.70 494.39
  C 150.95 493.91 151.07 493.94 151.04 494.47
  Z
  M 448.83 504.91
  C 456.94 510.20 461.67 520.18 468.74 526.83
  C 468.97 527.05 469.25 527.15 469.58 527.14
  C 477.74 526.74 485.90 526.35 494.06 525.97
  C 496.40 525.86 497.92 524.88 499.79 523.70
  C 500.07 523.52 500.11 523.11 499.86 522.88
  L 472.95 497.84
  C 472.59 497.50 472.80 496.90 473.29 496.86
  C 477.30 496.55 481.22 495.72 485.05 494.37
  C 488.77 493.06 488.47 491.09 488.53 487.74
  C 488.71 477.73 488.39 467.73 487.58 457.75
  C 487.23 453.45 484.94 444.54 479.76 443.91
  C 474.52 443.28 468.05 443.46 461.00 443.46
  C 448.33 443.47 435.70 444.26 423.13 445.82
  C 419.71 446.25 420.21 453.63 420.41 456.18
  C 422.33 480.06 424.10 503.81 425.73 527.42
  C 425.86 529.37 426.91 530.28 428.86 530.14
  L 447.38 528.77
  C 449.28 528.63 450.64 526.89 450.33 525.02
  C 449.29 518.74 448.22 512.03 448.23 505.23
  C 448.24 504.76 448.44 504.65 448.83 504.91
  Z
  M 372.15 500.15
  C 374.06 499.48 376.43 499.01 379.25 498.74
  C 386.88 498.00 394.50 497.67 402.12 497.75
  C 403.02 497.76 403.85 497.22 404.21 496.39
  C 404.76 495.14 404.94 493.59 404.76 491.74
  C 404.43 488.24 404.34 484.70 404.49 481.11
  C 404.51 480.74 404.38 480.44 404.10 480.21
  C 402.82 479.16 401.12 478.67 398.99 478.74
  C 390.32 479.03 381.64 479.33 372.95 479.66
  C 372.61 479.67 372.31 479.56 372.05 479.35
  C 369.26 477.05 369.08 472.54 370.00 469.45
  C 370.27 468.57 370.86 468.09 371.78 468.02
  C 384.80 467.05 397.79 467.80 410.84 467.02
  C 411.17 467.00 411.36 466.83 411.41 466.50
  C 412.43 460.11 414.02 450.57 408.60 446.01
  C 408.35 445.80 408.07 445.69 407.74 445.70
  C 386.66 446.07 365.52 447.63 344.53 448.79
  C 342.92 448.88 341.74 450.35 342.00 451.95
  C 342.71 456.23 343.36 460.51 343.96 464.80
  C 344.51 468.80 344.77 473.12 344.73 477.76
  C 344.58 495.50 345.01 513.14 346.01 530.69
  C 346.05 531.44 346.56 532.08 347.28 532.29
  C 349.49 532.92 351.56 533.22 353.50 533.19
  C 374.24 532.82 394.78 532.53 415.41 529.94
  C 415.75 529.89 415.95 529.70 416.01 529.37
  C 416.91 523.96 415.13 518.03 413.67 512.83
  C 413.58 512.50 413.39 512.24 413.12 512.04
  C 408.86 508.90 404.37 510.90 399.65 510.96
  C 390.72 511.07 381.61 512.12 372.71 511.63
  C 372.02 511.59 371.49 511.02 371.50 510.33
  L 371.62 500.89
  C 371.63 500.56 371.84 500.26 372.15 500.15
  Z
  M 231.89 514.75
  C 232.20 514.86 232.41 515.07 232.51 515.39
  L 238.36 533.62
  C 238.45 533.91 238.65 534.06 238.96 534.07
  L 258.63 534.31
  C 259.10 534.32 259.44 533.86 259.29 533.41
  L 232.19 450.27
  C 232.01 449.72 231.71 449.44 231.29 449.41
  L 216.69 448.31
  C 216.34 448.28 216.11 448.43 215.98 448.76
  C 211.11 460.76 208.02 468.57 206.69 472.20
  C 202.01 484.99 196.67 502.49 190.94 517.39
  C 189.01 522.41 187.09 527.45 185.19 532.51
  C 185.12 532.71 185.26 532.93 185.48 532.93
  L 204.19 533.32
  C 204.54 533.33 204.79 533.17 204.92 532.84
  L 212.19 514.89
  C 212.32 514.56 212.63 514.33 212.98 514.31
  C 218.15 513.96 227.04 513.05 231.89 514.75
  Z
  M 334.33 528.32
  C 335.89 524.47 336.68 519.95 336.70 514.74
  C 336.74 501.08 336.69 487.42 336.54 473.75
  C 336.48 468.10 336.13 463.60 335.48 460.25
  C 334.84 456.95 330.80 451.24 327.75 450.47
  C 322.56 449.14 317.03 448.75 311.04 448.76
  C 296.91 448.77 283.20 448.98 269.90 449.37
  C 268.15 449.42 267.27 450.33 267.26 452.09
  C 267.19 477.76 267.29 502.90 267.57 527.51
  C 267.60 529.92 268.44 531.81 269.23 533.99
  C 269.33 534.25 269.57 534.44 269.84 534.46
  C 287.10 535.92 302.78 535.07 324.24 533.41
  C 328.09 533.12 332.91 531.83 334.33 528.32
  Z
  M 762.46 555.57
  L 770.31 555.28
  C 770.78 555.27 771.03 555.02 771.06 554.55
  L 771.63 544.64
  C 771.68 543.77 771.00 543.03 770.13 543.01
  L 758.27 542.71
  C 757.75 542.70 757.49 542.95 757.48 543.48
  L 757.19 561.90
  C 757.18 562.30 757.50 562.63 757.90 562.65
  L 761.21 562.80
  C 761.74 562.82 762.00 562.57 762.00 562.04
  L 762.00 556.04
  C 762.00 555.74 762.15 555.58 762.46 555.57
  Z
  M 741.68 557.55
  C 741.58 556.17 741.98 556.01 742.87 557.07
  L 747.32 562.34
  C 747.51 562.57 747.75 562.65 748.04 562.60
  C 749.55 562.33 751.08 562.30 752.61 562.51
  C 753.91 562.68 754.09 562.32 753.14 561.41
  L 747.86 556.33
  C 747.51 555.99 747.68 555.40 748.16 555.30
  L 750.58 554.82
  C 751.42 554.65 752.00 553.88 751.93 553.03
  L 751.21 544.64
  C 751.14 543.82 750.48 543.17 749.66 543.11
  C 745.23 542.78 740.83 542.96 736.45 543.64
  C 736.16 543.69 735.94 543.95 735.96 544.25
  L 737.13 562.97
  C 737.14 563.19 737.26 563.29 737.48 563.28
  L 741.93 562.97
  C 742.02 562.96 742.06 562.92 742.05 562.83
  L 741.68 557.55
  Z
  M 782.98 544.13
  C 783.00 543.74 782.71 543.39 782.31 543.34
  L 778.67 542.88
  C 778.21 542.82 777.81 543.18 777.81 543.64
  L 777.73 562.23
  C 777.73 562.65 778.08 563.00 778.50 563.00
  L 781.55 563.00
  C 781.96 563.00 782.30 562.67 782.32 562.26
  L 782.98 544.13
  Z
  M 801.54 555.50
  C 801.53 556.44 801.28 556.51 800.78 555.71
  C 798.45 551.96 796.50 548.01 794.93 543.87
  C 794.81 543.55 794.50 543.34 794.16 543.33
  L 790.33 543.27
  C 789.89 543.26 789.52 543.61 789.51 544.06
  L 788.99 562.98
  C 788.98 563.15 789.06 563.23 789.23 563.23
  L 792.96 563.25
  C 793.07 563.25 793.16 563.16 793.17 563.04
  L 793.52 553.50
  C 793.61 551.05 794.18 550.93 795.21 553.15
  C 796.83 556.62 798.74 559.92 800.94 563.07
  C 801.15 563.38 801.43 563.52 801.80 563.51
  L 804.88 563.41
  C 805.42 563.39 805.85 562.96 805.87 562.43
  L 806.27 545.09
  C 806.29 544.34 805.93 543.91 805.18 543.80
  L 802.94 543.48
  C 802.11 543.36 801.68 543.72 801.67 544.57
  L 801.54 555.50
  Z
  M 724.80 559.63
  L 726.10 562.62
  C 726.44 563.41 727.04 563.79 727.91 563.76
  L 730.01 563.68
  C 730.82 563.65 731.08 563.26 730.79 562.49
  L 723.77 544.44
  C 723.66 544.15 723.45 544.01 723.14 544.01
  L 720.04 544.00
  C 719.53 544.00 719.21 544.24 719.06 544.73
  L 713.46 563.96
  C 713.40 564.16 713.48 564.26 713.69 564.25
  L 717.53 564.11
  C 717.70 564.10 717.82 564.01 717.87 563.84
  L 719.13 559.80
  C 719.21 559.54 719.38 559.38 719.65 559.32
  C 721.10 558.99 722.56 558.91 724.05 559.07
  C 724.40 559.11 724.65 559.30 724.80 559.63
  Z
  M 829.38 548.73
  C 829.54 548.74 829.67 548.62 829.69 548.46
  L 830.08 544.91
  C 830.09 544.74 829.96 544.58 829.79 544.58
  L 813.20 543.98
  C 813.03 543.97 812.89 544.10 812.89 544.27
  L 812.74 547.88
  C 812.74 548.05 812.87 548.19 813.04 548.19
  L 818.78 548.29
  C 818.94 548.29 819.08 548.43 819.07 548.59
  L 818.60 563.67
  C 818.59 563.84 818.73 563.98 818.90 563.98
  L 822.88 564.04
  C 823.05 564.04 823.18 563.91 823.18 563.74
  L 823.35 548.81
  C 823.35 548.64 823.49 548.51 823.66 548.51
  L 829.38 548.73
  Z
  M 694.70 565.17
  L 705.46 564.50
  C 706.46 564.43 706.86 563.91 706.67 562.93
  L 706.55 562.28
  C 706.38 561.39 705.83 560.95 704.92 560.96
  L 697.72 561.02
  C 696.85 561.03 696.14 560.35 696.10 559.48
  L 695.74 551.38
  C 695.69 550.29 696.54 549.37 697.63 549.32
  L 704.00 549.02
  C 705.29 548.97 705.96 548.29 705.99 547.00
  L 706.00 546.45
  C 706.02 545.51 705.26 544.75 704.32 544.77
  C 700.95 544.84 697.89 544.95 695.15 545.10
  C 694.01 545.16 693.18 545.49 692.66 546.10
  C 690.35 548.79 691.74 559.46 692.32 563.25
  C 692.53 564.62 693.32 565.26 694.70 565.17
  Z
  M 847.03 557.06
  C 847.88 557.26 848.70 556.63 848.73 555.76
  L 848.77 554.85
  C 848.80 553.88 848.33 553.37 847.35 553.33
  L 842.31 553.12
  C 841.00 553.07 840.35 552.38 840.38 551.06
  L 840.39 550.49
  C 840.41 549.63 841.15 548.95 842.01 549.02
  L 849.97 549.62
  C 850.74 549.67 851.14 549.31 851.15 548.54
  L 851.20 546.59
  C 851.22 545.88 850.67 545.30 849.96 545.28
  L 835.81 544.91
  C 835.40 544.90 835.21 545.09 835.24 545.50
  C 835.62 551.49 834.67 557.48 834.50 563.47
  C 834.48 564.22 835.06 564.84 835.81 564.87
  L 849.68 565.36
  C 850.61 565.39 850.98 564.96 850.81 564.05
  L 850.56 562.68
  C 850.41 561.91 849.75 561.34 848.97 561.31
  L 840.78 560.98
  C 840.33 560.96 840.12 560.72 840.15 560.27
  L 840.33 557.50
  C 840.35 557.28 840.51 557.10 840.72 557.05
  C 842.82 556.56 844.92 556.56 847.03 557.06
  Z
  M 861.96 559.76
  C 861.98 559.37 862.48 559.22 862.71 559.54
  L 866.87 565.38
  C 867.20 565.84 867.64 566.08 868.20 566.11
  L 873.06 566.38
  C 873.56 566.41 873.65 566.24 873.32 565.85
  L 868.07 559.65
  C 867.76 559.29 868.04 558.73 868.52 558.76
  C 869.63 558.82 870.69 558.66 871.70 558.27
  C 872.03 558.14 872.21 557.90 872.22 557.54
  C 872.36 554.66 873.53 550.53 872.06 547.49
  C 871.93 547.21 871.71 547.04 871.41 546.99
  C 867.02 546.18 862.61 545.86 858.17 546.01
  C 857.77 546.02 857.56 546.23 857.54 546.63
  L 856.87 564.80
  C 856.84 565.44 857.15 565.75 857.79 565.73
  L 860.82 565.65
  C 861.37 565.64 861.66 565.35 861.69 564.80
  L 861.96 559.76
  Z
  M 664.28 559.55
  C 664.24 558.94 664.71 558.40 665.32 558.36
  L 671.86 557.88
  C 672.31 557.84 672.53 557.59 672.52 557.14
  L 672.45 555.13
  C 672.43 554.59 672.15 554.33 671.61 554.35
  L 665.65 554.58
  C 664.91 554.61 664.25 554.12 664.05 553.41
  L 663.70 552.16
  C 663.41 551.15 663.79 550.64 664.84 550.61
  L 672.64 550.39
  C 673.92 550.35 674.47 549.70 674.28 548.44
  L 674.24 548.18
  C 674.04 546.77 673.23 546.12 671.80 546.21
  L 658.46 547.08
  C 658.14 547.11 658.00 547.28 658.05 547.60
  C 658.94 553.80 658.81 559.88 659.10 565.99
  C 659.13 566.64 659.48 566.95 660.13 566.92
  L 674.65 566.13
  C 675.26 566.10 675.51 565.78 675.40 565.17
  L 675.00 563.08
  C 674.87 562.43 674.48 562.12 673.82 562.16
  L 665.56 562.61
  C 664.95 562.64 664.43 562.18 664.40 561.57
  L 664.28 559.55
  Z
  M 883.2359 548.1067
  C 883.26 547.68 882.94 547.32 882.5143 547.2911
  L 879.1606 547.0860
  C 878.74 547.06 878.37 547.38 878.3450 547.8076
  L 877.2241 566.1333
  C 877.20 566.56 877.52 566.92 877.9457 566.9489
  L 881.2994 567.1540
  C 881.72 567.18 882.09 566.86 882.1150 566.4324
  L 883.2359 548.1067
  Z
  M 635.72 548.98
  L 636.58 567.24
  C 636.60 567.76 637.05 568.17 637.57 568.14
  L 648.45 567.63
  C 650.76 567.52 652.55 565.71 652.45 563.59
  L 651.86 551.12
  C 651.76 549.00 649.81 547.36 647.50 547.47
  L 636.62 547.98
  C 636.10 548.01 635.69 548.45 635.72 548.98
  Z
  M 895.33 563.48
  L 899.61 563.53
  C 899.95 563.54 900.25 563.77 900.34 564.10
  L 901.50 568.47
  C 901.56 568.70 901.71 568.83 901.96 568.84
  L 906.00 569.01
  C 906.14 569.01 906.24 568.88 906.21 568.75
  L 901.13 548.93
  C 901.06 548.66 900.80 548.49 900.53 548.55
  C 899.59 548.75 898.66 548.70 897.75 548.39
  C 897.21 548.21 896.63 548.47 896.41 548.99
  L 888.76 566.98
  C 888.55 567.47 888.72 567.73 889.25 567.76
  L 892.29 567.91
  C 892.64 567.93 892.88 567.78 893.03 567.47
  L 894.71 563.87
  C 894.84 563.61 895.04 563.48 895.33 563.48
  Z
  M 611.07 563.32
  L 614.93 567.74
  C 615.63 568.53 616.51 568.89 617.56 568.80
  L 620.97 568.52
  C 621.91 568.44 622.03 568.08 621.34 567.44
  L 616.15 562.61
  C 615.72 562.21 615.92 561.49 616.50 561.37
  L 619.12 560.83
  C 619.39 560.78 619.55 560.61 619.58 560.34
  C 620.04 557.01 619.85 553.73 619.02 550.49
  C 618.93 550.12 618.66 549.82 618.30 549.70
  C 614.64 548.41 607.38 549.45 604.45 549.84
  C 604.07 549.89 603.90 550.10 603.93 550.48
  L 605.34 568.57
  C 605.39 569.20 605.73 569.50 606.36 569.47
  L 609.28 569.35
  C 610.01 569.32 610.33 568.94 610.24 568.22
  L 609.71 563.93
  C 609.62 563.17 610.56 562.74 611.07 563.32
  Z
  M 594.84 558.19
  L 590.19 558.72
  C 589.13 558.84 588.12 558.23 587.74 557.23
  C 586.92 555.08 587.59 554.16 589.76 554.46
  C 591.11 554.65 593.51 554.60 596.96 554.33
  C 597.73 554.27 598.09 553.85 598.04 553.08
  L 597.92 551.32
  C 597.85 550.37 597.35 549.94 596.40 550.01
  L 582.25 551.06
  C 581.94 551.08 581.81 551.24 581.84 551.55
  C 582.12 553.91 582.73 555.96 582.65 558.35
  C 582.52 562.14 582.65 566.09 583.04 570.20
  C 583.07 570.58 583.41 570.87 583.79 570.85
  L 598.68 570.00
  C 599.12 569.97 599.30 569.74 599.22 569.31
  L 598.73 566.66
  C 598.65 566.22 598.25 565.92 597.80 565.96
  L 589.68 566.71
  C 588.54 566.82 588.00 566.30 588.06 565.17
  L 588.13 563.78
  C 588.18 562.79 588.70 562.27 589.69 562.21
  L 595.12 561.88
  C 595.91 561.83 596.28 561.42 596.25 560.63
  L 596.19 559.34
  C 596.16 558.47 595.71 558.09 594.84 558.19
  Z
  M 566.38 567.32
  C 566.21 567.33 566.06 567.19 566.05 567.02
  L 565.73 551.98
  C 565.72 551.80 565.57 551.66 565.39 551.67
  L 560.75 552.01
  C 560.58 552.02 560.45 552.17 560.46 552.34
  L 561.63 571.62
  C 561.64 571.79 561.79 571.92 561.96 571.91
  L 575.95 571.14
  C 576.11 571.13 576.24 570.99 576.24 570.83
  L 576.25 567.02
  C 576.25 566.84 576.10 566.70 575.92 566.71
  L 566.38 567.32
  Z
  M 545.23 568.23
  C 544.20 564.60 545.12 562.40 544.39 558.60
  C 544.24 557.85 544.29 556.01 544.52 553.10
  C 544.53 552.91 544.45 552.83 544.26 552.84
  L 539.67 553.05
  C 539.48 553.06 539.39 553.15 539.40 553.34
  L 540.27 572.08
  C 540.30 572.77 540.66 573.09 541.34 573.05
  L 554.58 572.26
  C 554.89 572.24 555.14 571.98 555.13 571.67
  L 555.06 568.42
  C 555.05 567.99 554.84 567.80 554.42 567.84
  L 545.71 568.55
  C 545.46 568.57 545.30 568.46 545.23 568.23
  Z
  M 523.25 569.26
  C 524.74 568.95 526.24 568.91 527.74 569.12
  C 528.07 569.17 528.35 569.39 528.47 569.70
  L 530.05 573.54
  C 530.09 573.63 530.18 573.69 530.28 573.68
  L 534.62 573.35
  C 534.73 573.34 534.76 573.29 534.72 573.19
  L 527.12 554.29
  C 527.02 554.04 526.84 553.92 526.57 553.93
  L 523.13 554.03
  C 522.85 554.04 522.61 554.23 522.54 554.50
  L 517.12 573.76
  C 517.03 574.09 517.16 574.25 517.49 574.25
  L 520.71 574.21
  C 521.10 574.20 521.45 573.95 521.56 573.57
  L 522.69 569.76
  C 522.78 569.49 522.96 569.32 523.25 569.26
  Z
  M 504.55 559.60
  C 504.54 559.44 504.67 559.29 504.83 559.28
  L 510.60 558.95
  C 510.76 558.94 510.89 558.80 510.88 558.64
  L 510.74 554.98
  C 510.74 554.81 510.59 554.68 510.42 554.69
  L 493.99 555.74
  C 493.83 555.75 493.70 555.89 493.71 556.05
  L 493.80 559.53
  C 493.81 559.70 493.94 559.83 494.11 559.82
  L 499.84 559.71
  C 500.00 559.70 500.14 559.83 500.15 559.99
  L 501.10 574.82
  C 501.11 574.98 501.25 575.10 501.41 575.10
  L 505.32 574.94
  C 505.49 574.94 505.62 574.79 505.61 574.62
  L 504.55 559.60
  Z"
/>
<path fill="#000000" d="
  M 761.76 489.82
  C 761.02 496.47 761.89 503.50 762.44 509.90
  C 762.60 511.83 761.09 513.49 759.16 513.51
  L 740.36 513.72
  C 738.97 513.74 737.84 512.62 737.83 511.23
  C 737.75 491.62 737.54 471.79 737.21 451.76
  C 737.12 446.65 737.19 441.53 737.40 436.42
  C 737.50 434.03 737.60 429.33 740.95 429.17
  C 757.12 428.38 768.55 428.32 775.25 428.97
  C 781.99 429.64 788.74 430.20 795.51 430.66
  C 804.65 431.29 804.44 446.17 804.24 452.26
  C 803.97 460.81 803.95 469.23 802.95 477.75
  C 802.32 483.10 791.08 483.45 787.25 483.49
  C 786.86 483.49 786.77 483.66 786.98 483.99
  C 787.85 485.42 788.71 486.57 789.55 487.45
  C 797.14 495.38 804.67 503.34 812.14 511.35
  C 812.24 511.46 812.22 511.63 812.11 511.72
  C 809.10 514.22 806.92 513.89 802.44 513.81
  C 795.47 513.69 788.49 513.57 781.52 513.45
  C 781.20 513.44 780.90 513.31 780.69 513.07
  C 773.60 505.47 769.75 495.97 762.19 489.65
  C 761.94 489.44 761.79 489.49 761.76 489.82
  Z
  M 775.74 467.67
  C 784.13 468.78 782.06 456.24 781.83 451.49
  C 781.75 449.69 780.27 448.28 778.47 448.26
  C 773.55 448.22 766.95 447.58 761.92 449.29
  C 761.57 449.41 761.40 449.66 761.42 450.03
  L 762.23 467.21
  C 762.25 467.48 762.46 467.69 762.73 467.71
  C 764.52 467.81 766.31 467.75 768.09 467.52
  C 770.96 467.14 773.12 467.32 775.74 467.67
  Z"
/>
<path fill="#000000" d="
  M 825.36 430.96
  C 833.18 430.34 839.30 431.43 847.41 432.04
  C 847.72 432.06 847.87 432.23 847.86 432.54
  C 846.80 459.27 845.73 486.01 844.64 512.76
  C 844.55 515.01 843.34 516.13 841.00 516.10
  C 834.43 516.03 827.86 515.42 821.30 514.98
  C 820.96 514.96 820.79 514.78 820.79 514.44
  C 820.71 509.80 820.69 506.65 820.74 505.00
  C 821.33 485.95 822.00 466.90 822.77 447.85
  C 822.98 442.41 823.34 437.28 823.83 432.45
  C 823.93 431.53 824.44 431.03 825.36 430.96
  Z"
/>
<path fill="#000000" d="
  M 715.10 431.58
  C 721.02 434.17 726.11 438.57 726.37 445.41
  C 727.14 465.52 727.58 485.63 727.70 505.75
  C 727.72 509.01 727.05 514.66 722.98 514.97
  C 707.81 516.14 692.55 517.34 677.33 517.27
  C 672.29 517.25 665.96 517.88 661.00 517.42
  C 657.17 517.07 656.26 511.44 655.95 507.75
  C 654.48 490.11 654.38 472.19 654.16 454.50
  C 654.09 448.72 653.69 440.92 655.73 435.48
  C 655.85 435.18 656.08 434.94 656.38 434.81
  C 661.11 432.80 666.70 432.62 671.76 432.45
  C 685.45 432.00 699.15 431.65 712.86 431.41
  C 714.04 431.39 714.79 431.45 715.10 431.58
  Z
  M 679.67 456.30
  C 677.01 456.77 675.76 458.34 675.91 461.00
  C 676.55 472.29 677.01 483.51 677.30 494.66
  C 677.33 495.79 678.28 496.67 679.41 496.61
  L 703.12 495.35
  C 703.80 495.31 704.36 494.81 704.47 494.14
  C 706.16 484.03 705.34 472.20 704.43 461.99
  C 704.27 460.20 703.96 458.40 703.50 456.59
  C 703.42 456.26 703.21 456.09 702.87 456.06
  C 701.28 455.94 699.69 455.92 698.11 456.01
  C 692.07 456.33 685.86 456.28 680.45 456.23
  C 680.19 456.23 679.93 456.25 679.67 456.30
  Z"
/>
<path fill="#000000" d="
  M 857.25 516.26
  C 854.75 515.93 853.14 513.95 852.98 511.46
  C 852.69 506.97 852.71 502.49 853.03 498.00
  C 854.24 481.14 855.88 464.32 857.94 447.55
  C 858.43 443.57 859.23 439.56 860.36 435.53
  C 860.74 434.16 861.93 433.18 863.35 433.05
  C 868.79 432.57 874.02 432.57 879.87 433.15
  C 893.04 434.45 906.21 435.77 919.38 437.12
  C 920.37 437.22 921.62 437.91 923.11 439.19
  C 926.76 442.33 929.61 445.11 930.08 450.18
  C 930.15 450.93 929.96 453.81 929.52 458.82
  C 927.87 477.59 925.87 496.31 923.51 515.00
  C 923.07 518.55 921.17 521.69 917.30 521.27
  C 915.62 521.09 914.75 521.00 914.68 521.00
  C 895.46 520.35 876.32 518.77 857.25 516.26
  Z
  M 902.24 498.42
  C 905.46 488.52 905.92 476.12 906.25 465.75
  C 906.30 463.92 906.22 462.29 906.00 460.88
  C 905.95 460.55 905.76 460.36 905.42 460.32
  C 898.47 459.53 891.52 458.76 884.55 458.03
  C 881.32 457.69 878.06 458.13 877.87 461.92
  C 877.30 473.10 876.46 484.26 875.35 495.41
  C 875.22 496.77 875.84 497.48 877.21 497.54
  C 878.18 497.59 878.71 497.61 878.79 497.62
  C 886.26 498.61 893.80 499.08 901.40 499.03
  C 901.83 499.03 902.11 498.83 902.24 498.42
  Z"
/>
<path fill="#000000" d="
  M 624.86 457.12
  L 629.20 518.63
  C 629.23 519.05 629.03 519.27 628.61 519.30
  L 607.27 520.70
  C 606.78 520.73 606.51 520.50 606.48 520.01
  L 602.74 460.30
  C 602.65 458.78 601.34 457.61 599.81 457.69
  L 578.48 458.81
  C 578.03 458.83 577.61 458.57 577.43 458.15
  C 575.44 453.43 577.27 447.80 576.27 442.94
  C 575.83 440.83 575.02 438.32 578.26 437.96
  C 580.25 437.74 582.25 437.56 584.24 437.41
  C 604.89 435.91 625.93 434.59 647.35 433.45
  C 647.88 433.42 648.28 433.64 648.55 434.10
  C 649.22 435.27 649.59 436.69 649.67 438.38
  C 649.89 443.35 650.10 448.49 650.29 453.78
  C 650.30 454.19 650.10 454.43 649.69 454.49
  C 641.78 455.60 633.83 456.13 625.84 456.08
  C 625.13 456.07 624.81 456.42 624.86 457.12
  Z"
/>
<path fill="#000000" d="
  M 549.27 505.65
  C 549.02 505.03 548.43 504.61 547.77 504.58
  C 541.62 504.30 535.53 504.72 529.49 505.85
  C 529.16 505.91 528.95 506.10 528.85 506.41
  L 522.93 524.63
  C 522.79 525.05 522.42 525.33 521.99 525.35
  L 503.62 526.21
  C 503.27 526.22 503.14 526.06 503.23 525.73
  C 505.87 516.56 508.97 507.23 511.29 498.34
  C 517.46 474.65 521.20 460.62 528.08 440.14
  C 528.21 439.75 528.49 439.55 528.90 439.56
  L 543.36 439.70
  C 543.80 439.71 544.10 439.91 544.27 440.32
  L 577.08 521.41
  C 577.29 521.92 576.93 522.49 576.37 522.52
  L 556.99 523.61
  C 556.64 523.63 556.40 523.48 556.27 523.15
  L 549.27 505.65
  Z
  M 532.54 489.16
  C 532.46 489.47 532.71 489.78 533.04 489.76
  L 544.58 488.97
  C 544.90 488.95 545.11 488.61 544.99 488.31
  L 538.04 471.45
  C 537.87 471.03 537.25 471.07 537.13 471.51
  L 532.54 489.16
  Z"
/>
<path fill="#000000" d="
  M 150.70 494.39
  C 145.91 503.56 140.51 512.36 134.49 520.77
  C 134.29 521.05 134.02 521.20 133.68 521.23
  C 127.65 521.68 120.45 521.70 114.78 519.39
  C 114.47 519.27 114.25 519.05 114.12 518.74
  C 111.13 511.73 108.16 504.73 105.19 497.72
  C 104.46 496.00 104.05 493.22 102.94 491.16
  C 102.65 490.64 102.50 490.68 102.47 491.27
  L 100.86 527.12
  C 100.83 527.75 100.49 528.05 99.86 528.00
  L 77.81 526.27
  C 77.37 526.24 77.16 526.00 77.19 525.56
  L 82.72 443.01
  C 82.75 442.68 82.92 442.53 83.25 442.54
  C 90.71 442.86 97.83 443.63 105.20 442.89
  C 106.46 442.76 107.64 443.52 108.06 444.72
  C 113.78 461.27 120.01 477.63 126.76 493.79
  C 126.92 494.18 127.47 494.20 127.66 493.82
  L 151.95 446.96
  C 152.15 446.59 152.56 446.38 152.97 446.44
  C 156.73 447.01 160.57 447.53 164.50 447.99
  C 168.10 448.41 172.48 447.66 176.61 448.71
  C 176.99 448.80 177.26 449.14 177.27 449.52
  C 178.29 476.50 175.57 504.01 173.76 530.62
  C 173.69 531.65 173.14 532.16 172.12 532.17
  C 164.88 532.25 157.68 531.78 150.51 530.77
  C 150.14 530.71 149.89 530.38 149.94 530.01
  C 150.83 523.86 151.02 517.70 150.49 511.54
  C 149.97 505.56 150.74 500.30 151.04 494.47
  C 151.07 493.94 150.95 493.91 150.70 494.39
  Z"
/>
<path fill="#000000" d="
  M 448.23 505.23
  C 448.22 512.03 449.29 518.74 450.33 525.02
  C 450.64 526.89 449.28 528.63 447.38 528.77
  L 428.86 530.14
  C 426.91 530.28 425.86 529.37 425.73 527.42
  C 424.10 503.81 422.33 480.06 420.41 456.18
  C 420.21 453.63 419.71 446.25 423.13 445.82
  C 435.70 444.26 448.33 443.47 461.00 443.46
  C 468.05 443.46 474.52 443.28 479.76 443.91
  C 484.94 444.54 487.23 453.45 487.58 457.75
  C 488.39 467.73 488.71 477.73 488.53 487.74
  C 488.47 491.09 488.77 493.06 485.05 494.37
  C 481.22 495.72 477.30 496.55 473.29 496.86
  C 472.80 496.90 472.59 497.50 472.95 497.84
  L 499.86 522.88
  C 500.11 523.11 500.07 523.52 499.79 523.70
  C 497.92 524.88 496.40 525.86 494.06 525.97
  C 485.90 526.35 477.74 526.74 469.58 527.14
  C 469.25 527.15 468.97 527.05 468.74 526.83
  C 461.67 520.18 456.94 510.20 448.83 504.91
  C 448.44 504.65 448.24 504.76 448.23 505.23
  Z
  M 458.69 481.81
  C 462.39 482.02 466.36 481.62 466.46 477.00
  C 466.55 472.91 466.25 468.89 465.55 464.94
  C 465.30 463.49 464.02 462.44 462.55 462.47
  C 457.24 462.56 450.97 462.36 445.71 464.47
  C 445.36 464.61 445.21 464.87 445.25 465.24
  L 447.21 482.22
  C 447.24 482.50 447.40 482.66 447.69 482.69
  C 451.39 483.05 454.85 481.59 458.69 481.81
  Z"
/>
<path fill="#000000" d="
  M 371.62 500.89
  L 371.50 510.33
  C 371.49 511.02 372.02 511.59 372.71 511.63
  C 381.61 512.12 390.72 511.07 399.65 510.96
  C 404.37 510.90 408.86 508.90 413.12 512.04
  C 413.39 512.24 413.58 512.50 413.67 512.83
  C 415.13 518.03 416.91 523.96 416.01 529.37
  C 415.95 529.70 415.75 529.89 415.41 529.94
  C 394.78 532.53 374.24 532.82 353.50 533.19
  C 351.56 533.22 349.49 532.92 347.28 532.29
  C 346.56 532.08 346.05 531.44 346.01 530.69
  C 345.01 513.14 344.58 495.50 344.73 477.76
  C 344.77 473.12 344.51 468.80 343.96 464.80
  C 343.36 460.51 342.71 456.23 342.00 451.95
  C 341.74 450.35 342.92 448.88 344.53 448.79
  C 365.52 447.63 386.66 446.07 407.74 445.70
  C 408.07 445.69 408.35 445.80 408.60 446.01
  C 414.02 450.57 412.43 460.11 411.41 466.50
  C 411.36 466.83 411.17 467.00 410.84 467.02
  C 397.79 467.80 384.80 467.05 371.78 468.02
  C 370.86 468.09 370.27 468.57 370.00 469.45
  C 369.08 472.54 369.26 477.05 372.05 479.35
  C 372.31 479.56 372.61 479.67 372.95 479.66
  C 381.64 479.33 390.32 479.03 398.99 478.74
  C 401.12 478.67 402.82 479.16 404.10 480.21
  C 404.38 480.44 404.51 480.74 404.49 481.11
  C 404.34 484.70 404.43 488.24 404.76 491.74
  C 404.94 493.59 404.76 495.14 404.21 496.39
  C 403.85 497.22 403.02 497.76 402.12 497.75
  C 394.50 497.67 386.88 498.00 379.25 498.74
  C 376.43 499.01 374.06 499.48 372.15 500.15
  C 371.84 500.26 371.63 500.56 371.62 500.89
  Z"
/>
<path fill="#ffffff" d="
  M 781.83 451.49
  C 782.06 456.24 784.13 468.78 775.74 467.67
  C 773.12 467.32 770.96 467.14 768.09 467.52
  C 766.31 467.75 764.52 467.81 762.73 467.71
  C 762.46 467.69 762.25 467.48 762.23 467.21
  L 761.42 450.03
  C 761.40 449.66 761.57 449.41 761.92 449.29
  C 766.95 447.58 773.55 448.22 778.47 448.26
  C 780.27 448.28 781.75 449.69 781.83 451.49
  Z"
/>
<path fill="#000000" d="
  M 231.89 514.75
  C 227.04 513.05 218.15 513.96 212.98 514.31
  C 212.63 514.33 212.32 514.56 212.19 514.89
  L 204.92 532.84
  C 204.79 533.17 204.54 533.33 204.19 533.32
  L 185.48 532.93
  C 185.26 532.93 185.12 532.71 185.19 532.51
  C 187.09 527.45 189.01 522.41 190.94 517.39
  C 196.67 502.49 202.01 484.99 206.69 472.20
  C 208.02 468.57 211.11 460.76 215.98 448.76
  C 216.11 448.43 216.34 448.28 216.69 448.31
  L 231.29 449.41
  C 231.71 449.44 232.01 449.72 232.19 450.27
  L 259.29 533.41
  C 259.44 533.86 259.10 534.32 258.63 534.31
  L 238.96 534.07
  C 238.65 534.06 238.45 533.91 238.36 533.62
  L 232.51 515.39
  C 232.41 515.07 232.20 514.86 231.89 514.75
  Z
  M 217.13 497.78
  C 217.02 498.10 217.25 498.42 217.58 498.43
  L 229.07 498.86
  C 229.42 498.88 229.67 498.54 229.56 498.20
  L 223.67 480.72
  C 223.52 480.26 222.87 480.26 222.72 480.72
  L 217.13 497.78
  Z"
/>
<path fill="#000000" d="
  M 334.33 528.32
  C 332.91 531.83 328.09 533.12 324.24 533.41
  C 302.78 535.07 287.10 535.92 269.84 534.46
  C 269.57 534.44 269.33 534.25 269.23 533.99
  C 268.44 531.81 267.60 529.92 267.57 527.51
  C 267.29 502.90 267.19 477.76 267.26 452.09
  C 267.27 450.33 268.15 449.42 269.90 449.37
  C 283.20 448.98 296.91 448.77 311.04 448.76
  C 317.03 448.75 322.56 449.14 327.75 450.47
  C 330.80 451.24 334.84 456.95 335.48 460.25
  C 336.13 463.60 336.48 468.10 336.54 473.75
  C 336.69 487.42 336.74 501.08 336.70 514.74
  C 336.68 519.95 335.89 524.47 334.33 528.32
  Z
  M 313.98 481.00
  C 313.52 477.49 312.46 473.52 308.50 472.51
  C 303.99 471.36 299.41 470.92 294.75 471.19
  C 292.93 471.30 291.18 471.30 289.49 471.21
  C 289.16 471.19 288.88 471.44 288.84 471.77
  C 287.79 481.40 287.27 490.81 287.26 500.00
  C 287.26 502.57 287.31 505.14 287.41 507.72
  C 287.50 510.17 287.87 512.60 288.50 515.02
  C 288.59 515.37 288.82 515.53 289.18 515.52
  C 294.93 515.25 300.69 514.95 306.44 514.64
  C 308.71 514.52 312.61 513.58 313.06 511.26
  C 315.01 501.23 315.31 491.14 313.98 481.00
  Z"
/>
<path fill="#ffffff" d="
  M 679.67 456.30
  C 679.93 456.25 680.19 456.23 680.45 456.23
  C 685.86 456.28 692.07 456.33 698.11 456.01
  C 699.69 455.92 701.28 455.94 702.87 456.06
  C 703.21 456.09 703.42 456.26 703.50 456.59
  C 703.96 458.40 704.27 460.20 704.43 461.99
  C 705.34 472.20 706.16 484.03 704.47 494.14
  C 704.36 494.81 703.80 495.31 703.12 495.35
  L 679.41 496.61
  C 678.28 496.67 677.33 495.79 677.30 494.66
  C 677.01 483.51 676.55 472.29 675.91 461.00
  C 675.76 458.34 677.01 456.77 679.67 456.30
  Z"
/>
<path fill="#ffffff" d="
  M 902.24 498.42
  C 902.11 498.83 901.83 499.03 901.40 499.03
  C 893.80 499.08 886.26 498.61 878.79 497.62
  C 878.71 497.61 878.18 497.59 877.21 497.54
  C 875.84 497.48 875.22 496.77 875.35 495.41
  C 876.46 484.26 877.30 473.10 877.87 461.92
  C 878.06 458.13 881.32 457.69 884.55 458.03
  C 891.52 458.76 898.47 459.53 905.42 460.32
  C 905.76 460.36 905.95 460.55 906.00 460.88
  C 906.22 462.29 906.30 463.92 906.25 465.75
  C 905.92 476.12 905.46 488.52 902.24 498.42
  Z"
/>
<path fill="#ffffff" d="
  M 466.46 477.00
  C 466.36 481.62 462.39 482.02 458.69 481.81
  C 454.85 481.59 451.39 483.05 447.69 482.69
  C 447.40 482.66 447.24 482.50 447.21 482.22
  L 445.25 465.24
  C 445.21 464.87 445.36 464.61 445.71 464.47
  C 450.97 462.36 457.24 462.56 462.55 462.47
  C 464.02 462.44 465.30 463.49 465.55 464.94
  C 466.25 468.89 466.55 472.91 466.46 477.00
  Z"
/>
<path fill="#ffffff" d="
  M 308.50 472.51
  C 312.46 473.52 313.52 477.49 313.98 481.00
  C 315.31 491.14 315.01 501.23 313.06 511.26
  C 312.61 513.58 308.71 514.52 306.44 514.64
  C 300.69 514.95 294.93 515.25 289.18 515.52
  C 288.82 515.53 288.59 515.37 288.50 515.02
  C 287.87 512.60 287.50 510.17 287.41 507.72
  C 287.31 505.14 287.26 502.57 287.26 500.00
  C 287.27 490.81 287.79 481.40 288.84 471.77
  C 288.88 471.44 289.16 471.19 289.49 471.21
  C 291.18 471.30 292.93 471.30 294.75 471.19
  C 299.41 470.92 303.99 471.36 308.50 472.51
  Z"
/>
<path fill="#ffffff" d="
  M 532.54 489.16
  L 537.13 471.51
  C 537.25 471.07 537.87 471.03 538.04 471.45
  L 544.99 488.31
  C 545.11 488.61 544.90 488.95 544.58 488.97
  L 533.04 489.76
  C 532.71 489.78 532.46 489.47 532.54 489.16
  Z"
/>
<path fill="#ffffff" d="
  M 217.13 497.78
  L 222.72 480.72
  C 222.87 480.26 223.52 480.26 223.67 480.72
  L 229.56 498.20
  C 229.67 498.54 229.42 498.88 229.07 498.86
  L 217.58 498.43
  C 217.25 498.42 217.02 498.10 217.13 497.78
  Z"
/>
<path fill="#000000" d="
  M 762.00 556.04
  L 762.00 562.04
  C 762.00 562.57 761.74 562.82 761.21 562.80
  L 757.90 562.65
  C 757.50 562.63 757.18 562.30 757.19 561.90
  L 757.48 543.48
  C 757.49 542.95 757.75 542.70 758.27 542.71
  L 770.13 543.01
  C 771.00 543.03 771.68 543.77 771.63 544.64
  L 771.06 554.55
  C 771.03 555.02 770.78 555.27 770.31 555.28
  L 762.46 555.57
  C 762.15 555.58 762.00 555.74 762.00 556.04
  Z
  M 761.78 547.37
  L 761.84 550.95
  C 761.85 551.68 762.45 552.27 763.19 552.26
  L 765.85 552.21
  C 766.95 552.20 767.82 551.20 767.80 549.99
  L 767.78 548.13
  C 767.76 546.92 766.85 545.96 765.75 545.97
  L 763.09 546.02
  C 762.36 546.03 761.77 546.63 761.78 547.37
  Z"
/>
<path fill="#000000" d="
  M 741.68 557.55
  L 742.05 562.83
  C 742.06 562.92 742.02 562.96 741.93 562.97
  L 737.48 563.28
  C 737.26 563.29 737.14 563.19 737.13 562.97
  L 735.96 544.25
  C 735.94 543.95 736.16 543.69 736.45 543.64
  C 740.83 542.96 745.23 542.78 749.66 543.11
  C 750.48 543.17 751.14 543.82 751.21 544.64
  L 751.93 553.03
  C 752.00 553.88 751.42 554.65 750.58 554.82
  L 748.16 555.30
  C 747.68 555.40 747.51 555.99 747.86 556.33
  L 753.14 561.41
  C 754.09 562.32 753.91 562.68 752.61 562.51
  C 751.08 562.30 749.55 562.33 748.04 562.60
  C 747.75 562.65 747.51 562.57 747.32 562.34
  L 742.87 557.07
  C 741.98 556.01 741.58 556.17 741.68 557.55
  Z
  M 746.40 552.32
  C 746.91 552.26 747.29 551.83 747.28 551.32
  L 747.19 547.54
  C 747.18 546.96 746.68 546.52 746.11 546.58
  L 741.87 547.00
  C 741.32 547.05 740.92 547.56 740.99 548.11
  L 741.47 551.91
  C 741.54 552.45 742.02 552.83 742.56 552.77
  L 746.40 552.32
  Z"
/>
<path fill="#000000" d="
  M 782.98 544.13
  L 782.32 562.26
  C 782.30 562.67 781.96 563.00 781.55 563.00
  L 778.50 563.00
  C 778.08 563.00 777.73 562.65 777.73 562.23
  L 777.81 543.64
  C 777.81 543.18 778.21 542.82 778.67 542.88
  L 782.31 543.34
  C 782.71 543.39 783.00 543.74 782.98 544.13
  Z"
/>
<path fill="#000000" d="
  M 801.54 555.50
  L 801.67 544.57
  C 801.68 543.72 802.11 543.36 802.94 543.48
  L 805.18 543.80
  C 805.93 543.91 806.29 544.34 806.27 545.09
  L 805.87 562.43
  C 805.85 562.96 805.42 563.39 804.88 563.41
  L 801.80 563.51
  C 801.43 563.52 801.15 563.38 800.94 563.07
  C 798.74 559.92 796.83 556.62 795.21 553.15
  C 794.18 550.93 793.61 551.05 793.52 553.50
  L 793.17 563.04
  C 793.16 563.16 793.07 563.25 792.96 563.25
  L 789.23 563.23
  C 789.06 563.23 788.98 563.15 788.99 562.98
  L 789.51 544.06
  C 789.52 543.61 789.89 543.26 790.33 543.27
  L 794.16 543.33
  C 794.50 543.34 794.81 543.55 794.93 543.87
  C 796.50 548.01 798.45 551.96 800.78 555.71
  C 801.28 556.51 801.53 556.44 801.54 555.50
  Z"
/>
<path fill="#000000" d="
  M 724.05 559.07
  C 722.56 558.91 721.10 558.99 719.65 559.32
  C 719.38 559.38 719.21 559.54 719.13 559.80
  L 717.87 563.84
  C 717.82 564.01 717.70 564.10 717.53 564.11
  L 713.69 564.25
  C 713.48 564.26 713.40 564.16 713.46 563.96
  L 719.06 544.73
  C 719.21 544.24 719.53 544.00 720.04 544.00
  L 723.14 544.01
  C 723.45 544.01 723.66 544.15 723.77 544.44
  L 730.79 562.49
  C 731.08 563.26 730.82 563.65 730.01 563.68
  L 727.91 563.76
  C 727.04 563.79 726.44 563.41 726.10 562.62
  L 724.80 559.63
  C 724.65 559.30 724.40 559.11 724.05 559.07
  Z
  M 720.17 555.40
  C 720.10 555.73 720.36 556.04 720.70 556.02
  L 723.40 555.82
  C 723.74 555.79 723.96 555.45 723.84 555.13
  L 722.15 550.61
  C 721.97 550.13 721.28 550.18 721.17 550.68
  L 720.17 555.40
  Z"
/>
<path fill="#000000" d="
  M 829.38 548.73
  L 823.66 548.51
  C 823.49 548.51 823.35 548.64 823.35 548.81
  L 823.18 563.74
  C 823.18 563.91 823.05 564.04 822.88 564.04
  L 818.90 563.98
  C 818.73 563.98 818.59 563.84 818.60 563.67
  L 819.07 548.59
  C 819.08 548.43 818.94 548.29 818.78 548.29
  L 813.04 548.19
  C 812.87 548.19 812.74 548.05 812.74 547.88
  L 812.89 544.27
  C 812.89 544.10 813.03 543.97 813.20 543.98
  L 829.79 544.58
  C 829.96 544.58 830.09 544.74 830.08 544.91
  L 829.69 548.46
  C 829.67 548.62 829.54 548.74 829.38 548.73
  Z"
/>
<path fill="#000000" d="
  M 705.46 564.50
  L 694.70 565.17
  C 693.32 565.26 692.53 564.62 692.32 563.25
  C 691.74 559.46 690.35 548.79 692.66 546.10
  C 693.18 545.49 694.01 545.16 695.15 545.10
  C 697.89 544.95 700.95 544.84 704.32 544.77
  C 705.26 544.75 706.02 545.51 706.00 546.45
  L 705.99 547.00
  C 705.96 548.29 705.29 548.97 704.00 549.02
  L 697.63 549.32
  C 696.54 549.37 695.69 550.29 695.74 551.38
  L 696.10 559.48
  C 696.14 560.35 696.85 561.03 697.72 561.02
  L 704.92 560.96
  C 705.83 560.95 706.38 561.39 706.55 562.28
  L 706.67 562.93
  C 706.86 563.91 706.46 564.43 705.46 564.50
  Z"
/>
<path fill="#000000" d="
  M 847.03 557.06
  C 844.92 556.56 842.82 556.56 840.72 557.05
  C 840.51 557.10 840.35 557.28 840.33 557.50
  L 840.15 560.27
  C 840.12 560.72 840.33 560.96 840.78 560.98
  L 848.97 561.31
  C 849.75 561.34 850.41 561.91 850.56 562.68
  L 850.81 564.05
  C 850.98 564.96 850.61 565.39 849.68 565.36
  L 835.81 564.87
  C 835.06 564.84 834.48 564.22 834.50 563.47
  C 834.67 557.48 835.62 551.49 835.24 545.50
  C 835.21 545.09 835.40 544.90 835.81 544.91
  L 849.96 545.28
  C 850.67 545.30 851.22 545.88 851.20 546.59
  L 851.15 548.54
  C 851.14 549.31 850.74 549.67 849.97 549.62
  L 842.01 549.02
  C 841.15 548.95 840.41 549.63 840.39 550.49
  L 840.38 551.06
  C 840.35 552.38 841.00 553.07 842.31 553.12
  L 847.35 553.33
  C 848.33 553.37 848.80 553.88 848.77 554.85
  L 848.73 555.76
  C 848.70 556.63 847.88 557.26 847.03 557.06
  Z"
/>
<path fill="#ffffff" d="
  M 761.78 547.37
  C 761.77 546.63 762.36 546.03 763.09 546.02
  L 765.75 545.97
  C 766.85 545.96 767.76 546.92 767.78 548.13
  L 767.80 549.99
  C 767.82 551.20 766.95 552.20 765.85 552.21
  L 763.19 552.26
  C 762.45 552.27 761.85 551.68 761.84 550.95
  L 761.78 547.37
  Z"
/>
<path fill="#000000" d="
  M 861.96 559.76
  L 861.69 564.80
  C 861.66 565.35 861.37 565.64 860.82 565.65
  L 857.79 565.73
  C 857.15 565.75 856.84 565.44 856.87 564.80
  L 857.54 546.63
  C 857.56 546.23 857.77 546.02 858.17 546.01
  C 862.61 545.86 867.02 546.18 871.41 546.99
  C 871.71 547.04 871.93 547.21 872.06 547.49
  C 873.53 550.53 872.36 554.66 872.22 557.54
  C 872.21 557.90 872.03 558.14 871.70 558.27
  C 870.69 558.66 869.63 558.82 868.52 558.76
  C 868.04 558.73 867.76 559.29 868.07 559.65
  L 873.32 565.85
  C 873.65 566.24 873.56 566.41 873.06 566.38
  L 868.20 566.11
  C 867.64 566.08 867.20 565.84 866.87 565.38
  L 862.71 559.54
  C 862.48 559.22 861.98 559.37 861.96 559.76
  Z
  M 862.20 550.66
  L 862.22 554.96
  C 862.22 555.40 862.57 555.75 863.01 555.75
  L 866.28 555.74
  C 867.36 555.73 868.24 554.96 868.23 554.02
  L 868.23 551.56
  C 868.22 550.62 867.34 549.85 866.26 549.86
  L 862.99 549.87
  C 862.55 549.87 862.20 550.22 862.20 550.66
  Z"
/>
<path fill="#000000" d="
  M 665.56 562.61
  L 673.82 562.16
  C 674.48 562.12 674.87 562.43 675.00 563.08
  L 675.40 565.17
  C 675.51 565.78 675.26 566.10 674.65 566.13
  L 660.13 566.92
  C 659.48 566.95 659.13 566.64 659.10 565.99
  C 658.81 559.88 658.94 553.80 658.05 547.60
  C 658.00 547.28 658.14 547.11 658.46 547.08
  L 671.80 546.21
  C 673.23 546.12 674.04 546.77 674.24 548.18
  L 674.28 548.44
  C 674.47 549.70 673.92 550.35 672.64 550.39
  L 664.84 550.61
  C 663.79 550.64 663.41 551.15 663.70 552.16
  L 664.05 553.41
  C 664.25 554.12 664.91 554.61 665.65 554.58
  L 671.61 554.35
  C 672.15 554.33 672.43 554.59 672.45 555.13
  L 672.52 557.14
  C 672.53 557.59 672.31 557.84 671.86 557.88
  L 665.32 558.36
  C 664.71 558.40 664.24 558.94 664.28 559.55
  L 664.40 561.57
  C 664.43 562.18 664.95 562.64 665.56 562.61
  Z"
/>
<path fill="#ffffff" d="
  M 746.40 552.32
  L 742.56 552.77
  C 742.02 552.83 741.54 552.45 741.47 551.91
  L 740.99 548.11
  C 740.92 547.56 741.32 547.05 741.87 547.00
  L 746.11 546.58
  C 746.68 546.52 747.18 546.96 747.19 547.54
  L 747.28 551.32
  C 747.29 551.83 746.91 552.26 746.40 552.32
  Z"
/>
<rect fill="#000000" x="-2.45" y="-9.95" transform="translate(880.23,557.12) rotate(3.5)" width="4.90" height="19.90" rx="0.77"/>
<path fill="#000000" d="
  M 635.72 548.98
  C 635.69 548.45 636.10 548.01 636.62 547.98
  L 647.50 547.47
  C 649.81 547.36 651.76 549.00 651.86 551.12
  L 652.45 563.59
  C 652.55 565.71 650.76 567.52 648.45 567.63
  L 637.57 568.14
  C 637.05 568.17 636.60 567.76 636.58 567.24
  L 635.72 548.98
  Z
  M 640.00 553.61
  L 640.04 562.75
  C 640.05 563.58 640.72 564.25 641.55 564.24
  L 644.56 564.23
  C 646.37 564.22 647.82 562.75 647.81 560.95
  L 647.79 555.33
  C 647.78 553.53 646.30 552.08 644.50 552.09
  L 641.49 552.10
  C 640.66 552.11 639.99 552.78 640.00 553.61
  Z"
/>
<path fill="#000000" d="
  M 894.71 563.87
  L 893.03 567.47
  C 892.88 567.78 892.64 567.93 892.29 567.91
  L 889.25 567.76
  C 888.72 567.73 888.55 567.47 888.76 566.98
  L 896.41 548.99
  C 896.63 548.47 897.21 548.21 897.75 548.39
  C 898.66 548.70 899.59 548.75 900.53 548.55
  C 900.80 548.49 901.06 548.66 901.13 548.93
  L 906.21 568.75
  C 906.24 568.88 906.14 569.01 906.00 569.01
  L 901.96 568.84
  C 901.71 568.83 901.56 568.70 901.50 568.47
  L 900.34 564.10
  C 900.25 563.77 899.95 563.54 899.61 563.53
  L 895.33 563.48
  C 895.04 563.48 894.84 563.61 894.71 563.87
  Z
  M 896.30 559.66
  C 896.22 559.91 896.40 560.18 896.66 560.19
  L 899.57 560.33
  C 899.84 560.34 900.04 560.10 899.98 559.84
  L 898.77 554.76
  C 898.68 554.37 898.14 554.34 898.00 554.72
  L 896.30 559.66
  Z"
/>
<path fill="#000000" d="
  M 611.07 563.32
  C 610.56 562.74 609.62 563.17 609.71 563.93
  L 610.24 568.22
  C 610.33 568.94 610.01 569.32 609.28 569.35
  L 606.36 569.47
  C 605.73 569.50 605.39 569.20 605.34 568.57
  L 603.93 550.48
  C 603.90 550.10 604.07 549.89 604.45 549.84
  C 607.38 549.45 614.64 548.41 618.30 549.70
  C 618.66 549.82 618.93 550.12 619.02 550.49
  C 619.85 553.73 620.04 557.01 619.58 560.34
  C 619.55 560.61 619.39 560.78 619.12 560.83
  L 616.50 561.37
  C 615.92 561.49 615.72 562.21 616.15 562.61
  L 621.34 567.44
  C 622.03 568.08 621.91 568.44 620.97 568.52
  L 617.56 568.80
  C 616.51 568.89 615.63 568.53 614.93 567.74
  L 611.07 563.32
  Z
  M 608.99 553.96
  L 609.56 558.52
  C 609.61 558.87 609.93 559.12 610.28 559.08
  L 613.76 558.64
  C 614.88 558.49 615.68 557.50 615.55 556.42
  L 615.30 554.50
  C 615.17 553.42 614.15 552.66 613.02 552.80
  L 609.54 553.24
  C 609.19 553.29 608.94 553.61 608.99 553.96
  Z"
/>
<path fill="#ffffff" d="
  M 862.20 550.66
  C 862.20 550.22 862.55 549.87 862.99 549.87
  L 866.26 549.86
  C 867.34 549.85 868.22 550.62 868.23 551.56
  L 868.23 554.02
  C 868.24 554.96 867.36 555.73 866.28 555.74
  L 863.01 555.75
  C 862.57 555.75 862.22 555.40 862.22 554.96
  L 862.20 550.66
  Z"
/>
<path fill="#000000" d="
  M 594.84 558.19
  C 595.71 558.09 596.16 558.47 596.19 559.34
  L 596.25 560.63
  C 596.28 561.42 595.91 561.83 595.12 561.88
  L 589.69 562.21
  C 588.70 562.27 588.18 562.79 588.13 563.78
  L 588.06 565.17
  C 588.00 566.30 588.54 566.82 589.68 566.71
  L 597.80 565.96
  C 598.25 565.92 598.65 566.22 598.73 566.66
  L 599.22 569.31
  C 599.30 569.74 599.12 569.97 598.68 570.00
  L 583.79 570.85
  C 583.41 570.87 583.07 570.58 583.04 570.20
  C 582.65 566.09 582.52 562.14 582.65 558.35
  C 582.73 555.96 582.12 553.91 581.84 551.55
  C 581.81 551.24 581.94 551.08 582.25 551.06
  L 596.40 550.01
  C 597.35 549.94 597.85 550.37 597.92 551.32
  L 598.04 553.08
  C 598.09 553.85 597.73 554.27 596.96 554.33
  C 593.51 554.60 591.11 554.65 589.76 554.46
  C 587.59 554.16 586.92 555.08 587.74 557.23
  C 588.12 558.23 589.13 558.84 590.19 558.72
  L 594.84 558.19
  Z"
/>
<path fill="#ffffff" d="
  M 720.17 555.40
  L 721.17 550.68
  C 721.28 550.18 721.97 550.13 722.15 550.61
  L 723.84 555.13
  C 723.96 555.45 723.74 555.79 723.40 555.82
  L 720.70 556.02
  C 720.36 556.04 720.10 555.73 720.17 555.40
  Z"
/>
<path fill="#000000" d="
  M 566.38 567.32
  L 575.92 566.71
  C 576.10 566.70 576.25 566.84 576.25 567.02
  L 576.24 570.83
  C 576.24 570.99 576.11 571.13 575.95 571.14
  L 561.96 571.91
  C 561.79 571.92 561.64 571.79 561.63 571.62
  L 560.46 552.34
  C 560.45 552.17 560.58 552.02 560.75 552.01
  L 565.39 551.67
  C 565.57 551.66 565.72 551.80 565.73 551.98
  L 566.05 567.02
  C 566.06 567.19 566.21 567.33 566.38 567.32
  Z"
/>
<path fill="#ffffff" d="
  M 640.00 553.61
  C 639.99 552.78 640.66 552.11 641.49 552.10
  L 644.50 552.09
  C 646.30 552.08 647.78 553.53 647.79 555.33
  L 647.81 560.95
  C 647.82 562.75 646.37 564.22 644.56 564.23
  L 641.55 564.24
  C 640.72 564.25 640.05 563.58 640.04 562.75
  L 640.00 553.61
  Z"
/>
<path fill="#000000" d="
  M 544.39 558.60
  C 545.12 562.40 544.20 564.60 545.23 568.23
  C 545.30 568.46 545.46 568.57 545.71 568.55
  L 554.42 567.84
  C 554.84 567.80 555.05 567.99 555.06 568.42
  L 555.13 571.67
  C 555.14 571.98 554.89 572.24 554.58 572.26
  L 541.34 573.05
  C 540.66 573.09 540.30 572.77 540.27 572.08
  L 539.40 553.34
  C 539.39 553.15 539.48 553.06 539.67 553.05
  L 544.26 552.84
  C 544.45 552.83 544.53 552.91 544.52 553.10
  C 544.29 556.01 544.24 557.85 544.39 558.60
  Z"
/>
<path fill="#ffffff" d="
  M 608.99 553.96
  C 608.94 553.61 609.19 553.29 609.54 553.24
  L 613.02 552.80
  C 614.15 552.66 615.17 553.42 615.30 554.50
  L 615.55 556.42
  C 615.68 557.50 614.88 558.49 613.76 558.64
  L 610.28 559.08
  C 609.93 559.12 609.61 558.87 609.56 558.52
  L 608.99 553.96
  Z"
/>
<path fill="#000000" d="
  M 522.69 569.76
  L 521.56 573.57
  C 521.45 573.95 521.10 574.20 520.71 574.21
  L 517.49 574.25
  C 517.16 574.25 517.03 574.09 517.12 573.76
  L 522.54 554.50
  C 522.61 554.23 522.85 554.04 523.13 554.03
  L 526.57 553.93
  C 526.84 553.92 527.02 554.04 527.12 554.29
  L 534.72 573.19
  C 534.76 573.29 534.73 573.34 534.62 573.35
  L 530.28 573.68
  C 530.18 573.69 530.09 573.63 530.05 573.54
  L 528.47 569.70
  C 528.35 569.39 528.07 569.17 527.74 569.12
  C 526.24 568.91 524.74 568.95 523.25 569.26
  C 522.96 569.32 522.78 569.49 522.69 569.76
  Z
  M 523.74 565.49
  C 523.69 565.75 523.91 565.99 524.17 565.96
  L 527.07 565.68
  C 527.34 565.66 527.50 565.39 527.41 565.14
  L 525.47 560.19
  C 525.32 559.82 524.77 559.87 524.70 560.27
  L 523.74 565.49
  Z"
/>
<path fill="#ffffff" d="
  M 896.30 559.66
  L 898.00 554.72
  C 898.14 554.34 898.68 554.37 898.77 554.76
  L 899.98 559.84
  C 900.04 560.10 899.84 560.34 899.57 560.33
  L 896.66 560.19
  C 896.40 560.18 896.22 559.91 896.30 559.66
  Z"
/>
<path fill="#000000" d="
  M 504.55 559.60
  L 505.61 574.62
  C 505.62 574.79 505.49 574.94 505.32 574.94
  L 501.41 575.10
  C 501.25 575.10 501.11 574.98 501.10 574.82
  L 500.15 559.99
  C 500.14 559.83 500.00 559.70 499.84 559.71
  L 494.11 559.82
  C 493.94 559.83 493.81 559.70 493.80 559.53
  L 493.71 556.05
  C 493.70 555.89 493.83 555.75 493.99 555.74
  L 510.42 554.69
  C 510.59 554.68 510.74 554.81 510.74 554.98
  L 510.88 558.64
  C 510.89 558.80 510.76 558.94 510.60 558.95
  L 504.83 559.28
  C 504.67 559.29 504.54 559.44 504.55 559.60
  Z"
/>
<path fill="#ffffff" d="
  M 523.74 565.49
  L 524.70 560.27
  C 524.77 559.87 525.32 559.82 525.47 560.19
  L 527.41 565.14
  C 527.50 565.39 527.34 565.66 527.07 565.68
  L 524.17 565.96
  C 523.91 565.99 523.69 565.75 523.74 565.49
  Z"
/>
</svg>
